{
.appVersion = "1192";
DisplayStrings = (
"Advent Pro\012ABCDEFGHIJKLMNOPQRSTUVWXYZ\012abcdefghijklmnopqrstuvwxyz\0121234567890"
);
classes = (
{
automatic = 1;
code = "A Aacute Abreve Acircumflex Adieresis Agrave Amacron Aogonek Aring Atilde AE B C Cacute Ccaron Ccedilla Ccircumflex Cdotaccent D Eth Dcaron Dcroat E Eacute Ecaron Ecircumflex Edieresis Edotaccent Egrave Emacron Eogonek F G Gbreve Gcircumflex Gcommaaccent Gdotaccent H Hbar Hcircumflex I Iacute Ibreve Icircumflex Idieresis Idot Igrave Imacron Iogonek Itilde J Jcircumflex K Kcommaaccent L Lacute Lcaron Lcommaaccent Lslash M N Nacute Ncaron Ncommaaccent Eng Ntilde O Oacute Ocircumflex Odieresis Ograve Ohungarumlaut Omacron Oslash Otilde OE P Thorn Q R Racute Rcaron Rcommaaccent S Sacute Scaron Scircumflex Scommaaccent T Tbar Tcaron Tcommaaccent U Uacute Ubreve Ucircumflex Udieresis Ugrave Uhungarumlaut Umacron Uogonek Uring Utilde V W X Y Yacute Ydieresis Z Zacute Zcaron Zdotaccent Y.ss01 Yacute.ss01 Ydieresis.ss01 Alpha Beta Gamma Delta Epsilon Zeta Eta Theta Iota Kappa Lambda Mu Nu Xi Omicron Pi Rho Sigma Tau Upsilon Phi Chi Psi Omega Alphatonos Epsilontonos Etatonos Iotatonos Omicrontonos Upsilontonos Omegatonos Iotadieresis Upsilondieresis Upsilon.ss01 Upsilontonos.ss01 Upsilondieresis.ss01";
name = Uppercase;
}
);
copyright = "Copyright (c) 2008 Andreas Kalpakidis (hello@inderesting.com), with Reserved Font Name \"Advent Pro\"";
customParameters = (
{
name = openTypeNameLicense;
value = "This Font Software is licensed under the SIL Open Font License, Version 1.1. This license is available with a FAQ at: http://scripts.sil.org/OFL";
},
{
name = openTypeNameLicenseURL;
value = "http://scripts.sil.org/OFL";
},
{
name = openTypeNameSampleText;
value = "";
},
{
name = codePageRanges;
value = (
1252,
1250,
1253,
1254,
1257
);
},
{
name = fsType;
value = (
);
},
{
name = unicodeRanges;
value = (
0,
1,
2,
3,
5,
7,
31,
33,
35,
38,
45,
60
);
},
{
name = vendorID;
value = ADBE;
},
{
name = blueFuzz;

glyphs = (
{
glyphname = A;
lastChange = "2019-02-12 03:57:44 +0000";
layers = (
{
anchors = (
{
name = bottom;
position = "{528, 0}";
},
{
name = ogonek;
position = "{1034, 0}";
},
{
name = top;
position = "{528, 1388}";
}
);
layerId = "BADA37E3-C95E-4946-BA48-1F986F6D85A7";
paths = (
{
closed = 1;
nodes = (
"142 0 LINE",
"298 490 LINE",
"754 490 LINE",
"914 0 LINE",
"1034 0 LINE",
"578 1400 LINE",
"472 1400 LINE",
"24 0 LINE"
);
},
{
closed = 1;
nodes = (
"524 1226 LINE",
"724 600 LINE",
"330 600 LINE"
);
}
);
width = 1054;
},
{
anchors = (
{
name = bottom;
position = "{528, 0}";
},
{
name = ogonek;
position = "{1034, 0}";
},
{
name = top;
position = "{528, 1388}";
}
);
layerId = "77B00D75-0619-4FB7-8D17-EB9FCD2DF18B";
paths = (
{
closed = 1;
nodes = (
"62 0 LINE",
"260 562 LINE",
"796 562 LINE",
"992 0 LINE",
"1034 0 LINE",
"542 1400 LINE",
"514 1400 LINE",
"24 0 LINE"
);
},
{
closed = 1;
nodes = (
"528 1320 LINE",
"782 600 LINE",
"274 600 LINE"
);
}
);
width = 1054;
},
{
anchors = (
{
name = bottom;
position = "{528, 0}";
},
{
name = ogonek;
position = "{1034, 0}";
},
{
name = top;
position = "{528, 1388}";
}
);
layerId = "8A94633D-DA21-409C-A8B7-00A83612E8B2";
paths = (
{
closed = 1;
nodes = (
"290 0 LINE",
"368 366 LINE",
"690 366 LINE",
"772 0 LINE",
"1034 0 LINE",
"680 1400 LINE",
"370 1400 LINE",
"42 0 LINE"
);
},
{
closed = 1;
nodes = (
"524 1032 LINE",
"638 600 LINE",
"420 600 LINE"
);
}
);
width = 1054;
}
);
leftKerningGroup = A;
rightKerningGroup = A;
unicode = 0041;
},
{
glyphname = Aring;
lastChange = "2019-02-12 03:57:44 +0000";
layers = (
{
anchors = (
{
name = _top;
position = "{528, 1388}";
},
{
name = bottom;
position = "{528, 0}";
},
{
name = ogonek;
position = "{1034, 0}";
},
{
name = top;
position = "{528, 1388}";
}
);
layerId = "BADA37E3-C95E-4946-BA48-1F986F6D85A7";
paths = (
{
closed = 1;
nodes = (
"142 0 LINE",
"298 490 LINE",
"754 490 LINE",
"914 0 LINE",
"1034 0 LINE",
"578 1400 LINE",
"472 1400 LINE",
"24 0 LINE"
);
},
{
closed = 1;
nodes = (
"524 1226 LINE",
"724 600 LINE",
"330 600 LINE"
);
},
{
closed = 1;
nodes = (
"652 1338 OFFCURVE",
"756 1438 OFFCURVE",
"756 1562 CURVE SMOOTH",
"756 1684 OFFCURVE",
"652 1786 OFFCURVE",
"528 1786 CURVE SMOOTH",
"404 1786 OFFCURVE",
"300 1684 OFFCURVE",
"300 1562 CURVE SMOOTH",
"300 1438 OFFCURVE",
"404 1338 OFFCURVE",
"528 1338 CURVE SMOOTH"
);
},
{
closed = 1;
nodes = (
"452 1424 OFFCURVE",
"390 1482 OFFCURVE",
"390 1562 CURVE SMOOTH",
"390 1642 OFFCURVE",
"452 1700 OFFCURVE",
"528 1700 CURVE SMOOTH",
"604 1700 OFFCURVE",
"666 1642 OFFCURVE",
"666 1562 CURVE SMOOTH",
"666 1482 OFFCURVE",
"604 1424 OFFCURVE",
"528 1424 CURVE SMOOTH"
);
}
);
width = 1054;
},
{
anchors = (
{
name = _top;
position = "{528, 1388}";
},
{
name = bottom;
position = "{528, 0}";
},
{
name = ogonek;
position = "{1034, 0}";
},
{
name = top;
position = "{528, 1388}";
}
);
layerId = "77B00D75-0619-4FB7-8D17-EB9FCD2DF18B";
paths = (
{
closed = 1;
nodes = (
"62 0 LINE",
"260 562 LINE",
"796 562 LINE",
"992 0 LINE",
"1034 0 LINE",
"542 1400 LINE",
"514 1400 LINE",
"24 0 LINE"
);
},
{
closed = 1;
nodes = (
"528 1320 LINE",
"782 600 LINE",
"274 600 LINE"
);
},
{
closed = 1;
nodes = (
"646 1362 OFFCURVE",
"742 1460 OFFCURVE",
"742 1576 CURVE SMOOTH",
"742 1690 OFFCURVE",
"646 1788 OFFCURVE",
"528 1788 CURVE SMOOTH",
"408 1788 OFFCURVE",
"314 1690 OFFCURVE",
"314 1576 CURVE SMOOTH",
"314 1460 OFFCURVE",
"408 1362 OFFCURVE",
"528 1362 CURVE SMOOTH"
);
},
{
closed = 1;
nodes = (
"432 1404 OFFCURVE",
"356 1482 OFFCURVE",
"356 1576 CURVE SMOOTH",
"356 1670 OFFCURVE",
"432 1746 OFFCURVE",
"528 1746 CURVE SMOOTH",
"624 1746 OFFCURVE",
"698 1670 OFFCURVE",
"698 1576 CURVE SMOOTH",
"698 1482 OFFCURVE",
"624 1404 OFFCURVE",
"528 1404 CURVE SMOOTH"
);
}
);
width = 1054;
},
{
anchors = (
{
name = _top;
position = "{528, 1388}";
},
{
name = bottom;
position = "{528, 0}";
},
{
name = ogonek;
position = "{1034, 0}";
},
{
name = top;
position = "{528, 1388}";
}
);
layerId = "8A94633D-DA21-409C-A8B7-00A83612E8B2";
paths = (
{
closed = 1;
nodes = (
"290 0 LINE",
"368 366 LINE",
"690 366 LINE",
"772 0 LINE",
"1034 0 LINE",
"680 1400 LINE",
"370 1400 LINE",
"42 0 LINE"
);
},
{
closed = 1;
nodes = (
"524 1032 LINE",
"638 600 LINE",
"420 600 LINE"
);
},
{
closed = 1;
nodes = (
"656 1338 OFFCURVE",
"754 1434 OFFCURVE",
"754 1552 CURVE SMOOTH",
"754 1674 OFFCURVE",
"656 1770 OFFCURVE",
"524 1770 CURVE SMOOTH",
"402 1770 OFFCURVE",
"302 1672 OFFCURVE",
"302 1552 CURVE SMOOTH",
"302 1434 OFFCURVE",
"402 1338 OFFCURVE",
"532 1338 CURVE SMOOTH"
);
},
{
closed = 1;
nodes = (
"488 1484 OFFCURVE",
"458 1512 OFFCURVE",
"458 1552 CURVE SMOOTH",
"458 1592 OFFCURVE",
"488 1624 OFFCURVE",
"528 1624 CURVE SMOOTH",
"568 1624 OFFCURVE",
"598 1592 OFFCURVE",
"598 1552 CURVE SMOOTH",
"598 1512 OFFCURVE",
"568 1484 OFFCURVE",
"528 1484 CURVE SMOOTH"
);
}
);
width = 1054;
}
);
leftKerningGroup = A;
leftMetricsKey = A;
rightKerningGroup = A;
rightMetricsKey = A;
unicode = 00C5;
},
{
glyphname = AE;
lastChange = "2019-02-12 03:57:44 +0000";
layers = (
{
layerId = "BADA37E3-C95E-4946-BA48-1F986F6D85A7";
paths = (
{
closed = 1;
nodes = (
"274 0 LINE",
"530 490 LINE",
"890 490 LINE",
"888 0 LINE",
"1554 0 LINE",
"1554 100 LINE",
"1002 100 LINE",
"1002 716 LINE",
"1346 716 LINE",
"1384 826 LINE",
"1002 826 LINE",
"1002 1296 LINE",
"1558 1296 LINE",
"1558 1400 LINE",
"888 1400 LINE",
"156 0 LINE"
);
},
{
closed = 1;
nodes = (
"890 1180 LINE",
"890 600 LINE",
"586 600 LINE"
);
}
);
width = 1624;
},
{
layerId = "77B00D75-0619-4FB7-8D17-EB9FCD2DF18B";
paths = (
{
closed = 1;
nodes = (
"200 0 LINE",
"494 562 LINE",
"890 562 LINE",
"888 0 LINE",
"1554 0 LINE",
"1554 40 LINE",
"928 40 LINE",
"928 788 LINE",
"1370 788 LINE",
"1384 826 LINE",
"928 826 LINE",
"928 1362 LINE",
"1558 1362 LINE",
"1558 1400 LINE",
"888 1400 LINE",
"156 0 LINE"
);
},
{
closed = 1;
nodes = (
"890 1328 LINE",
"890 600 LINE",
"512 600 LINE"
);
}
);
width = 1636;
},
{
layerId = "8A94633D-DA21-409C-A8B7-00A83612E8B2";
paths = (
{
closed = 1;
nodes = (
"416 0 LINE",
"616 390 LINE",
"890 390 LINE",
"888 0 LINE",
"1554 0 LINE",
"1554 202 LINE",
"1110 202 LINE",
"1110 616 LINE",
"1346 616 LINE",
"1414 826 LINE",
"1110 826 LINE",
"1110 1180 LINE",
"1558 1180 LINE",
"1558 1400 LINE",
"888 1400 LINE",
"156 0 LINE"
);
},
{
closed = 1;
nodes = (
"890 924 LINE",
"890 600 LINE",
"726 600 LINE"
);
}
);
width = 1636;
}
);
leftKerningGroup = A;
rightKerningGroup = E;
unicode = 00C6;
},
{
glyphname = B;
lastChange = "2019-02-12 03:57:44 +0000";
layers = (
{
anchors = (
{
name = bottom;
position = "{544, 0}";
},
{
name = top;
position = "{544, 1388}";
}
);
layerId = "BADA37E3-C95E-4946-BA48-1F986F6D85A7";
paths = (
{
closed = 1;
nodes = (
"616 0 LINE SMOOTH",
"878 0 OFFCURVE",
"1022 160 OFFCURVE",
"1022 418 CURVE SMOOTH",
"1022 610 OFFCURVE",
"930 728 OFFCURVE",
"800 782 CURVE",
"908 846 OFFCURVE",
"950 954 OFFCURVE",
"950 1074 CURVE SMOOTH",
"950 1278 OFFCURVE",
"822 1400 OFFCURVE",
"598 1400 CURVE SMOOTH",
"156 1400 LINE",
"156 0 LINE"
);
},
{
closed = 1;
nodes = (
"268 716 LINE",
"646 716 LINE SMOOTH",
"785 716 OFFCURVE",
"902 624 OFFCURVE",
"902 420 CURVE SMOOTH",
"902 213 OFFCURVE",
"805 106 OFFCURVE",
"612 106 CURVE SMOOTH",
"268 106 LINE"
);
},
{
closed = 1;
nodes = (
"268 1294 LINE",
"582 1294 LINE SMOOTH",
"750 1294 OFFCURVE",
"834 1216 OFFCURVE",
"834 1060 CURVE SMOOTH",
"834 908 OFFCURVE",
"743 826 OFFCURVE",
"594 826 CURVE SMOOTH",
"268 826 LINE"
);
}
);
width = 1088;
},
{
anchors = (
{
name = bottom;
position = "{550, 0}";
},
{
name = top;
position = "{550, 1388}";
}
);
layerId = "77B00D75-0619-4FB7-8D17-EB9FCD2DF18B";
paths = (
{
closed = 1;
nodes = (
"616 0 LINE SMOOTH",
"878 0 OFFCURVE",
"1022 160 OFFCURVE",
"1022 418 CURVE SMOOTH",
"1022 610 OFFCURVE",
"938 744 OFFCURVE",
"756 806 CURVE",
"860 838 OFFCURVE",
"950 930 OFFCURVE",
"950 1090 CURVE SMOOTH",
"950 1285 OFFCURVE",
"817 1400 OFFCURVE",
"598 1400 CURVE SMOOTH",
"156 1400 LINE",
"156 0 LINE"
);
},
{
closed = 1;
nodes = (
"194 788 LINE",
"618 788 LINE SMOOTH",
"847 788 OFFCURVE",
"984 639 OFFCURVE",
"984 410 CURVE SMOOTH",
"984 181 OFFCURVE",
"852 38 OFFCURVE",
"612 38 CURVE SMOOTH",
"194 38 LINE"
);
},
{
closed = 1;
nodes = (
"194 1362 LINE",
"582 1362 LINE SMOOTH",
"809 1362 OFFCURVE",
"912 1251 OFFCURVE",
"912 1086 CURVE SMOOTH",
"912 938 OFFCURVE",
"806 826 OFFCURVE",
"670 826 CURVE SMOOTH",
"194 826 LINE"
);
}
);
width = 1100;
},
{
anchors = (
{
name = bottom;
position = "{542, 0}";
},
{
name = top;
position = "{522, 1388}";
}
);
layerId = "8A94633D-DA21-409C-A8B7-00A83612E8B2";
paths = (
{
closed = 1;
nodes = (
"594 0 LINE SMOOTH",
"884 0 OFFCURVE",
"1022 184 OFFCURVE",
"1022 410 CURVE SMOOTH",
"1022 590 OFFCURVE",
"930 706 OFFCURVE",
"806 762 CURVE",
"902 822 OFFCURVE",
"950 916 OFFCURVE",
"950 1038 CURVE SMOOTH",
"950 1272 OFFCURVE",
"785 1400 OFFCURVE",
"564 1400 CURVE SMOOTH",
"156 1400 LINE",
"156 0 LINE"
);
},
{
closed = 1;
nodes = (
"376 614 LINE",
"516 614 LINE SMOOTH",
"685 614 OFFCURVE",
"770 552 OFFCURVE",
"770 404 CURVE SMOOTH",
"770 241 OFFCURVE",
"682 202 OFFCURVE",
"498 202 CURVE SMOOTH",
"376 202 LINE"
);
},
{
closed = 1;
nodes = (
"376 1180 LINE",
"492 1180 LINE SMOOTH",
"628 1180 OFFCURVE",
"694 1137 OFFCURVE",
"694 1012 CURVE SMOOTH",
"694 876 OFFCURVE",
"624 826 OFFCURVE",
"472 826 CURVE SMOOTH",
"376 826 LINE"
);
}
);
width = 1100;
}
);
leftKerningGroup = H;
rightKerningGroup = B;
unicode = 0042;
},
{
glyphname = C;
lastChange = "2019-02-12 03:57:44 +0000";
layers = (
{
anchors = (
{
name = bottom;
position = "{530, 0}";
},
{
name = top;
position = "{502, 1388}";
}
);
layerId = "BADA37E3-C95E-4946-BA48-1F986F6D85A7";
paths = (
{
closed = 1;
nodes = (
"633 -20 OFFCURVE",
"741 2 OFFCURVE",
"854 46 CURVE",
"830 140 LINE",
"717 100 OFFCURVE",
"620 80 OFFCURVE",
"540 80 CURVE SMOOTH",
"360 80 OFFCURVE",
"244 174 OFFCURVE",
"244 370 CURVE SMOOTH",
"244 1026 LINE SMOOTH",
"244 1222 OFFCURVE",
"348 1320 OFFCURVE",
"556 1320 CURVE SMOOTH",
"624 1320 OFFCURVE",
"696 1306 OFFCURVE",
"772 1278 CURVE",
"804 1354 LINE",
"717 1398 OFFCURVE",
"623 1420 OFFCURVE",
"520 1420 CURVE SMOOTH",
"437 1420 OFFCURVE",
"366 1403 OFFCURVE",
"306 1370 CURVE SMOOTH",
"189 1298 OFFCURVE",
"132 1211 OFFCURVE",
"132 1008 CURVE SMOOTH",
"132 366 LINE SMOOTH",
"132 46 OFFCURVE",
"346 -20 OFFCURVE",
"530 -20 CURVE SMOOTH"
);
}
);
width = 872;
},
{
anchors = (
{
name = bottom;
position = "{508, 0}";
},
{
name = top;
position = "{520, 1388}";
}
);
layerId = "77B00D75-0619-4FB7-8D17-EB9FCD2DF18B";
paths = (
{
closed = 1;
nodes = (
"633 -20 OFFCURVE",
"741 2 OFFCURVE",
"854 46 CURVE",
"842 82 LINE",
"726 36 OFFCURVE",
"618 14 OFFCURVE",
"522 14 CURVE SMOOTH",
"294 14 OFFCURVE",
"170 150 OFFCURVE",
"170 370 CURVE SMOOTH",
"170 1026 LINE SMOOTH",
"170 1256 OFFCURVE",
"299 1382 OFFCURVE",
"526 1382 CURVE SMOOTH",
"607 1382 OFFCURVE",
"695 1361 OFFCURVE",
"788 1320 CURVE",
"804 1354 LINE",
"723 1398 OFFCURVE",
"628 1420 OFFCURVE",
"520 1420 CURVE SMOOTH",
"436 1420 OFFCURVE",
"365 1403 OFFCURVE",
"306 1370 CURVE SMOOTH",
"189 1298 OFFCURVE",
"132 1211 OFFCURVE",
"132 1008 CURVE SMOOTH",
"132 366 LINE SMOOTH",
"132 46 OFFCURVE",
"346 -20 OFFCURVE",
"530 -20 CURVE SMOOTH"
);
}
);
width = 860;
},
{
anchors = (
{
name = bottom;
position = "{520, 0}";
},
{
name = top;
position = "{514, 1388}";
}
);
layerId = "8A94633D-DA21-409C-A8B7-00A83612E8B2";
paths = (
{
closed = 1;
nodes = (
"622 -20 OFFCURVE",
"750 6 OFFCURVE",
"854 46 CURVE",
"820 254 LINE",
"728 228 OFFCURVE",
"634 204 OFFCURVE",
"530 204 CURVE SMOOTH",
"416 204 OFFCURVE",
"352 242 OFFCURVE",
"352 370 CURVE SMOOTH",
"352 1026 LINE SMOOTH",
"352 1120 OFFCURVE",
"428 1188 OFFCURVE",
"540 1188 CURVE SMOOTH",
"613 1188 OFFCURVE",
"681 1177 OFFCURVE",
"742 1154 CURVE",
"804 1354 LINE",
"718 1398 OFFCURVE",
"618 1420 OFFCURVE",
"520 1420 CURVE SMOOTH",
"438 1420 OFFCURVE",
"366 1404 OFFCURVE",
"306 1368 CURVE SMOOTH",
"188 1298 OFFCURVE",
"132 1210 OFFCURVE",
"132 1008 CURVE SMOOTH",
"132 366 LINE SMOOTH",
"132 118 OFFCURVE",
"266 -20 OFFCURVE",
"530 -20 CURVE SMOOTH"
);
}
);
width = 860;
}
);
leftKerningGroup = O;
rightKerningGroup = C;
unicode = 0043;
},
{
glyphname = D;
lastChange = "2019-02-12 03:57:44 +0000";
layers = (
{
anchors = (
{
name = bottom;
position = "{540, 0}";
},
{
name = center;
position = "{266, 708}";
},
{
name = top;
position = "{540, 1388}";
}
);
layerId = "BADA37E3-C95E-4946-BA48-1F986F6D85A7";
paths = (
{
closed = 1;
nodes = (
"572 0 LINE SMOOTH",
"855 0 OFFCURVE",
"996 133 OFFCURVE",
"996 400 CURVE SMOOTH",
"996 948 LINE SMOOTH",
"996 1223 OFFCURVE",
"833 1402 OFFCURVE",
"532 1402 CURVE SMOOTH",
"156 1402 LINE",
"156 0 LINE"
);
},
{
closed = 1;
nodes = (
"268 1300 LINE",
"552 1300 LINE SMOOTH",
"728 1300 OFFCURVE",
"884 1192 OFFCURVE",
"884 968 CURVE SMOOTH",
"884 380 LINE SMOOTH",
"884 193 OFFCURVE",
"769 100 OFFCURVE",
"540 100 CURVE SMOOTH",
"268 100 LINE"
);
}
);
width = 1152;
},
{
anchors = (
{
name = bottom;
position = "{560, 0}";
},
{
name = center;
position = "{268, 708}";
},
{
name = top;
position = "{560, 1388}";
}
);
layerId = "77B00D75-0619-4FB7-8D17-EB9FCD2DF18B";
paths = (
{
closed = 1;
nodes = (
"572 0 LINE SMOOTH",
"855 0 OFFCURVE",
"996 133 OFFCURVE",
"996 400 CURVE SMOOTH",
"996 948 LINE SMOOTH",
"996 1223 OFFCURVE",
"833 1402 OFFCURVE",
"532 1402 CURVE SMOOTH",
"156 1402 LINE",
"156 0 LINE"
);
},
{
closed = 1;
nodes = (
"194 1360 LINE",
"552 1360 LINE SMOOTH",
"781 1360 OFFCURVE",
"958 1221 OFFCURVE",
"958 936 CURVE SMOOTH",
"958 428 LINE SMOOTH",
"958 150 OFFCURVE",
"826 40 OFFCURVE",
"552 40 CURVE SMOOTH",
"194 40 LINE"
);
}
);
width = 1152;
},
{
anchors = (
{
name = bottom;
position = "{540, 0}";
},
{
name = center;
position = "{276, 708}";
},
{
name = top;
position = "{544, 1388}";
}
);
layerId = "8A94633D-DA21-409C-A8B7-00A83612E8B2";
paths = (
{
closed = 1;
nodes = (
"572 0 LINE SMOOTH",
"855 0 OFFCURVE",
"996 133 OFFCURVE",
"996 400 CURVE SMOOTH",
"996 948 LINE SMOOTH",
"996 1223 OFFCURVE",
"833 1402 OFFCURVE",
"532 1402 CURVE SMOOTH",
"156 1402 LINE",
"156 0 LINE"
);
},
{
closed = 1;
nodes = (
"376 1180 LINE",
"552 1180 LINE SMOOTH",
"704 1180 OFFCURVE",
"776 1115 OFFCURVE",
"776 968 CURVE SMOOTH",
"776 380 LINE SMOOTH",
"776 226 OFFCURVE",
"673 202 OFFCURVE",
"540 202 CURVE SMOOTH",
"376 202 LINE"
);
}
);
width = 1152;
}
);
leftKerningGroup = H;
rightKerningGroup = O;
unicode = 0044;
},
{
glyphname = E;
lastChange = "2019-02-12 03:57:44 +0000";
layers = (
{
anchors = (
{
name = bottom;
position = "{490, 0}";
},
{
name = ogonek;
position = "{820, 0}";
},
{
name = top;
position = "{490, 1388}";
},
{
name = topleft;
position = "{100, 1388}";
}
);
layerId = "BADA37E3-C95E-4946-BA48-1F986F6D85A7";
paths = (
{
closed = 1;
nodes = (
"820 0 LINE",
"820 100 LINE",
"268 100 LINE",
"268 716 LINE",
"612 716 LINE",
"650 826 LINE",
"268 826 LINE",
"268 1296 LINE",
"824 1296 LINE",
"824 1400 LINE",
"156 1400 LINE",
"156 0 LINE"
);
}
);
width = 930;
},
{
anchors = (
{
name = bottom;
position = "{498, 0}";
},
{
name = ogonek;
position = "{838, 20}";
},
{
name = top;
position = "{490, 1388}";
},
{
name = topleft;
position = "{70, 1388}";
}
);
layerId = "77B00D75-0619-4FB7-8D17-EB9FCD2DF18B";
paths = (
{
closed = 1;
nodes = (
"820 0 LINE",
"820 38 LINE",
"194 38 LINE",
"194 788 LINE",
"636 788 LINE",
"650 826 LINE",
"194 826 LINE",
"194 1362 LINE",
"824 1362 LINE",
"824 1400 LINE",
"156 1400 LINE",
"156 0 LINE"
);
}
);
width = 930;
},
{
anchors = (
{
name = bottom;
position = "{490, 0}";
},
{
name = ogonek;
position = "{820, 0}";
},
{
name = top;
position = "{490, 1388}";
},
{
name = topleft;
position = "{140, 1388}";
}
);
layerId = "8A94633D-DA21-409C-A8B7-00A83612E8B2";
paths = (
{
closed = 1;
nodes = (
"820 0 LINE",
"820 200 LINE",
"376 200 LINE",
"376 616 LINE",
"588 616 LINE",
"650 826 LINE",
"376 826 LINE",
"376 1180 LINE",
"824 1180 LINE",
"824 1400 LINE",
"156 1400 LINE",
"156 0 LINE"
);
}
);
width = 930;
}
);
leftKerningGroup = H;
rightKerningGroup = E;
unicode = 0045;
},
{
glyphname = F;
lastChange = "2019-02-12 03:57:44 +0000";
layers = (
{
anchors = (
{
name = bottom;
position = "{212, 0}";
},
{
name = top;
position = "{490, 1388}";
}
);
layerId = "BADA37E3-C95E-4946-BA48-1F986F6D85A7";
paths = (
{
closed = 1;
nodes = (
"268 0 LINE",
"268 716 LINE",
"564 716 LINE",
"610 826 LINE",
"268 826 LINE",
"268 1294 LINE",
"824 1294 LINE",
"824 1400 LINE",
"156 1400 LINE",
"156 0 LINE"
);
}
);
width = 890;
},
{
anchors = (
{
name = bottom;
position = "{176, 0}";
},
{
name = top;
position = "{490, 1388}";
}
);
layerId = "77B00D75-0619-4FB7-8D17-EB9FCD2DF18B";
paths = (
{
closed = 1;
nodes = (
"196 0 LINE",
"196 788 LINE",
"594 788 LINE",
"610 826 LINE",
"196 826 LINE",
"196 1360 LINE",
"824 1360 LINE",
"824 1400 LINE",
"156 1400 LINE",
"156 0 LINE"
);
}
);
width = 902;
},
{
anchors = (
{
name = bottom;
position = "{266, 0}";
},
{
name = top;
position = "{490, 1388}";
}
);
layerId = "8A94633D-DA21-409C-A8B7-00A83612E8B2";
paths = (
{
closed = 1;
nodes = (
"376 0 LINE",
"376 616 LINE",
"584 616 LINE",
"656 826 LINE",
"376 826 LINE",
"376 1180 LINE",
"824 1180 LINE",
"824 1400 LINE",
"156 1400 LINE",
"156 0 LINE"
);
}
);
width = 902;
}
);
leftKerningGroup = H;
rightKerningGroup = F;
unicode = 0046;
},
{
glyphname = G;
lastChange = "2019-02-12 03:57:44 +0000";
layers = (
{
anchors = (
{
name = bottom;
position = "{538, 0}";
},
{
name = top;
position = "{536, 1388}";
}
);
layerId = "BADA37E3-C95E-4946-BA48-1F986F6D85A7";
paths = (
{
closed = 1;
nodes = (
"670 -20 OFFCURVE",
"770 20 OFFCURVE",
"842 98 CURVE",
"870 0 LINE",
"952 0 LINE",
"952 600 LINE",
"676 600 LINE",
"714 490 LINE",
"846 490 LINE",
"846 372 LINE SMOOTH",
"846 184 OFFCURVE",
"690 86 OFFCURVE",
"538 86 CURVE SMOOTH",
"390 86 OFFCURVE",
"242 180 OFFCURVE",
"242 374 CURVE SMOOTH",
"242 1024 LINE SMOOTH",
"242 1220 OFFCURVE",
"346 1318 OFFCURVE",
"554 1318 CURVE SMOOTH",
"622 1318 OFFCURVE",
"694 1304 OFFCURVE",
"770 1276 CURVE",
"802 1352 LINE",
"715 1396 OFFCURVE",
"621 1418 OFFCURVE",
"518 1418 CURVE SMOOTH",
"266 1418 OFFCURVE",
"130 1262 OFFCURVE",
"130 1006 CURVE SMOOTH",
"130 378 LINE SMOOTH",
"130 114 OFFCURVE",
"310 -20 OFFCURVE",
"544 -20 CURVE SMOOTH"
);
}
);
width = 1074;
},
{
anchors = (
{
name = bottom;
position = "{538, 0}";
},
{
name = top;
position = "{538, 1388}";
}
);
layerId = "77B00D75-0619-4FB7-8D17-EB9FCD2DF18B";
paths = (
{
closed = 1;
nodes = (
"718 -20 OFFCURVE",
"853 45 OFFCURVE",
"914 176 CURVE",
"914 0 LINE",
"952 0 LINE",
"952 600 LINE",
"676 600 LINE",
"692 562 LINE",
"914 562 LINE",
"914 364 LINE SMOOTH",
"914 169 OFFCURVE",
"808 18 OFFCURVE",
"561 18 CURVE SMOOTH",
"314 18 OFFCURVE",
"168 166 OFFCURVE",
"168 374 CURVE SMOOTH",
"168 994 LINE SMOOTH",
"168 1234 OFFCURVE",
"280 1382 OFFCURVE",
"520 1382 CURVE SMOOTH",
"601 1382 OFFCURVE",
"689 1361 OFFCURVE",
"788 1318 CURVE",
"802 1352 LINE",
"715 1396 OFFCURVE",
"621 1418 OFFCURVE",
"520 1418 CURVE SMOOTH",
"266 1418 OFFCURVE",
"130 1262 OFFCURVE",
"130 1006 CURVE SMOOTH",
"130 378 LINE SMOOTH",
"130 114 OFFCURVE",
"317 -20 OFFCURVE",
"554 -20 CURVE SMOOTH"
);
}
);
width = 1074;
},
{
anchors = (
{
name = bottom;
position = "{538, 0}";
},
{
name = top;
position = "{538, 1388}";
}
);
layerId = "8A94633D-DA21-409C-A8B7-00A83612E8B2";
paths = (
{
closed = 1;
nodes = (
"610 -20 OFFCURVE",
"670 -8 OFFCURVE",
"732 24 CURVE",
"744 0 LINE",
"952 0 LINE",
"952 600 LINE",
"548 600 LINE",
"618 390 LINE",
"732 390 LINE",
"732 372 LINE SMOOTH",
"732 259 OFFCURVE",
"670 202 OFFCURVE",
"544 202 CURVE SMOOTH",
"424 202 OFFCURVE",
"350 252 OFFCURVE",
"350 374 CURVE SMOOTH",
"350 1016 LINE SMOOTH",
"350 1150 OFFCURVE",
"432 1190 OFFCURVE",
"548 1190 CURVE SMOOTH",
"611 1190 OFFCURVE",
"672 1178 OFFCURVE",
"736 1154 CURVE",
"802 1352 LINE",
"714 1396 OFFCURVE",
"612 1418 OFFCURVE",
"514 1418 CURVE SMOOTH",
"264 1418 OFFCURVE",
"130 1262 OFFCURVE",
"130 1006 CURVE SMOOTH",
"130 378 LINE SMOOTH",
"130 114 OFFCURVE",
"317 -20 OFFCURVE",
"538 -20 CURVE SMOOTH"
);
}
);
width = 1074;
}
);
leftKerningGroup = O;
rightKerningGroup = G;
unicode = 0047;
},
{
glyphname = H;
lastChange = "2019-02-12 03:57:44 +0000";
layers = (
{
anchors = (
{
name = bottom;
position = "{588, 0}";
},
{
name = center;
position = "{588, 1022}";
},
{
name = top;
position = "{588, 1388}";
},
{
name = topleft;
position = "{100, 1388}";
}
);
layerId = "BADA37E3-C95E-4946-BA48-1F986F6D85A7";
paths = (
{
closed = 1;
nodes = (
"268 0 LINE",
"268 716 LINE",
"904 716 LINE",
"904 0 LINE",
"1016 0 LINE",
"1016 1400 LINE",
"904 1400 LINE",
"904 826 LINE",
"268 826 LINE",
"268 1400 LINE",
"156 1400 LINE",
"156 0 LINE"
);
}
);
width = 1176;
},
{
anchors = (
{
name = bottom;
position = "{588, 0}";
},
{
name = center;
position = "{588, 1060}";
},
{
name = top;
position = "{588, 1388}";
},
{
name = topleft;
position = "{70, 1388}";
}
);
layerId = "77B00D75-0619-4FB7-8D17-EB9FCD2DF18B";
paths = (
{
closed = 1;
nodes = (
"194 0 LINE",
"194 788 LINE",
"978 788 LINE",
"978 0 LINE",
"1016 0 LINE",
"1016 1400 LINE",
"978 1400 LINE",
"978 826 LINE",
"194 826 LINE",
"194 1400 LINE",
"156 1400 LINE",
"156 0 LINE"
);
}
);
width = 1176;
},
{
anchors = (
{
name = bottom;
position = "{588, 0}";
},
{
name = center;
position = "{588, 1052}";
},
{
name = top;
position = "{588, 1388}";
},
{
name = topleft;
position = "{140, 1388}";
}
);
layerId = "8A94633D-DA21-409C-A8B7-00A83612E8B2";
paths = (
{
closed = 1;
nodes = (
"376 0 LINE",
"376 616 LINE",
"798 616 LINE",
"798 0 LINE",
"1016 0 LINE",
"1016 1400 LINE",
"798 1400 LINE",
"798 826 LINE",
"376 826 LINE",
"376 1400 LINE",
"156 1400 LINE",
"156 0 LINE"
);
}
);
width = 1176;
}
);
leftKerningGroup = H;
rightKerningGroup = H;
unicode = 0048;
},
{
glyphname = I;
lastChange = "2019-02-12 03:57:44 +0000";
layers = (
{
anchors = (
{
name = bottom;
position = "{324, 0}";
},
{
name = ogonek;
position = "{378, 0}";
},
{
name = top;
position = "{324, 1388}";
},
{
name = topleft;
position = "{74, 1388}";
}
);
layerId = "BADA37E3-C95E-4946-BA48-1F986F6D85A7";
paths = (
{
closed = 1;
nodes = (
"378 0 LINE",
"380 1400 LINE",
"132 1400 LINE",
"132 1302 LINE",
"268 1298 LINE",
"266 0 LINE"
);
}
);
width = 528;
},
{
anchors = (
{
name = bottom;
position = "{252, 0}";
},
{
name = ogonek;
position = "{270, 0}";
},
{
name = top;
position = "{252, 1388}";
},
{
name = topleft;
position = "{14, 1388}";
}
);
layerId = "77B00D75-0619-4FB7-8D17-EB9FCD2DF18B";
paths = (
{
closed = 1;
nodes = (
"270 0 LINE",
"270 1400 LINE",
"60 1400 LINE",
"60 1362 LINE",
"232 1358 LINE",
"232 0 LINE"
);
}
);
width = 386;
},
{
anchors = (
{
name = bottom;
position = "{356, 0}";
},
{
name = ogonek;
position = "{466, 0}";
},
{
name = top;
position = "{356, 1388}";
},
{
name = topleft;
position = "{108, 1388}";
}
);
layerId = "8A94633D-DA21-409C-A8B7-00A83612E8B2";
paths = (
{
closed = 1;
nodes = (
"466 0 LINE",
"466 1400 LINE",
"122 1400 LINE",
"122 1188 LINE",
"246 1184 LINE",
"246 0 LINE"
);
}
);
width = 626;
}
);
leftKerningGroup = H;
rightKerningGroup = H;
unicode = 0049;
},
{
glyphname = J;
lastChange = "2019-02-12 03:57:44 +0000";
layers = (
{
anchors = (
{
name = bottom;
position = "{180, 0}";
},
{
name = top;
position = "{250, 1388}";
}
);
layerId = "BADA37E3-C95E-4946-BA48-1F986F6D85A7";
paths = (
{
closed = 1;
nodes = (
"211 -74 OFFCURVE",
"306 39 OFFCURVE",
"306 236 CURVE SMOOTH",
"306 1400 LINE",
"58 1400 LINE",
"58 1302 LINE",
"192 1298 LINE",
"192 228 LINE SMOOTH",
"192 68 OFFCURVE",
"116 0 OFFCURVE",
"28 0 CURVE",
"54 -74 LINE"
);
}
);
width = 392;
},
{
anchors = (
{
name = bottom;
position = "{130, 0}";
},
{
name = top;
position = "{208, 1388}";
}
);
layerId = "77B00D75-0619-4FB7-8D17-EB9FCD2DF18B";
paths = (
{
closed = 1;
nodes = (
"167 -47 OFFCURVE",
"226 44 OFFCURVE",
"226 244 CURVE SMOOTH",
"226 1400 LINE",
"22 1400 LINE",
"22 1362 LINE",
"190 1358 LINE",
"190 236 LINE SMOOTH",
"190 71 OFFCURVE",
"129 -21 OFFCURVE",
"6 -38 CURVE",
"18 -74 LINE"
);
}
);
width = 354;
},
{
anchors = (
{
name = bottom;
position = "{212, 0}";
},
{
name = top;
position = "{288, 1388}";
}
);
layerId = "8A94633D-DA21-409C-A8B7-00A83612E8B2";
paths = (
{
closed = 1;
nodes = (
"311 -71 OFFCURVE",
"396 25 OFFCURVE",
"396 278 CURVE SMOOTH",
"396 1400 LINE",
"60 1400 LINE",
"60 1188 LINE",
"180 1184 LINE",
"180 312 LINE SMOOTH",
"180 180 OFFCURVE",
"110 114 OFFCURVE",
"-30 114 CURVE",
"42 -74 LINE"
);
}
);
width = 468;
}
);
leftKerningGroup = J;
rightKerningGroup = J;
unicode = 004A;
},
{
glyphname = K;
lastChange = "2019-02-12 03:57:44 +0000";
layers = (
{
anchors = (
{
name = bottom;
position = "{504, 0}";
},
{
name = top;
position = "{466, 1388}";
}
);
layerId = "BADA37E3-C95E-4946-BA48-1F986F6D85A7";
paths = (
{
closed = 1;
nodes = (
"270 0 LINE",
"270 538 LINE",
"366 690 LINE",
"818 0 LINE",
"952 0 LINE",
"438 796 LINE",
"848 1402 LINE",
"718 1402 LINE",
"270 734 LINE",
"270 1402 LINE",
"158 1402 LINE",
"158 0 LINE"
);
}
);
width = 950;
},
{
anchors = (
{
name = bottom;
position = "{500, 0}";
},
{
name = top;
position = "{480, 1388}";
}
);
layerId = "77B00D75-0619-4FB7-8D17-EB9FCD2DF18B";
paths = (
{
closed = 1;
nodes = (
"196 0 LINE",
"196 560 LINE",
"390 806 LINE",
"910 0 LINE",
"952 0 LINE",
"414 836 LINE",
"848 1400 LINE",
"804 1400 LINE",
"196 616 LINE",
"196 1400 LINE",
"158 1400 LINE",
"158 0 LINE"
);
}
);
width = 958;
},
{
anchors = (
{
name = bottom;
position = "{574, 0}";
},
{
name = top;
position = "{542, 1388}";
}
);
layerId = "8A94633D-DA21-409C-A8B7-00A83612E8B2";
paths = (
{
closed = 1;
nodes = (
"394 0 LINE",
"394 536 LINE",
"408 556 LINE",
"786 0 LINE",
"1060 0 LINE",
"538 752 LINE",
"982 1402 LINE",
"718 1402 LINE",
"394 920 LINE",
"394 1402 LINE",
"158 1402 LINE",
"158 0 LINE"
);
}
);
width = 1064;
}
);
leftKerningGroup = H;
rightKerningGroup = K;
unicode = 004B;
},
{
glyphname = L;
lastChange = "2019-02-12 03:57:44 +0000";
layers = (
{
anchors = (
{
name = bottom;
position = "{546, 0}";
},
{
name = center;
position = "{246, 798}";
},
{
name = top;
position = "{212, 1388}";
},
{
name = topright;
position = "{620, 1388}";
}
);
layerId = "BADA37E3-C95E-4946-BA48-1F986F6D85A7";
paths = (
{
closed = 1;
nodes = (
"878 0 LINE",
"878 100 LINE",
"268 100 LINE",
"268 1400 LINE",
"156 1400 LINE",
"156 0 LINE"
);
}
);
width = 880;
},
{
anchors = (
{
name = bottom;
position = "{526, 0}";
},
{
name = center;
position = "{214, 830}";
},
{
name = top;
position = "{176, 1388}";
},
{
name = topright;
position = "{630, 1388}";
}
);
layerId = "77B00D75-0619-4FB7-8D17-EB9FCD2DF18B";
paths = (
{
closed = 1;
nodes = (
"878 0 LINE",
"878 40 LINE",
"194 40 LINE",
"194 1400 LINE",
"156 1400 LINE",
"156 0 LINE"
);
}
);
width = 880;
},
{
anchors = (
{
name = bottom;
position = "{518, 0}";
},
{
name = center;
position = "{282, 768}";
},
{
name = top;
position = "{266, 1388}";
},
{
name = topright;
position = "{700, 1388}";
}
);
layerId = "8A94633D-DA21-409C-A8B7-00A83612E8B2";
paths = (
{
closed = 1;
nodes = (
"878 0 LINE",
"878 202 LINE",
"376 202 LINE",
"376 1388 LINE",
"156 1388 LINE",
"156 0 LINE"
);
}
);
width = 880;
}
);
leftKerningGroup = H;
rightKerningGroup = L;
unicode = 004C;
},
{
glyphname = M;
lastChange = "2019-02-12 03:57:44 +0000";
layers = (
{
anchors = (
{
name = bottom;
position = "{694, 0}";
},
{
name = top;
position = "{694, 1388}";
}
);
layerId = "BADA37E3-C95E-4946-BA48-1F986F6D85A7";
paths = (
{
closed = 1;
nodes = (
"268 0 LINE",
"268 1070 LINE",
"630 0 LINE",
"752 0 LINE",
"1116 1070 LINE",
"1116 0 LINE",
"1228 0 LINE",
"1228 1400 LINE",
"1116 1400 LINE",
"690 172 LINE",
"268 1400 LINE",
"156 1400 LINE",
"156 0 LINE"
);
}
);
width = 1388;
},
{
anchors = (
{
name = bottom;
position = "{694, 0}";
},
{
name = top;
position = "{694, 1388}";
}
);
layerId = "77B00D75-0619-4FB7-8D17-EB9FCD2DF18B";
paths = (
{
closed = 1;
nodes = (
"192 0 LINE",
"192 1296 LINE",
"672 0 LINE",
"708 0 LINE",
"1192 1296 LINE",
"1192 0 LINE",
"1228 0 LINE",
"1228 1400 LINE",
"1192 1400 LINE",
"692 60 LINE",
"192 1400 LINE",
"156 1400 LINE",
"156 0 LINE"
);
}
);
width = 1388;
},
{
anchors = (
{
name = bottom;
position = "{694, 0}";
},
{
name = top;
position = "{694, 1388}";
}
);
layerId = "8A94633D-DA21-409C-A8B7-00A83612E8B2";
paths = (
{
closed = 1;
nodes = (
"376 0 LINE",
"376 738 LINE",
"606 0 LINE",
"774 0 LINE",
"1008 740 LINE",
"1008 0 LINE",
"1228 0 LINE",
"1228 1400 LINE",
"1008 1400 LINE",
"690 474 LINE",
"376 1400 LINE",
"156 1400 LINE",
"156 0 LINE"
);
}
);
width = 1388;
}
);
leftKerningGroup = H;
rightKerningGroup = H;
unicode = 004D;
},
{
glyphname = N;
lastChange = "2019-02-12 03:57:44 +0000";
layers = (
{
anchors = (
{
name = bottom;
position = "{650, 0}";
},
{
name = top;
position = "{650, 1388}";
}
);
layerId = "BADA37E3-C95E-4946-BA48-1F986F6D85A7";
paths = (
{
closed = 1;
nodes = (
"268 0 LINE",
"268 1194 LINE",
"1028 0 LINE",
"1140 0 LINE",
"1140 1400 LINE",
"1028 1400 LINE",
"1028 206 LINE",
"268 1400 LINE",
"156 1400 LINE",
"156 0 LINE"
);
}
);
width = 1300;
},
{
anchors = (
{
name = bottom;
position = "{652, 0}";
},
{
name = top;
position = "{652, 1388}";
}
);
layerId = "77B00D75-0619-4FB7-8D17-EB9FCD2DF18B";
paths = (
{
closed = 1;
nodes = (
"194 0 LINE",
"194 1340 LINE",
"1108 0 LINE",
"1146 0 LINE",
"1146 1400 LINE",
"1108 1400 LINE",
"1108 64 LINE",
"194 1400 LINE",
"156 1400 LINE",
"156 0 LINE"
);
}
);
width = 1306;
},
{
anchors = (
{
name = bottom;
position = "{650, 0}";
},
{
name = top;
position = "{650, 1388}";
}
);
layerId = "8A94633D-DA21-409C-A8B7-00A83612E8B2";
paths = (
{
closed = 1;
nodes = (
"376 0 LINE",
"376 946 LINE",
"918 0 LINE",
"1140 0 LINE",
"1140 1400 LINE",
"918 1400 LINE",
"918 460 LINE",
"376 1400 LINE",
"156 1400 LINE",
"156 0 LINE"
);
}
);
width = 1300;
}
);
leftKerningGroup = H;
rightKerningGroup = H;
unicode = 004E;
},
{
glyphname = Eng;
lastChange = "2019-02-12 03:57:44 +0000";
layers = (
{
layerId = "BADA37E3-C95E-4946-BA48-1F986F6D85A7";
paths = (
{
closed = 1;
nodes = (
"268 0 LINE",
"268 1194 LINE",
"1056 -34 LINE",
"1140 0 LINE",
"1140 1400 LINE",
"1028 1400 LINE",
"1028 200 LINE",
"268 1400 LINE",
"156 1400 LINE",
"156 0 LINE"
);
},
{
closed = 1;
nodes = (
"1030 88 LINE",
"1030 -112 LINE SMOOTH",
"1030 -226 OFFCURVE",
"964 -332 OFFCURVE",
"880 -332 CURVE",
"894 -418 LINE",
"1038 -418 OFFCURVE",
"1140 -306 OFFCURVE",
"1140 -122 CURVE SMOOTH",
"1140 88 LINE"
);
}
);
width = 1300;
},
{
layerId = "77B00D75-0619-4FB7-8D17-EB9FCD2DF18B";
paths = (
{
closed = 1;
nodes = (
"194 0 LINE",
"194 1340 LINE",
"1116 -12 LINE",
"1146 0 LINE",
"1146 1400 LINE",
"1108 1400 LINE",
"1108 62 LINE",
"194 1400 LINE",
"156 1400 LINE",
"156 0 LINE"
);
},
{
closed = 1;
nodes = (
"1108 40 LINE",
"1108 -164 LINE SMOOTH",
"1108 -296 OFFCURVE",
"1020 -382 OFFCURVE",
"930 -382 CURVE",
"936 -418 LINE",
"1076 -396 OFFCURVE",
"1146 -312 OFFCURVE",
"1146 -166 CURVE SMOOTH",
"1146 40 LINE"
);
}
);
width = 1306;
},
{
layerId = "8A94633D-DA21-409C-A8B7-00A83612E8B2";
paths = (
{
closed = 1;
nodes = (
"376 0 LINE",
"376 946 LINE",
"946 -30 LINE",
"1140 0 LINE",
"1140 1400 LINE",
"918 1400 LINE",
"918 440 LINE",
"376 1400 LINE",
"156 1400 LINE",
"156 0 LINE"
);
},
{
closed = 1;
nodes = (
"920 408 LINE",
"920 -70 LINE SMOOTH",
"920 -176 OFFCURVE",
"864 -234 OFFCURVE",
"778 -248 CURVE",
"838 -418 LINE",
"988 -418 OFFCURVE",
"1140 -292 OFFCURVE",
"1140 -68 CURVE SMOOTH",
"1140 408 LINE"
);
}
);
width = 1300;
}
);
leftKerningGroup = H;
leftMetricsKey = N;
rightKerningGroup = H;
rightMetricsKey = N;
unicode = 014A;
},
{
glyphname = O;
lastChange = "2019-02-12 03:57:44 +0000";
layers = (
{
anchors = (
{
name = bottom;
position = "{550, 0}";
},
{
name = center;
position = "{550, 700}";
},
{
name = ogonek;
position = "{988, 20}";
},
{
name = top;
position = "{550, 1388}";
},
{
name = topleft;
position = "{160, 1388}";
},
{
name = topright;
position = "{1058, 1400}";
}
);
layerId = "BADA37E3-C95E-4946-BA48-1F986F6D85A7";
paths = (
{
closed = 1;
nodes = (
"777 -22 OFFCURVE",
"966 101 OFFCURVE",
"966 370 CURVE SMOOTH",
"966 1012 LINE SMOOTH",
"966 1273 OFFCURVE",
"814 1432 OFFCURVE",
"550 1432 CURVE SMOOTH",
"286 1432 OFFCURVE",
"126 1289 OFFCURVE",
"126 1014 CURVE SMOOTH",
"126 370 LINE SMOOTH",
"126 101 OFFCURVE",
"319 -22 OFFCURVE",
"548 -22 CURVE SMOOTH"
);
},
{
closed = 1;
nodes = (
"394 80 OFFCURVE",
"238 178 OFFCURVE",
"238 372 CURVE SMOOTH",
"238 1032 LINE SMOOTH",
"238 1227 OFFCURVE",
"359 1326 OFFCURVE",
"546 1326 CURVE SMOOTH",
"733 1326 OFFCURVE",
"856 1227 OFFCURVE",
"856 1032 CURVE SMOOTH",
"856 374 LINE SMOOTH",
"856 176 OFFCURVE",
"704 80 OFFCURVE",
"550 80 CURVE SMOOTH"
);
}
);
width = 1098;
},
{
anchors = (
{
name = bottom;
position = "{550, 0}";
},
{
name = center;
position = "{550, 700}";
},
{
name = ogonek;
position = "{988, 20}";
},
{
name = top;
position = "{550, 1388}";
},
{
name = topleft;
position = "{148, 1400}";
},
{
name = topright;
position = "{1058, 1400}";
}
);
layerId = "77B00D75-0619-4FB7-8D17-EB9FCD2DF18B";
paths = (
{
closed = 1;
nodes = (
"777 -22 OFFCURVE",
"966 101 OFFCURVE",
"966 370 CURVE SMOOTH",
"966 1012 LINE SMOOTH",
"966 1273 OFFCURVE",
"814 1432 OFFCURVE",
"550 1432 CURVE SMOOTH",
"286 1432 OFFCURVE",
"126 1289 OFFCURVE",
"126 1014 CURVE SMOOTH",
"126 370 LINE SMOOTH",
"126 101 OFFCURVE",
"319 -22 OFFCURVE",
"548 -22 CURVE SMOOTH"
);
},
{
closed = 1;
nodes = (
"335 16 OFFCURVE",
"164 136 OFFCURVE",
"164 368 CURVE SMOOTH",
"164 1016 LINE SMOOTH",
"164 1245 OFFCURVE",
"293 1390 OFFCURVE",
"546 1390 CURVE SMOOTH",
"799 1390 OFFCURVE",
"928 1249 OFFCURVE",
"928 1020 CURVE SMOOTH",
"928 368 LINE SMOOTH",
"928 123 OFFCURVE",
"761 16 OFFCURVE",
"548 16 CURVE SMOOTH"
);
}
);
width = 1098;
},
{
anchors = (
{
name = bottom;
position = "{550, 0}";
},
{
name = center;
position = "{550, 700}";
},
{
name = ogonek;
position = "{988, 20}";
},
{
name = top;
position = "{550, 1388}";
},
{
name = topleft;
position = "{194, 1388}";
},
{
name = topright;
position = "{1058, 1388}";
}
);
layerId = "8A94633D-DA21-409C-A8B7-00A83612E8B2";
paths = (
{
closed = 1;
nodes = (
"777 -22 OFFCURVE",
"966 101 OFFCURVE",
"966 370 CURVE SMOOTH",
"966 1012 LINE SMOOTH",
"966 1273 OFFCURVE",
"814 1432 OFFCURVE",
"550 1432 CURVE SMOOTH",
"286 1432 OFFCURVE",
"126 1289 OFFCURVE",
"126 1014 CURVE SMOOTH",
"126 370 LINE SMOOTH",
"126 101 OFFCURVE",
"319 -22 OFFCURVE",
"548 -22 CURVE SMOOTH"
);
},
{
closed = 1;
nodes = (
"410 202 OFFCURVE",
"346 280 OFFCURVE",
"346 408 CURVE SMOOTH",
"346 942 LINE SMOOTH",
"346 1115 OFFCURVE",
"383 1194 OFFCURVE",
"546 1194 CURVE SMOOTH",
"709 1194 OFFCURVE",
"746 1111 OFFCURVE",
"746 940 CURVE SMOOTH",
"746 412 LINE SMOOTH",
"746 287 OFFCURVE",
"671 202 OFFCURVE",
"546 202 CURVE SMOOTH"
);
}
);
width = 1098;
}
);
leftKerningGroup = O;
rightKerningGroup = O;
unicode = 004F;
},
{
glyphname = P;
lastChange = "2019-02-12 03:57:44 +0000";
layers = (
{
anchors = (
{
name = bottom;
position = "{212, 0}";
},
{
name = top;
position = "{546, 1388}";
}
);
layerId = "BADA37E3-C95E-4946-BA48-1F986F6D85A7";
paths = (
{
closed = 1;
nodes = (
"268 0 LINE",
"268 490 LINE",
"662 490 LINE SMOOTH",
"932 490 OFFCURVE",
"1022 698 OFFCURVE",
"1022 954 CURVE SMOOTH",
"1022 1244 OFFCURVE",
"901 1400 OFFCURVE",
"648 1400 CURVE SMOOTH",
"156 1400 LINE",
"156 0 LINE"
);
},
{
closed = 1;
nodes = (
"268 1294 LINE",
"656 1294 LINE SMOOTH",
"813 1294 OFFCURVE",
"912 1198 OFFCURVE",
"912 954 CURVE SMOOTH",
"912 766 OFFCURVE",
"866 600 OFFCURVE",
"664 600 CURVE SMOOTH",
"268 600 LINE"
);
}
);
width = 1090;
},
{
anchors = (
{
name = bottom;
position = "{176, 0}";
},
{
name = top;
position = "{552, 1388}";
}
);
layerId = "77B00D75-0619-4FB7-8D17-EB9FCD2DF18B";
paths = (
{
closed = 1;
nodes = (
"194 0 LINE",
"194 562 LINE",
"622 562 LINE SMOOTH",
"890 562 OFFCURVE",
"1024 699 OFFCURVE",
"1024 972 CURVE SMOOTH",
"1024 1233 OFFCURVE",
"901 1400 OFFCURVE",
"648 1400 CURVE SMOOTH",
"156 1400 LINE",
"156 0 LINE"
);
},
{
closed = 1;
nodes = (
"194 1360 LINE",
"650 1360 LINE SMOOTH",
"882 1360 OFFCURVE",
"986 1209 OFFCURVE",
"986 972 CURVE SMOOTH",
"986 724 OFFCURVE",
"863 600 OFFCURVE",
"618 600 CURVE SMOOTH",
"194 600 LINE"
);
}
);
width = 1102;
},
{
anchors = (
{
name = bottom;
position = "{266, 0}";
},
{
name = top;
position = "{552, 1388}";
}
);
layerId = "8A94633D-DA21-409C-A8B7-00A83612E8B2";
paths = (
{
closed = 1;
nodes = (
"376 0 LINE",
"376 390 LINE",
"630 390 LINE SMOOTH",
"893 390 OFFCURVE",
"1024 569 OFFCURVE",
"1024 906 CURVE SMOOTH",
"1024 1198 OFFCURVE",
"892 1400 OFFCURVE",
"612 1400 CURVE SMOOTH",
"156 1400 LINE",
"156 0 LINE"
);
},
{
closed = 1;
nodes = (
"376 1180 LINE",
"556 1180 LINE SMOOTH",
"750 1180 OFFCURVE",
"804 1106 OFFCURVE",
"804 904 CURVE SMOOTH",
"804 712 OFFCURVE",
"760 600 OFFCURVE",
"562 600 CURVE SMOOTH",
"376 600 LINE"
);
}
);
width = 1102;
}
);
leftKerningGroup = O;
rightKerningGroup = P;
unicode = 0050;
},
{
glyphname = Thorn;
lastChange = "2019-02-12 03:57:44 +0000";
layers = (
{
layerId = "BADA37E3-C95E-4946-BA48-1F986F6D85A7";
paths = (
{
closed = 1;
nodes = (
"268 0 LINE",
"268 278 LINE",
"646 278 LINE SMOOTH",
"916 278 OFFCURVE",
"1006 484 OFFCURVE",
"1006 720 CURVE SMOOTH",
"1006 1002 OFFCURVE",
"886 1148 OFFCURVE",
"632 1148 CURVE SMOOTH",
"268 1148 LINE",
"268 1400 LINE",
"156 1400 LINE",
"156 0 LINE"
);
},
{
closed = 1;
nodes = (
"268 1042 LINE",
"640 1042 LINE SMOOTH",
"798 1042 OFFCURVE",
"896 956 OFFCURVE",
"896 720 CURVE SMOOTH",
"896 542 OFFCURVE",
"850 388 OFFCURVE",
"648 388 CURVE SMOOTH",
"268 388 LINE"
);
}
);
width = 1074;
},
{
layerId = "77B00D75-0619-4FB7-8D17-EB9FCD2DF18B";
paths = (
{
closed = 1;
nodes = (
"194 0 LINE",
"194 308 LINE",
"580 308 LINE SMOOTH",
"848 308 OFFCURVE",
"982 440 OFFCURVE",
"982 704 CURVE SMOOTH",
"982 958 OFFCURVE",
"860 1118 OFFCURVE",
"606 1118 CURVE SMOOTH",
"194 1118 LINE",
"194 1400 LINE",
"156 1400 LINE",
"156 0 LINE"
);
},
{
closed = 1;
nodes = (
"194 1078 LINE",
"608 1078 LINE SMOOTH",
"840 1078 OFFCURVE",
"944 934 OFFCURVE",
"944 704 CURVE SMOOTH",
"944 466 OFFCURVE",
"822 346 OFFCURVE",
"576 346 CURVE SMOOTH",
"194 346 LINE"
);
}
);
width = 1060;
},
{
layerId = "8A94633D-DA21-409C-A8B7-00A83612E8B2";
paths = (
{
closed = 1;
nodes = (
"376 0 LINE",
"376 224 LINE",
"630 224 LINE SMOOTH",
"892 224 OFFCURVE",
"1024 394 OFFCURVE",
"1024 716 CURVE SMOOTH",
"1024 994 OFFCURVE",
"892 1186 OFFCURVE",
"612 1186 CURVE SMOOTH",
"376 1186 LINE",
"376 1400 LINE",
"156 1400 LINE",
"156 0 LINE"
);
},
{
closed = 1;
nodes = (
"376 966 LINE",
"556 966 LINE SMOOTH",
"750 966 OFFCURVE",
"804 898 OFFCURVE",
"804 714 CURVE SMOOTH",
"804 538 OFFCURVE",
"760 434 OFFCURVE",
"562 434 CURVE SMOOTH",
"376 434 LINE"
);
}
);
width = 1102;
},
{
associatedMasterId = "BADA37E3-C95E-4946-BA48-1F986F6D85A7";
layerId = "86C77A48-9E0E-4F89-997C-966BBE9EF730";
name = "Aug 13 18, 13:25";
paths = (
{
closed = 1;
nodes = (
"268 0 LINE",
"268 370 LINE",
"321 285 OFFCURVE",
"439 232 OFFCURVE",
"538 232 CURVE SMOOTH",
"759 232 OFFCURVE",
"910 382 OFFCURVE",
"910 622 CURVE SMOOTH",
"910 742 OFFCURVE",
"878 838 OFFCURVE",
"813 910 CURVE SMOOTH",
"748 982 OFFCURVE",
"567 982 OFFCURVE",
"268 910 CURVE",
"268 1400 LINE",
"156 1400 LINE",
"156 0 LINE"
);
},
{
closed = 1;
nodes = (
"377 340 OFFCURVE",
"268 443 OFFCURVE",
"268 648 CURVE",
"284 1008 OFFCURVE",
"798 1016 OFFCURVE",
"798 634 CURVE SMOOTH",
"798 434 OFFCURVE",
"691 340 OFFCURVE",
"534 340 CURVE SMOOTH"
);
}
);
width = 976;
},
{
associatedMasterId = "8A94633D-DA21-409C-A8B7-00A83612E8B2";
layerId = "0DA88F24-E409-43DA-959E-7F052F07FC60";
name = "Aug 13 18, 13:25";
paths = (
{
closed = 1;
nodes = (
"372 0 LINE",
"372 278 LINE",
"416 247 OFFCURVE",
"471 232 OFFCURVE",
"538 232 CURVE SMOOTH",
"759 232 OFFCURVE",
"910 379 OFFCURVE",
"910 630 CURVE SMOOTH",
"910 859 OFFCURVE",
"778 1018 OFFCURVE",
"530 1018 CURVE SMOOTH",
"475 1018 OFFCURVE",
"423 1007 OFFCURVE",
"372 984 CURVE",
"372 1400 LINE",
"156 1400 LINE",
"156 0 LINE"
);
},
{
closed = 1;
nodes = (
"447 440 OFFCURVE",
"372 497 OFFCURVE",
"372 636 CURVE SMOOTH",
"372 737 OFFCURVE",
"455 808 OFFCURVE",
"538 808 CURVE SMOOTH",
"645 808 OFFCURVE",
"692 720 OFFCURVE",
"692 632 CURVE SMOOTH",
"692 496 OFFCURVE",
"618 440 OFFCURVE",
"538 440 CURVE SMOOTH"
);
}
);
width = 988;
},
{
associatedMasterId = "77B00D75-0619-4FB7-8D17-EB9FCD2DF18B";
layerId = "0742842F-66A8-4FE2-96D9-B31A6E987458";
name = "Aug 13 18, 13:25";
paths = (
{
closed = 1;
nodes = (
"194 0 LINE",
"194 470 LINE",
"253 323 OFFCURVE",
"427 232 OFFCURVE",
"536 232 CURVE SMOOTH",
"744 232 OFFCURVE",
"912 385 OFFCURVE",
"912 620 CURVE SMOOTH",
"912 855 OFFCURVE",
"777 1020 OFFCURVE",
"532 1020 CURVE SMOOTH",
"387 1020 OFFCURVE",
"274 953 OFFCURVE",
"194 820 CURVE",
"194 1400 LINE",
"156 1400 LINE",
"156 0 LINE"
);
},
{
closed = 1;
nodes = (
"342 268 OFFCURVE",
"198 419 OFFCURVE",
"198 640 CURVE SMOOTH",
"198 864 OFFCURVE",
"367 988 OFFCURVE",
"539 988 CURVE SMOOTH",
"711 988 OFFCURVE",
"874 862 OFFCURVE",
"874 630 CURVE SMOOTH",
"874 398 OFFCURVE",
"724 268 OFFCURVE",
"533 268 CURVE SMOOTH"
);
}
);
width = 990;
}
);
rightMetricsKey = P;
unicode = 00DE;
},
{
glyphname = Q;
lastChange = "2019-02-12 03:57:44 +0000";
layers = (
{
anchors = (
{
name = bottom;
position = "{550, -140}";
},
{
name = top;
position = "{550, 1388}";
}
);
layerId = "BADA37E3-C95E-4946-BA48-1F986F6D85A7";
paths = (
{
closed = 1;
nodes = (
"856 -80 LINE",
"778 -80 OFFCURVE",
"690 -70 OFFCURVE",
"644 -14 CURVE",
"831 18 OFFCURVE",
"966 138 OFFCURVE",
"966 370 CURVE SMOOTH",
"966 1012 LINE SMOOTH",
"966 1273 OFFCURVE",
"814 1432 OFFCURVE",
"550 1432 CURVE SMOOTH",
"286 1432 OFFCURVE",
"126 1289 OFFCURVE",
"126 1014 CURVE SMOOTH",
"126 370 LINE SMOOTH",
"126 124 OFFCURVE",
"288 -16 OFFCURVE",
"532 -22 CURVE",
"588 -133 OFFCURVE",
"696 -188 OFFCURVE",
"856 -188 CURVE"
);
},
{
closed = 1;
nodes = (
"341 102 OFFCURVE",
"238 201 OFFCURVE",
"238 372 CURVE SMOOTH",
"238 1032 LINE SMOOTH",
"238 1227 OFFCURVE",
"359 1326 OFFCURVE",
"546 1326 CURVE SMOOTH",
"733 1326 OFFCURVE",
"856 1227 OFFCURVE",
"856 1032 CURVE SMOOTH",
"856 374 LINE SMOOTH",
"856 201 OFFCURVE",
"758 107 OFFCURVE",
"606 88 CURVE",
"602 111 OFFCURVE",
"600 149 OFFCURVE",
"600 204 CURVE SMOOTH",
"600 348 LINE",
"488 348 LINE",
"488 202 LINE SMOOTH",
"488 157 OFFCURVE",
"491 118 OFFCURVE",
"496 86 CURVE"
);
}
);
width = 1098;
},
{
anchors = (
{
name = bottom;
position = "{550, -164}";
},
{
name = top;
position = "{550, 1388}";
}
);
layerId = "77B00D75-0619-4FB7-8D17-EB9FCD2DF18B";
paths = (
{
closed = 1;
nodes = (
"856 -150 LINE",
"704 -149 OFFCURVE",
"619 -106 OFFCURVE",
"600 -22 CURVE",
"824 5 OFFCURVE",
"966 133 OFFCURVE",
"966 370 CURVE SMOOTH",
"966 1012 LINE SMOOTH",
"966 1273 OFFCURVE",
"814 1432 OFFCURVE",
"550 1432 CURVE SMOOTH",
"286 1432 OFFCURVE",
"126 1289 OFFCURVE",
"126 1014 CURVE SMOOTH",
"126 370 LINE SMOOTH",
"126 103 OFFCURVE",
"314 -22 OFFCURVE",
"554 -22 CURVE",
"590 -133 OFFCURVE",
"691 -188 OFFCURVE",
"856 -188 CURVE"
);
},
{
closed = 1;
nodes = (
"328 16 OFFCURVE",
"168 140 OFFCURVE",
"168 368 CURVE SMOOTH",
"168 1032 LINE SMOOTH",
"168 1283 OFFCURVE",
"332 1392 OFFCURVE",
"549 1392 CURVE SMOOTH",
"766 1392 OFFCURVE",
"926 1269 OFFCURVE",
"926 1032 CURVE SMOOTH",
"926 372 LINE SMOOTH",
"926 175 OFFCURVE",
"803 29 OFFCURVE",
"592 18 CURVE",
"585 55 OFFCURVE",
"582 104 OFFCURVE",
"582 162 CURVE SMOOTH",
"580 348 LINE",
"540 348 LINE",
"540 162 LINE SMOOTH",
"540 97 OFFCURVE",
"543 48 OFFCURVE",
"548 16 CURVE"
);
}
);
width = 1098;
},
{
anchors = (
{
name = bottom;
position = "{550, -212}";
},
{
name = top;
position = "{550, 1388}";
}
);
layerId = "8A94633D-DA21-409C-A8B7-00A83612E8B2";
paths = (
{
closed = 1;
nodes = (
"862 -44 LINE",
"763 -44 OFFCURVE",
"731 -38 OFFCURVE",
"696 2 CURVE",
"835 29 OFFCURVE",
"966 146 OFFCURVE",
"966 370 CURVE SMOOTH",
"966 1012 LINE SMOOTH",
"966 1273 OFFCURVE",
"814 1432 OFFCURVE",
"550 1432 CURVE SMOOTH",
"286 1432 OFFCURVE",
"126 1289 OFFCURVE",
"126 1014 CURVE SMOOTH",
"126 370 LINE SMOOTH",
"126 119 OFFCURVE",
"290 2 OFFCURVE",
"472 -16 CURVE",
"530 -176 OFFCURVE",
"650 -232 OFFCURVE",
"834 -232 CURVE"
);
},
{
closed = 1;
nodes = (
"376 202 OFFCURVE",
"346 259 OFFCURVE",
"346 372 CURVE SMOOTH",
"346 1010 LINE SMOOTH",
"346 1125 OFFCURVE",
"386 1198 OFFCURVE",
"546 1198 CURVE SMOOTH",
"696 1198 OFFCURVE",
"746 1108 OFFCURVE",
"746 1010 CURVE SMOOTH",
"746 374 LINE SMOOTH",
"746 261 OFFCURVE",
"715 204 OFFCURVE",
"654 204 CURVE",
"654 240 OFFCURVE",
"654 278 OFFCURVE",
"654 314 CURVE SMOOTH",
"654 348 LINE",
"434 348 LINE",
"434 312 LINE SMOOTH",
"434 286 OFFCURVE",
"434 246 OFFCURVE",
"436 202 CURVE"
);
}
);
width = 1098;
}
);
leftKerningGroup = O;
rightKerningGroup = O;
unicode = 0051;
},
{
glyphname = R;
lastChange = "2019-02-12 03:57:44 +0000";
layers = (
{
anchors = (
{
name = bottom;
position = "{564, 0}";
},
{
name = top;
position = "{526, 1388}";
}
);
layerId = "BADA37E3-C95E-4946-BA48-1F986F6D85A7";
paths = (
{
closed = 1;
nodes = (
"268 0 LINE",
"268 490 LINE",
"662 490 LINE SMOOTH",
"691 490 OFFCURVE",
"718 492 OFFCURVE",
"742 496 CURVE",
"912 0 LINE",
"1026 0 LINE",
"848 530 LINE",
"984 610 OFFCURVE",
"1024 760 OFFCURVE",
"1024 972 CURVE SMOOTH",
"1024 1233 OFFCURVE",
"901 1400 OFFCURVE",
"648 1400 CURVE SMOOTH",
"156 1400 LINE",
"156 0 LINE"
);
},
{
closed = 1;
nodes = (
"268 1294 LINE",
"656 1294 LINE SMOOTH",
"813 1294 OFFCURVE",
"912 1188 OFFCURVE",
"912 972 CURVE SMOOTH",
"912 754 OFFCURVE",
"866 600 OFFCURVE",
"664 600 CURVE SMOOTH",
"268 600 LINE"
);
}
);
width = 1128;
},
{
anchors = (
{
name = bottom;
position = "{564, 0}";
},
{
name = top;
position = "{544, 1388}";
}
);
layerId = "77B00D75-0619-4FB7-8D17-EB9FCD2DF18B";
paths = (
{
closed = 1;
nodes = (
"196 0 LINE",
"196 562 LINE",
"664 562 LINE SMOOTH",
"673 562 OFFCURVE",
"690 563 OFFCURVE",
"714 566 CURVE",
"984 0 LINE",
"1026 0 LINE",
"752 574 LINE",
"936 628 OFFCURVE",
"1024 778 OFFCURVE",
"1024 972 CURVE SMOOTH",
"1024 1233 OFFCURVE",
"898 1400 OFFCURVE",
"634 1400 CURVE SMOOTH",
"156 1400 LINE",
"156 0 LINE"
);
},
{
closed = 1;
nodes = (
"196 1360 LINE",
"632 1360 LINE SMOOTH",
"864 1360 OFFCURVE",
"984 1212 OFFCURVE",
"984 988 CURVE SMOOTH",
"984 764 OFFCURVE",
"875 600 OFFCURVE",
"632 600 CURVE SMOOTH",
"196 600 LINE"
);
}
);
width = 1128;
},
{
anchors = (
{
name = bottom;
position = "{564, 0}";
},
{
name = top;
position = "{554, 1388}";
}
);
layerId = "8A94633D-DA21-409C-A8B7-00A83612E8B2";
paths = (
{
closed = 1;
nodes = (
"376 0 LINE",
"376 390 LINE",
"588 390 LINE SMOOTH",
"614 390 OFFCURVE",
"642 390 OFFCURVE",
"668 390 CURVE",
"802 0 LINE",
"1026 0 LINE",
"870 464 LINE",
"1006 586 OFFCURVE",
"1024 740 OFFCURVE",
"1024 924 CURVE SMOOTH",
"1024 1193 OFFCURVE",
"889 1400 OFFCURVE",
"630 1400 CURVE SMOOTH",
"156 1400 LINE",
"156 0 LINE"
);
},
{
closed = 1;
nodes = (
"376 1178 LINE",
"538 1178 LINE SMOOTH",
"711 1178 OFFCURVE",
"792 1129 OFFCURVE",
"792 924 CURVE SMOOTH",
"792 696 OFFCURVE",
"742 600 OFFCURVE",
"578 600 CURVE SMOOTH",
"376 600 LINE"
);
}
);
width = 1128;
}
);
leftKerningGroup = H;
rightKerningGroup = R;
unicode = 0052;
},
{
glyphname = S;
lastChange = "2019-02-12 03:57:44 +0000";
layers = (
{
anchors = (
{
name = bottom;
position = "{562, 0}";
},
{
name = top;
position = "{528, 1388}";
}
);
layerId = "BADA37E3-C95E-4946-BA48-1F986F6D85A7";
paths = (
{
closed = 1;
nodes = (
"867 -22 OFFCURVE",
"1024 139 OFFCURVE",
"1024 372 CURVE SMOOTH",
"1024 642 OFFCURVE",
"792 724 OFFCURVE",
"578 796 CURVE SMOOTH",
"396 858 OFFCURVE",
"226 914 OFFCURVE",
"226 1070 CURVE SMOOTH",
"226 1222 OFFCURVE",
"361 1312 OFFCURVE",
"557 1312 CURVE SMOOTH",
"655 1312 OFFCURVE",
"742 1293 OFFCURVE",
"818 1254 CURVE",
"852 1360 LINE",
"768 1400 OFFCURVE",
"671 1420 OFFCURVE",
"560 1420 CURVE SMOOTH",
"269 1420 OFFCURVE",
"110 1263 OFFCURVE",
"110 1076 CURVE SMOOTH",
"110 842 OFFCURVE",
"322 768 OFFCURVE",
"526 696 CURVE SMOOTH",
"718 628 OFFCURVE",
"904 564 OFFCURVE",
"904 362 CURVE SMOOTH",
"904 170 OFFCURVE",
"748 86 OFFCURVE",
"534 86 CURVE SMOOTH",
"374 86 OFFCURVE",
"202 194 OFFCURVE",
"188 356 CURVE",
"74 356 LINE",
"79 159 OFFCURVE",
"242 -22 OFFCURVE",
"559 -22 CURVE SMOOTH"
);
}
);
width = 1122;
},
{
anchors = (
{
name = bottom;
position = "{562, 0}";
},
{
name = top;
position = "{546, 1388}";
}
);
layerId = "77B00D75-0619-4FB7-8D17-EB9FCD2DF18B";
paths = (
{
closed = 1;
nodes = (
"869 -22 OFFCURVE",
"1024 131 OFFCURVE",
"1024 356 CURVE SMOOTH",
"1024 612 OFFCURVE",
"784 692 OFFCURVE",
"556 766 CURVE SMOOTH",
"348 834 OFFCURVE",
"152 898 OFFCURVE",
"152 1076 CURVE SMOOTH",
"152 1268 OFFCURVE",
"333 1382 OFFCURVE",
"552 1382 CURVE SMOOTH",
"661 1382 OFFCURVE",
"756 1361 OFFCURVE",
"836 1320 CURVE",
"852 1360 LINE",
"768 1400 OFFCURVE",
"671 1420 OFFCURVE",
"560 1420 CURVE SMOOTH",
"269 1420 OFFCURVE",
"110 1264 OFFCURVE",
"110 1082 CURVE SMOOTH",
"110 870 OFFCURVE",
"324 798 OFFCURVE",
"542 726 CURVE SMOOTH",
"760 654 OFFCURVE",
"982 584 OFFCURVE",
"982 356 CURVE SMOOTH",
"982 123 OFFCURVE",
"807 14 OFFCURVE",
"552 14 CURVE SMOOTH",
"262 14 OFFCURVE",
"118 191 OFFCURVE",
"118 356 CURVE",
"74 356 LINE",
"79 159 OFFCURVE",
"251 -22 OFFCURVE",
"560 -22 CURVE SMOOTH"
);
}
);
width = 1122;
},
{
anchors = (
{
name = bottom;
position = "{562, 0}";
},
{
name = top;
position = "{508, 1388}";
}
);
layerId = "8A94633D-DA21-409C-A8B7-00A83612E8B2";
paths = (
{
closed = 1;
nodes = (
"869 -22 OFFCURVE",
"1024 151 OFFCURVE",
"1024 388 CURVE SMOOTH",
"1024 682 OFFCURVE",
"778 792 OFFCURVE",
"582 878 CURVE SMOOTH",
"446 938 OFFCURVE",
"346 984 OFFCURVE",
"346 1066 CURVE SMOOTH",
"346 1152 OFFCURVE",
"442 1196 OFFCURVE",
"564 1196 CURVE SMOOTH",
"630 1196 OFFCURVE",
"704 1184 OFFCURVE",
"782 1152 CURVE",
"852 1360 LINE",
"768 1400 OFFCURVE",
"671 1420 OFFCURVE",
"560 1420 CURVE SMOOTH",
"269 1420 OFFCURVE",
"108 1274 OFFCURVE",
"108 1072 CURVE SMOOTH",
"108 840 OFFCURVE",
"286 766 OFFCURVE",
"460 694 CURVE SMOOTH",
"624 626 OFFCURVE",
"782 556 OFFCURVE",
"782 386 CURVE SMOOTH",
"782 282 OFFCURVE",
"707 194 OFFCURVE",
"544 194 CURVE SMOOTH",
"406 194 OFFCURVE",
"323 273 OFFCURVE",
"310 390 CURVE",
"74 356 LINE",
"79 159 OFFCURVE",
"255 -22 OFFCURVE",
"546 -22 CURVE SMOOTH"
);
}
);
width = 1122;
}
);
leftKerningGroup = S;
rightKerningGroup = S;
unicode = 0053;
},
{
glyphname = T;
lastChange = "2019-02-12 03:57:44 +0000";
layers = (
{
anchors = (
{
name = bottom;
position = "{396, 0}";
},
{
name = center;
position = "{396, 740}";
},
{
name = top;
position = "{396, 1388}";
}
);
layerId = "BADA37E3-C95E-4946-BA48-1F986F6D85A7";
paths = (
{
closed = 1;
nodes = (
"452 0 LINE",
"452 1300 LINE",
"804 1300 LINE",
"804 1400 LINE",
"0 1400 LINE",
"0 1300 LINE",
"340 1300 LINE",
"340 0 LINE"
);
}
);
width = 804;
},
{
anchors = (
{
name = bottom;
position = "{400, 0}";
},
{
name = center;
position = "{400, 740}";
},
{
name = top;
position = "{400, 1388}";
}
);
layerId = "77B00D75-0619-4FB7-8D17-EB9FCD2DF18B";
paths = (
{
closed = 1;
nodes = (
"416 0 LINE",
"416 1360 LINE",
"804 1360 LINE",
"804 1400 LINE",
"0 1400 LINE",
"0 1360 LINE",
"378 1360 LINE",
"380 0 LINE"
);
}
);
width = 804;
},
{
anchors = (
{
name = bottom;
position = "{400, 0}";
},
{
name = center;
position = "{400, 720}";
},
{
name = top;
position = "{400, 1388}";
}
);
layerId = "8A94633D-DA21-409C-A8B7-00A83612E8B2";
paths = (
{
closed = 1;
nodes = (
"508 0 LINE",
"508 1178 LINE",
"804 1178 LINE",
"804 1400 LINE",
"0 1400 LINE",
"0 1178 LINE",
"288 1178 LINE",
"288 0 LINE"
);
}
);
width = 804;
}
);
leftKerningGroup = T;
rightKerningGroup = T;
unicode = 0054;
},
{
glyphname = U;
lastChange = "2019-02-12 03:57:44 +0000";
layers = (
{
anchors = (
{
name = bottom;
position = "{570, 0}";
},
{
name = ogonek;
position = "{684, 0}";
},
{
name = top;
position = "{570, 1388}";
},
{
name = topright;
position = "{1092, 1400}";
}
);
layerId = "BADA37E3-C95E-4946-BA48-1F986F6D85A7";
paths = (
{
closed = 1;
nodes = (
"800 -14 OFFCURVE",
"990 103 OFFCURVE",
"990 372 CURVE SMOOTH",
"990 1402 LINE",
"878 1402 LINE",
"878 356 LINE SMOOTH",
"878 176 OFFCURVE",
"724 86 OFFCURVE",
"570 86 CURVE SMOOTH",
"414 86 OFFCURVE",
"260 176 OFFCURVE",
"260 356 CURVE SMOOTH",
"260 1402 LINE",
"148 1402 LINE",
"148 372 LINE SMOOTH",
"148 103 OFFCURVE",
"338 -14 OFFCURVE",
"570 -14 CURVE SMOOTH"
);
}
);
width = 1132;
},
{
anchors = (
{
name = bottom;
position = "{574, 0}";
},
{
name = ogonek;
position = "{644, 0}";
},
{
name = top;
position = "{574, 1388}";
},
{
name = topright;
position = "{1092, 1400}";
}
);
layerId = "77B00D75-0619-4FB7-8D17-EB9FCD2DF18B";
paths = (
{
closed = 1;
nodes = (
"800 -14 OFFCURVE",
"990 103 OFFCURVE",
"990 372 CURVE SMOOTH",
"990 1402 LINE",
"952 1402 LINE",
"952 368 LINE SMOOTH",
"952 128 OFFCURVE",
"775 24 OFFCURVE",
"574 24 CURVE SMOOTH",
"372 24 OFFCURVE",
"186 126 OFFCURVE",
"186 368 CURVE SMOOTH",
"186 1402 LINE",
"148 1402 LINE",
"148 372 LINE SMOOTH",
"148 103 OFFCURVE",
"338 -14 OFFCURVE",
"570 -14 CURVE SMOOTH"
);
}
);
width = 1132;
},
{
anchors = (
{
name = bottom;
position = "{568, 0}";
},
{
name = ogonek;
position = "{678, 0}";
},
{
name = top;
position = "{568, 1388}";
},
{
name = topright;
position = "{1092, 1400}";
}
);
layerId = "8A94633D-DA21-409C-A8B7-00A83612E8B2";
paths = (
{
closed = 1;
nodes = (
"800 -14 OFFCURVE",
"990 103 OFFCURVE",
"990 372 CURVE SMOOTH",
"990 1402 LINE",
"770 1402 LINE",
"770 460 LINE SMOOTH",
"770 279 OFFCURVE",
"728 202 OFFCURVE",
"568 202 CURVE SMOOTH",
"411 202 OFFCURVE",
"368 279 OFFCURVE",
"368 460 CURVE SMOOTH",
"368 1402 LINE",
"148 1402 LINE",
"148 372 LINE SMOOTH",
"148 103 OFFCURVE",
"338 -14 OFFCURVE",
"570 -14 CURVE SMOOTH"
);
}
);
width = 1132;
}
);
leftKerningGroup = U;
rightKerningGroup = U;
unicode = 0055;
},
{
glyphname = V;
lastChange = "2019-02-12 03:57:44 +0000";
layers = (
{
anchors = (
{
name = bottom;
position = "{634, 0}";
},
{
name = top;
position = "{634, 1388}";
}
);
layerId = "BADA37E3-C95E-4946-BA48-1F986F6D85A7";
paths = (
{
closed = 1;
nodes = (
"712 0 LINE",
"1112 1400 LINE",
"992 1400 LINE",
"634 138 LINE",
"276 1400 LINE",
"156 1400 LINE",
"558 0 LINE"
);
}
);
width = 1178;
},
{
anchors = (
{
name = bottom;
position = "{634, 0}";
},
{
name = top;
position = "{634, 1388}";
}
);
layerId = "77B00D75-0619-4FB7-8D17-EB9FCD2DF18B";
paths = (
{
closed = 1;
nodes = (
"658 0 LINE",
"1112 1400 LINE",
"1074 1400 LINE",
"634 54 LINE",
"194 1400 LINE",
"156 1400 LINE",
"614 0 LINE"
);
}
);
width = 1190;
},
{
anchors = (
{
name = bottom;
position = "{632, 0}";
},
{
name = top;
position = "{632, 1388}";
}
);
layerId = "8A94633D-DA21-409C-A8B7-00A83612E8B2";
paths = (
{
closed = 1;
nodes = (
"764 0 LINE",
"1112 1400 LINE",
"858 1400 LINE",
"634 432 LINE",
"404 1400 LINE",
"156 1400 LINE",
"506 0 LINE"
);
}
);
width = 1190;
}
);
leftKerningGroup = V;
rightKerningGroup = V;
unicode = 0056;
},
{
glyphname = W;
lastChange = "2019-02-12 03:57:44 +0000";
layers = (
{
anchors = (
{
name = bottom;
position = "{854, 0}";
},
{
name = top;
position = "{854, 1388}";
}
);
layerId = "BADA37E3-C95E-4946-BA48-1F986F6D85A7";
paths = (
{
closed = 1;
nodes = (
"656 0 LINE",
"854 1198 LINE",
"1052 0 LINE",
"1222 0 LINE",
"1548 1400 LINE",
"1428 1400 LINE",
"1146 138 LINE",
"932 1400 LINE",
"776 1400 LINE",
"562 138 LINE",
"276 1400 LINE",
"156 1400 LINE",
"486 0 LINE"
);
}
);
width = 1614;
},
{
anchors = (
{
name = bottom;
position = "{854, 0}";
},
{
name = top;
position = "{854, 1388}";
}
);
layerId = "77B00D75-0619-4FB7-8D17-EB9FCD2DF18B";
paths = (
{
closed = 1;
nodes = (
"564 0 LINE",
"854 1306 LINE",
"1144 0 LINE",
"1186 0 LINE",
"1548 1400 LINE",
"1504 1400 LINE",
"1166 70 LINE",
"874 1400 LINE",
"834 1400 LINE",
"542 72 LINE",
"198 1400 LINE",
"156 1400 LINE",
"522 0 LINE"
);
}
);
width = 1626;
},
{
anchors = (
{
name = bottom;
position = "{852, 0}";
},
{
name = top;
position = "{852, 1388}";
}
);
layerId = "8A94633D-DA21-409C-A8B7-00A83612E8B2";
paths = (
{
closed = 1;
nodes = (
"680 0 LINE",
"854 706 LINE",
"1032 0 LINE",
"1280 0 LINE",
"1548 1400 LINE",
"1296 1400 LINE",
"1146 504 LINE",
"932 1400 LINE",
"776 1400 LINE",
"562 504 LINE",
"398 1400 LINE",
"156 1400 LINE",
"424 0 LINE"
);
}
);
width = 1626;
}
);
leftKerningGroup = W;
rightKerningGroup = W;
unicode = 0057;
},
{
glyphname = X;
lastChange = "2019-02-12 03:57:44 +0000";
layers = (
{
anchors = (
{
name = bottom;
position = "{664, 0}";
},
{
name = top;
position = "{664, 1388}";
}
);
layerId = "BADA37E3-C95E-4946-BA48-1F986F6D85A7";
paths = (
{
closed = 1;
nodes = (
"294 0 LINE",
"664 588 LINE",
"1032 0 LINE",
"1170 0 LINE",
"732 704 LINE",
"1138 1400 LINE",
"1012 1400 LINE",
"664 812 LINE",
"320 1400 LINE",
"194 1400 LINE",
"598 704 LINE",
"156 0 LINE"
);
}
);
width = 1256;
},
{
anchors = (
{
name = bottom;
position = "{578, 0}";
},
{
name = top;
position = "{578, 1388}";
}
);
layerId = "77B00D75-0619-4FB7-8D17-EB9FCD2DF18B";
paths = (
{
closed = 1;
nodes = (
"120 0 LINE",
"578 692 LINE",
"1040 0 LINE",
"1084 6 LINE",
"604 728 LINE",
"1052 1400 LINE",
"1004 1400 LINE",
"578 764 LINE",
"152 1400 LINE",
"108 1400 LINE",
"556 728 LINE",
"70 0 LINE"
);
}
);
width = 1162;
},
{
anchors = (
{
name = bottom;
position = "{730, 0}";
},
{
name = top;
position = "{730, 1388}";
}
);
layerId = "8A94633D-DA21-409C-A8B7-00A83612E8B2";
paths = (
{
closed = 1;
nodes = (
"430 0 LINE",
"724 488 LINE",
"1028 0 LINE",
"1310 0 LINE",
"866 718 LINE",
"1276 1400 LINE",
"1014 1400 LINE",
"734 936 LINE",
"440 1400 LINE",
"180 1400 LINE",
"592 700 LINE",
"156 0 LINE"
);
}
);
width = 1388;
}
);
leftKerningGroup = X;
rightKerningGroup = X;
unicode = 0058;
},
{
glyphname = Y;
lastChange = "2019-02-12 03:57:44 +0000";
layers = (
{
anchors = (
{
name = bottom;
position = "{894, 0}";
},
{
name = top;
position = "{560, 1388}";
},
{
name = topleft;
position = "{76, 1400}";
}
);
layerId = "BADA37E3-C95E-4946-BA48-1F986F6D85A7";
paths = (
{
closed = 1;
nodes = (
"931 5 OFFCURVE",
"1008 117 OFFCURVE",
"1008 312 CURVE SMOOTH",
"1008 1400 LINE",
"894 1400 LINE",
"894 800 LINE",
"865 667 OFFCURVE",
"741 600 OFFCURVE",
"560 600 CURVE SMOOTH",
"379 600 OFFCURVE",
"232 699 OFFCURVE",
"232 886 CURVE SMOOTH",
"232 1400 LINE",
"120 1400 LINE",
"120 906 LINE SMOOTH",
"120 631 OFFCURVE",
"295 490 OFFCURVE",
"578 490 CURVE SMOOTH",
"687 490 OFFCURVE",
"822 528 OFFCURVE",
"894 608 CURVE",
"894 304 LINE SMOOTH",
"894 172 OFFCURVE",
"853 91 OFFCURVE",
"772 60 CURVE",
"798 -14 LINE"
);
}
);
width = 1120;
},
{
anchors = (
{
name = bottom;
position = "{922, 0}";
},
{
name = top;
position = "{568, 1388}";
},
{
name = topleft;
position = "{64, 1400}";
}
);
layerId = "77B00D75-0619-4FB7-8D17-EB9FCD2DF18B";
paths = (
{
closed = 1;
nodes = (
"936 22 OFFCURVE",
"1006 126 OFFCURVE",
"1006 304 CURVE SMOOTH",
"1006 1400 LINE",
"968 1400 LINE",
"968 810 LINE",
"944 650 OFFCURVE",
"791 528 OFFCURVE",
"578 528 CURVE SMOOTH",
"295 528 OFFCURVE",
"158 668 OFFCURVE",
"158 916 CURVE SMOOTH",
"158 1400 LINE",
"120 1400 LINE",
"120 906 LINE SMOOTH",
"120 631 OFFCURVE",
"295 490 OFFCURVE",
"578 490 CURVE SMOOTH",
"714 490 OFFCURVE",
"888 542 OFFCURVE",
"968 696 CURVE",
"968 304 LINE SMOOTH",
"968 148 OFFCURVE",
"910 48 OFFCURVE",
"786 22 CURVE",
"798 -14 LINE"
);
}
);
width = 1096;
},
{
anchors = (
{
name = bottom;
position = "{800, 0}";
},
{
name = top;
position = "{548, 1388}";
},
{
name = topleft;
position = "{100, 1388}";
}
);
layerId = "8A94633D-DA21-409C-A8B7-00A83612E8B2";
paths = (
{
closed = 1;
nodes = (
"903 -17 OFFCURVE",
"984 101 OFFCURVE",
"984 312 CURVE SMOOTH",
"984 1400 LINE",
"764 1400 LINE",
"764 686 LINE",
"726 638 OFFCURVE",
"656 606 OFFCURVE",
"554 606 CURVE SMOOTH",
"395 606 OFFCURVE",
"316 686 OFFCURVE",
"316 846 CURVE SMOOTH",
"316 1400 LINE",
"96 1400 LINE",
"96 826 LINE SMOOTH",
"96 559 OFFCURVE",
"279 390 OFFCURVE",
"550 390 CURVE SMOOTH",
"636 390 OFFCURVE",
"698 408 OFFCURVE",
"764 448 CURVE",
"764 328 LINE SMOOTH",
"764 187 OFFCURVE",
"702 141 OFFCURVE",
"614 130 CURVE",
"684 -38 LINE"
);
}
);
width = 1096;
}
);
leftKerningGroup = Y;
rightKerningGroup = Y;
unicode = 0059;
},
{
glyphname = Z;
lastChange = "2019-02-12 03:57:44 +0000";
layers = (
{
anchors = (
{
name = bottom;
position = "{550, 0}";
},
{
name = top;
position = "{550, 1388}";
}
);
layerId = "BADA37E3-C95E-4946-BA48-1F986F6D85A7";
paths = (
{
closed = 1;
nodes = (
"1036 0 LINE",
"1036 102 LINE",
"204 102 LINE",
"1024 1300 LINE",
"1024 1400 LINE",
"88 1400 LINE",
"88 1298 LINE",
"882 1298 LINE",
"62 100 LINE",
"62 0 LINE"
);
}
);
width = 1100;
},
{
anchors = (
{
name = bottom;
position = "{550, 0}";
},
{
name = top;
position = "{550, 1388}";
}
);
layerId = "77B00D75-0619-4FB7-8D17-EB9FCD2DF18B";
paths = (
{
closed = 1;
nodes = (
"1036 0 LINE",
"1036 38 LINE",
"110 38 LINE",
"1024 1362 LINE",
"1024 1400 LINE",
"88 1400 LINE",
"90 1362 LINE",
"976 1362 LINE",
"62 38 LINE",
"62 0 LINE"
);
}
);
width = 1100;
},
{
anchors = (
{
name = bottom;
position = "{550, 0}";
},
{
name = top;
position = "{550, 1388}";
}
);
layerId = "8A94633D-DA21-409C-A8B7-00A83612E8B2";
paths = (
{
closed = 1;
nodes = (
"1036 0 LINE",
"1036 208 LINE",
"336 208 LINE",
"1024 1180 LINE",
"1024 1400 LINE",
"88 1400 LINE",
"88 1180 LINE",
"746 1180 LINE",
"62 202 LINE",
"62 0 LINE"
);
}
);
width = 1100;
}
);
leftKerningGroup = Z;
rightKerningGroup = Z;
unicode = 005A;
},
{
glyphname = Y.ss01;
lastChange = "2019-02-12 03:57:44 +0000";
layers = (
{
anchors = (
{
name = bottom;
position = "{476, 0}";
},
{
name = top;
position = "{476, 1388}";
},
{
name = topleft;
position = "{-36, 1400}";
}
);
layerId = "BADA37E3-C95E-4946-BA48-1F986F6D85A7";
paths = (
{
closed = 1;
nodes = (
"532 0 LINE",
"532 684 LINE",
"948 1400 LINE",
"822 1400 LINE",
"474 812 LINE",
"130 1400 LINE",
"4 1400 LINE",
"420 680 LINE",
"420 0 LINE"
);
}
);
width = 1014;
},
{
anchors = (
{
name = bottom;
position = "{568, 0}";
},
{
name = top;
position = "{568, 1388}";
},
{
name = topleft;
position = "{40, 1388}";
}
);
layerId = "77B00D75-0619-4FB7-8D17-EB9FCD2DF18B";
paths = (
{
closed = 1;
nodes = (
"586 0 LINE",
"586 684 LINE",
"1042 1400 LINE",
"996 1400 LINE",
"568 724 LINE",
"144 1400 LINE",
"98 1400 LINE",
"550 684 LINE",
"550 0 LINE"
);
}
);
width = 1120;
},
{
anchors = (
{
name = bottom;
position = "{470, 0}";
},
{
name = top;
position = "{470, 1388}";
},
{
name = topleft;
position = "{-6, 1388}";
}
);
layerId = "8A94633D-DA21-409C-A8B7-00A83612E8B2";
paths = (
{
closed = 1;
nodes = (
"580 0 LINE",
"580 630 LINE",
"942 1400 LINE",
"708 1400 LINE",
"468 866 LINE",
"230 1400 LINE",
"-2 1400 LINE",
"358 630 LINE",
"358 0 LINE"
);
}
);
width = 1020;
}
);
},
{
glyphname = a;
lastChange = "2019-02-12 03:57:44 +0000";
layers = (
{
anchors = (
{
name = bottom;
position = "{484, 0}";
},
{
name = ogonek;
position = "{844, 0}";
},
{
name = top;
position = "{466, 1002}";
}
);
layerId = "BADA37E3-C95E-4946-BA48-1F986F6D85A7";
paths = (
{
closed = 1;
nodes = (
"590 -20 OFFCURVE",
"702 -14 OFFCURVE",
"844 0 CURVE",
"844 596 LINE SMOOTH",
"844 906 OFFCURVE",
"754 1018 OFFCURVE",
"428 1018 CURVE",
"422 932 LINE",
"665 932 OFFCURVE",
"732 842 OFFCURVE",
"732 700 CURVE",
"598 770 OFFCURVE",
"474 804 OFFCURVE",
"368 804 CURVE SMOOTH",
"184 804 OFFCURVE",
"74 694 OFFCURVE",
"74 504 CURVE SMOOTH",
"74 338 LINE SMOOTH",
"74 99 OFFCURVE",
"206 -20 OFFCURVE",
"518 -20 CURVE SMOOTH"
);
},
{
closed = 1;
nodes = (
"304 78 OFFCURVE",
"184 144 OFFCURVE",
"184 324 CURVE SMOOTH",
"184 498 LINE SMOOTH",
"184 645 OFFCURVE",
"268 702 OFFCURVE",
"376 702 CURVE SMOOTH",
"466 702 OFFCURVE",
"620 660 OFFCURVE",
"732 606 CURVE",
"732 92 LINE",
"658 82 OFFCURVE",
"586 78 OFFCURVE",
"524 78 CURVE SMOOTH"
);
}
);
width = 916;
},
{
anchors = (
{
name = bottom;
position = "{466, 0}";
},
{
name = ogonek;
position = "{844, 0}";
},
{
name = top;
position = "{464, 1002}";
}
);
layerId = "77B00D75-0619-4FB7-8D17-EB9FCD2DF18B";
paths = (
{
closed = 1;
nodes = (
"596 -20 OFFCURVE",
"708 -14 OFFCURVE",
"844 0 CURVE",
"844 674 LINE SMOOTH",
"844 906 OFFCURVE",
"726 1018 OFFCURVE",
"428 1018 CURVE",
"424 982 LINE",
"654 982 OFFCURVE",
"806 912 OFFCURVE",
"806 686 CURVE",
"690 766 OFFCURVE",
"548 804 OFFCURVE",
"410 804 CURVE SMOOTH",
"192 804 OFFCURVE",
"74 702 OFFCURVE",
"74 504 CURVE SMOOTH",
"74 338 LINE SMOOTH",
"74 99 OFFCURVE",
"218 -20 OFFCURVE",
"520 -20 CURVE SMOOTH"
);
},
{
closed = 1;
nodes = (
"290 14 OFFCURVE",
"112 90 OFFCURVE",
"112 336 CURVE SMOOTH",
"112 498 LINE SMOOTH",
"112 666 OFFCURVE",
"202 768 OFFCURVE",
"406 768 CURVE SMOOTH",
"534 768 OFFCURVE",
"694 726 OFFCURVE",
"806 646 CURVE",
"806 32 LINE",
"696 20 OFFCURVE",
"596 14 OFFCURVE",
"520 14 CURVE SMOOTH"
);
}
);
width = 916;
},
{
anchors = (
{
name = bottom;
position = "{478, 0}";
},
{
name = ogonek;
position = "{844, 0}";
},
{
name = top;
position = "{460, 1002}";
}
);
layerId = "8A94633D-DA21-409C-A8B7-00A83612E8B2";
paths = (
{
closed = 1;
nodes = (
"590 -20 OFFCURVE",
"702 -14 OFFCURVE",
"844 0 CURVE",
"844 596 LINE SMOOTH",
"844 904 OFFCURVE",
"754 1018 OFFCURVE",
"428 1018 CURVE",
"410 866 LINE",
"553 866 OFFCURVE",
"624 820 OFFCURVE",
"624 728 CURVE",
"550 776 OFFCURVE",
"446 802 OFFCURVE",
"362 802 CURVE SMOOTH",
"180 802 OFFCURVE",
"74 694 OFFCURVE",
"74 504 CURVE SMOOTH",
"74 310 LINE SMOOTH",
"74 82 OFFCURVE",
"222 -20 OFFCURVE",
"516 -20 CURVE SMOOTH"
);
},
{
closed = 1;
nodes = (
"367 182 OFFCURVE",
"296 243 OFFCURVE",
"296 366 CURVE SMOOTH",
"296 476 LINE SMOOTH",
"296 542 OFFCURVE",
"336 576 OFFCURVE",
"400 576 CURVE SMOOTH",
"464 576 OFFCURVE",
"568 542 OFFCURVE",
"624 504 CURVE",
"624 194 LINE",
"581 186 OFFCURVE",
"543 182 OFFCURVE",
"508 182 CURVE SMOOTH"
);
}
);
width = 916;
}
);
leftKerningGroup = a;
rightKerningGroup = n;
unicode = 0061;
},
{
glyphname = aring;
lastChange = "2019-02-12 03:57:44 +0000";
layers = (
{
anchors = (
{
name = _top;
position = "{384, 1002}";
},
{
name = bottom;
position = "{402, 0}";
},
{
name = ogonek;
position = "{762, 0}";
},
{
name = top;
position = "{384, 1002}";
}
);
background = {
paths = (
{
closed = 1;
nodes = (
"594 -20 OFFCURVE",
"706 -14 OFFCURVE",
"844 0 CURVE",
"844 596 LINE SMOOTH",
"844 660 OFFCURVE",
"842 714 OFFCURVE",
"836 758 CURVE SMOOTH",
"828 824 OFFCURVE",
"806 856 OFFCURVE",
"772 904 CURVE SMOOTH",
"740 948 OFFCURVE",
"682 980 OFFCURVE",
"600 1000 CURVE",
"688 1088 OFFCURVE",
"688 1230 OFFCURVE",
"600 1318 CURVE SMOOTH",
"556 1362 OFFCURVE",
"502 1384 OFFCURVE",
"440 1384 CURVE SMOOTH",
"314 1384 OFFCURVE",
"214 1282 OFFCURVE",
"214 1162 CURVE",
"236 1274 OFFCURVE",
"214 1222 OFFCURVE",
"214 1162 CURVE SMOOTH",
"214 1100 OFFCURVE",
"284 1024 OFFCURVE",
"422 932 CURVE",
"440 932 LINE SMOOTH",
"670 926 OFFCURVE",
"732 834 OFFCURVE",
"732 692 CURVE",
"638 766 OFFCURVE",
"512 804 OFFCURVE",
"354 804 CURVE SMOOTH",
"308 804 OFFCURVE",
"260 792 OFFCURVE",
"212 770 CURVE SMOOTH",
"120 724 OFFCURVE",
"74 636 OFFCURVE",
"74 504 CURVE SMOOTH",
"74 338 LINE SMOOTH",
"74 100 OFFCURVE",
"220 -20 OFFCURVE",
"512 -20 CURVE SMOOTH"
);
},
{
closed = 1;
nodes = (
"448 78 OFFCURVE",
"384 88 OFFCURVE",
"328 108 CURVE SMOOTH",
"232 142 OFFCURVE",
"184 214 OFFCURVE",
"184 324 CURVE SMOOTH",
"184 498 LINE SMOOTH",
"184 644 OFFCURVE",
"266 702 OFFCURVE",
"368 702 CURVE SMOOTH",
"376 702 OFFCURVE",
"384 702 OFFCURVE",
"394 700 CURVE",
"508 690 OFFCURVE",
"622 660 OFFCURVE",
"732 606 CURVE",
"732 92 LINE",
"660 82 OFFCURVE",
"588 78 OFFCURVE",
"518 78 CURVE SMOOTH"
);
},
{
closed = 1;
nodes = (
"410 934 OFFCURVE",
"216 1128 OFFCURVE",
"344 1256 CURVE SMOOTH",
"470 1382 OFFCURVE",
"666 1190 OFFCURVE",
"536 1060 CURVE SMOOTH"
);
}
);
};
layerId = "BADA37E3-C95E-4946-BA48-1F986F6D85A7";
paths = (
{
closed = 1;
nodes = (
"590 -20 OFFCURVE",
"702 -14 OFFCURVE",
"844 0 CURVE",
"844 624 LINE SMOOTH",
"844 924 OFFCURVE",
"754 1032 OFFCURVE",
"428 1032 CURVE",
"462 952 LINE",
"666 952 OFFCURVE",
"732 854 OFFCURVE",
"732 700 CURVE",
"598 770 OFFCURVE",
"474 804 OFFCURVE",
"368 804 CURVE SMOOTH",
"184 804 OFFCURVE",
"74 694 OFFCURVE",
"74 504 CURVE SMOOTH",
"74 338 LINE SMOOTH",
"74 100 OFFCURVE",
"206 -20 OFFCURVE",
"518 -20 CURVE SMOOTH"
);
},
{
closed = 1;
nodes = (
"304 78 OFFCURVE",
"184 144 OFFCURVE",
"184 324 CURVE SMOOTH",
"184 498 LINE SMOOTH",
"184 644 OFFCURVE",
"268 702 OFFCURVE",
"376 702 CURVE SMOOTH",
"466 702 OFFCURVE",
"620 660 OFFCURVE",
"732 606 CURVE",
"732 92 LINE",
"658 82 OFFCURVE",
"586 78 OFFCURVE",
"524 78 CURVE SMOOTH"
);
},
{
closed = 1;
nodes = (
"488 952 OFFCURVE",
"512 966 OFFCURVE",
"532 990 CURVE",
"614 1016 OFFCURVE",
"670 1088 OFFCURVE",
"670 1176 CURVE SMOOTH",
"670 1298 OFFCURVE",
"566 1400 OFFCURVE",
"442 1400 CURVE SMOOTH",
"318 1400 OFFCURVE",
"214 1298 OFFCURVE",
"214 1176 CURVE SMOOTH",
"214 1048 OFFCURVE",
"308 952 OFFCURVE",
"462 952 CURVE SMOOTH"
);
},
{
closed = 1;
nodes = (
"366 1038 OFFCURVE",
"304 1096 OFFCURVE",
"304 1176 CURVE SMOOTH",
"304 1256 OFFCURVE",
"366 1314 OFFCURVE",
"442 1314 CURVE SMOOTH",
"518 1314 OFFCURVE",
"580 1256 OFFCURVE",
"580 1176 CURVE SMOOTH",
"580 1096 OFFCURVE",
"518 1038 OFFCURVE",
"442 1038 CURVE SMOOTH"
);
}
);
width = 916;
},
{
anchors = (
{
name = _top;
position = "{464, 1002}";
},
{
name = bottom;
position = "{466, 0}";
},
{
name = ogonek;
position = "{844, 0}";
},
{
name = top;
position = "{464, 1002}";
}
);
background = {
paths = (
{
closed = 1;
nodes = (
"594 -20 OFFCURVE",
"706 -14 OFFCURVE",
"844 0 CURVE",
"844 596 LINE SMOOTH",
"844 690 OFFCURVE",
"846 720 OFFCURVE",
"826 802 CURVE SMOOTH",
"816 842 OFFCURVE",
"800 874 OFFCURVE",
"782 898 CURVE SMOOTH",
"762 920 OFFCURVE",
"686 958 OFFCURVE",
"552 1010 CURVE",
"628 1052 OFFCURVE",
"666 1118 OFFCURVE",
"666 1206 CURVE SMOOTH",
"666 1332 OFFCURVE",
"566 1432 OFFCURVE",
"440 1432 CURVE SMOOTH",
"378 1432 OFFCURVE",
"324 1410 OFFCURVE",
"280 1366 CURVE SMOOTH",
"194 1280 OFFCURVE",
"194 1140 OFFCURVE",
"276 1054 CURVE SMOOTH",
"316 1010 OFFCURVE",
"366 986 OFFCURVE",
"424 980 CURVE",
"440 980 LINE SMOOTH",
"584 980 OFFCURVE",
"682 950 OFFCURVE",
"736 888 CURVE SMOOTH",
"782 834 OFFCURVE",
"806 768 OFFCURVE",
"806 692 CURVE",
"690 766 OFFCURVE",
"554 804 OFFCURVE",
"400 804 CURVE SMOOTH",
"330 804 OFFCURVE",
"270 792 OFFCURVE",
"220 768 CURVE SMOOTH",
"122 720 OFFCURVE",
"74 632 OFFCURVE",
"74 504 CURVE SMOOTH",
"74 338 LINE SMOOTH",
"74 100 OFFCURVE",
"220 -20 OFFCURVE",
"512 -20 CURVE SMOOTH"
);
},
{
closed = 1;
nodes = (
"514 14 OFFCURVE",
"462 16 OFFCURVE",
"408 22 CURVE SMOOTH",
"354 26 OFFCURVE",
"304 38 OFFCURVE",
"262 60 CURVE SMOOTH",
"220 80 OFFCURVE",
"170 168 OFFCURVE",
"112 324 CURVE",
"112 498 LINE SMOOTH",
"112 648 OFFCURVE",
"194 738 OFFCURVE",
"304 760 CURVE SMOOTH",
"334 766 OFFCURVE",
"366 768 OFFCURVE",
"396 768 CURVE SMOOTH",
"426 768 OFFCURVE",
"454 766 OFFCURVE",
"482 762 CURVE SMOOTH",
"612 746 OFFCURVE",
"720 708 OFFCURVE",
"806 646 CURVE",
"806 36 LINE",
"700 22 OFFCURVE",
"620 14 OFFCURVE",
"568 14 CURVE SMOOTH"
);
},
{
closed = 1;
nodes = (
"140 1246 OFFCURVE",
"400 1504 OFFCURVE",
"570 1336 CURVE SMOOTH",
"738 1166 OFFCURVE",
"480 906 OFFCURVE",
"310 1076 CURVE SMOOTH"
);
}
);
};
layerId = "77B00D75-0619-4FB7-8D17-EB9FCD2DF18B";
paths = (
{
closed = 1;
nodes = (
"596 -20 OFFCURVE",
"708 -14 OFFCURVE",
"844 0 CURVE",
"844 674 LINE SMOOTH",
"844 904 OFFCURVE",
"738 1016 OFFCURVE",
"468 1016 CURVE",
"474 980 LINE",
"670 980 OFFCURVE",
"806 910 OFFCURVE",
"806 686 CURVE",
"690 766 OFFCURVE",
"548 804 OFFCURVE",
"410 804 CURVE SMOOTH",
"192 804 OFFCURVE",
"74 702 OFFCURVE",
"74 504 CURVE SMOOTH",
"74 338 LINE SMOOTH",
"74 100 OFFCURVE",
"218 -20 OFFCURVE",
"520 -20 CURVE SMOOTH"
);
},
{
closed = 1;
nodes = (
"290 14 OFFCURVE",
"112 90 OFFCURVE",
"112 336 CURVE SMOOTH",
"112 498 LINE SMOOTH",
"112 666 OFFCURVE",
"202 768 OFFCURVE",
"406 768 CURVE SMOOTH",
"534 768 OFFCURVE",
"694 726 OFFCURVE",
"806 646 CURVE",
"806 32 LINE",
"696 20 OFFCURVE",
"596 14 OFFCURVE",
"520 14 CURVE SMOOTH"
);
},
{
closed = 1;
nodes = (
"496 980 OFFCURVE",
"518 986 OFFCURVE",
"538 1000 CURVE",
"618 1026 OFFCURVE",
"676 1102 OFFCURVE",
"676 1192 CURVE SMOOTH",
"676 1306 OFFCURVE",
"582 1402 OFFCURVE",
"464 1402 CURVE SMOOTH",
"344 1402 OFFCURVE",
"252 1306 OFFCURVE",
"252 1192 CURVE SMOOTH",
"252 1076 OFFCURVE",
"344 980 OFFCURVE",
"474 980 CURVE SMOOTH"
);
},
{
closed = 1;
nodes = (
"368 1022 OFFCURVE",
"294 1098 OFFCURVE",
"294 1192 CURVE SMOOTH",
"294 1286 OFFCURVE",
"368 1360 OFFCURVE",
"464 1360 CURVE SMOOTH",
"558 1360 OFFCURVE",
"632 1286 OFFCURVE",
"632 1192 CURVE SMOOTH",
"632 1098 OFFCURVE",
"558 1022 OFFCURVE",
"464 1022 CURVE SMOOTH"
);
}
);
width = 916;
},
{
anchors = (
{
name = _top;
position = "{440, 908}";
},
{
name = bottom;
position = "{478, 0}";
},
{
name = ogonek;
position = "{844, 0}";
},
{
name = top;
position = "{460, 1002}";
}
);
associatedMasterId = "8A94633D-DA21-409C-A8B7-00A83612E8B2";
background = {
paths = (
{
closed = 1;
nodes = (
"594 -20 OFFCURVE",
"706 -14 OFFCURVE",
"844 0 CURVE",
"844 596 LINE SMOOTH",
"844 774 OFFCURVE",
"834 928 OFFCURVE",
"634 992 CURVE",
"648 1022 OFFCURVE",
"654 1050 OFFCURVE",
"654 1080 CURVE SMOOTH",
"654 1360 OFFCURVE",
"226 1362 OFFCURVE",
"226 1080 CURVE SMOOTH",
"226 974 OFFCURVE",
"306 882 OFFCURVE",
"410 868 CURVE",
"410 866 LINE",
"552 866 OFFCURVE",
"624 824 OFFCURVE",
"624 738 CURVE",
"568 770 OFFCURVE",
"484 794 OFFCURVE",
"366 800 CURVE",
"360 802 OFFCURVE",
"352 802 OFFCURVE",
"344 802 CURVE SMOOTH",
"294 802 OFFCURVE",
"250 792 OFFCURVE",
"212 770 CURVE",
"120 724 OFFCURVE",
"74 636 OFFCURVE",
"74 504 CURVE SMOOTH",
"74 338 LINE SMOOTH",
"74 328 OFFCURVE",
"74 320 OFFCURVE",
"74 310 CURVE",
"84 116 OFFCURVE",
"200 8 OFFCURVE",
"418 -16 CURVE SMOOTH",
"444 -18 OFFCURVE",
"474 -20 OFFCURVE",
"512 -20 CURVE SMOOTH"
);
},
{
closed = 1;
nodes = (
"366 182 OFFCURVE",
"296 244 OFFCURVE",
"296 366 CURVE SMOOTH",
"296 476 LINE SMOOTH",
"296 516 OFFCURVE",
"310 544 OFFCURVE",
"336 560 CURVE SMOOTH",
"354 570 OFFCURVE",
"376 576 OFFCURVE",
"400 576 CURVE SMOOTH",
"410 576 OFFCURVE",
"422 576 OFFCURVE",
"434 574 CURVE",
"508 560 OFFCURVE",
"582 534 OFFCURVE",
"624 504 CURVE",
"624 194 LINE",
"582 186 OFFCURVE",
"542 182 OFFCURVE",
"508 182 CURVE SMOOTH"
);
},
{
closed = 1;
nodes = (
"344 1094 OFFCURVE",
"428 1176 OFFCURVE",
"482 1122 CURVE SMOOTH",
"536 1068 OFFCURVE",
"454 984 OFFCURVE",
"396 1036 CURVE"
);
}
);
};
layerId = "AD2B17F6-1DF5-47C5-BB86-089BCBD8FD05";
name = "Aug 14 18, 10:20";
paths = (
{
closed = 1;
nodes = (
"590 -20 OFFCURVE",
"702 -14 OFFCURVE",
"844 0 CURVE",
"844 656 LINE SMOOTH",
"844 962 OFFCURVE",
"754 1074 OFFCURVE",
"428 1074 CURVE",
"450 926 LINE",
"564 926 OFFCURVE",
"624 860 OFFCURVE",
"624 728 CURVE",
"550 776 OFFCURVE",
"446 802 OFFCURVE",
"362 802 CURVE SMOOTH",
"180 802 OFFCURVE",
"74 694 OFFCURVE",
"74 504 CURVE SMOOTH",
"74 310 LINE SMOOTH",
"74 82 OFFCURVE",
"222 -20 OFFCURVE",
"516 -20 CURVE SMOOTH"
);
},
{
closed = 1;
nodes = (
"366 182 OFFCURVE",
"296 244 OFFCURVE",
"296 366 CURVE SMOOTH",
"296 476 LINE SMOOTH",
"296 542 OFFCURVE",
"336 576 OFFCURVE",
"400 576 CURVE SMOOTH",
"464 576 OFFCURVE",
"568 542 OFFCURVE",
"624 504 CURVE",
"624 194 LINE",
"582 186 OFFCURVE",
"542 182 OFFCURVE",
"508 182 CURVE SMOOTH"
);
},
{
closed = 1;
nodes = (
"480 926 OFFCURVE",
"510 942 OFFCURVE",
"532 970 CURVE",
"620 1006 OFFCURVE",
"676 1070 OFFCURVE",
"676 1156 CURVE SMOOTH",
"676 1284 OFFCURVE",
"574 1384 OFFCURVE",
"436 1384 CURVE SMOOTH",
"310 1384 OFFCURVE",
"204 1282 OFFCURVE",
"204 1160 CURVE SMOOTH",
"204 1032 OFFCURVE",
"298 926 OFFCURVE",
"450 926 CURVE SMOOTH"
);
},
{
closed = 1;
nodes = (
"394 1078 OFFCURVE",
"360 1110 OFFCURVE",
"360 1156 CURVE SMOOTH",
"360 1200 OFFCURVE",
"394 1238 OFFCURVE",
"440 1238 CURVE SMOOTH",
"486 1238 OFFCURVE",
"520 1200 OFFCURVE",
"520 1156 CURVE SMOOTH",
"520 1110 OFFCURVE",
"486 1078 OFFCURVE",
"440 1078 CURVE SMOOTH"
);
}
);
width = 916;
},
{
anchors = (
{
name = _top;
position = "{440, 908}";
},
{
name = bottom;
position = "{478, 0}";
},
{
name = ogonek;
position = "{844, 0}";
},
{
name = top;
position = "{460, 1002}";
}
);
background = {
paths = (
{
closed = 1;
nodes = (
"594 -20 OFFCURVE",
"706 -14 OFFCURVE",
"844 0 CURVE",
"844 596 LINE SMOOTH",
"844 774 OFFCURVE",
"834 928 OFFCURVE",
"634 992 CURVE",
"648 1022 OFFCURVE",
"654 1050 OFFCURVE",
"654 1080 CURVE SMOOTH",
"654 1360 OFFCURVE",
"226 1362 OFFCURVE",
"226 1080 CURVE SMOOTH",
"226 974 OFFCURVE",
"306 882 OFFCURVE",
"410 868 CURVE",
"410 866 LINE",
"552 866 OFFCURVE",
"624 824 OFFCURVE",
"624 738 CURVE",
"568 770 OFFCURVE",
"484 794 OFFCURVE",
"366 800 CURVE",
"360 802 OFFCURVE",
"352 802 OFFCURVE",
"344 802 CURVE SMOOTH",
"294 802 OFFCURVE",
"250 792 OFFCURVE",
"212 770 CURVE",
"120 724 OFFCURVE",
"74 636 OFFCURVE",
"74 504 CURVE SMOOTH",
"74 338 LINE SMOOTH",
"74 328 OFFCURVE",
"74 320 OFFCURVE",
"74 310 CURVE",
"84 116 OFFCURVE",
"200 8 OFFCURVE",
"418 -16 CURVE SMOOTH",
"444 -18 OFFCURVE",
"474 -20 OFFCURVE",
"512 -20 CURVE SMOOTH"
);
},
{
closed = 1;
nodes = (
"366 182 OFFCURVE",
"296 244 OFFCURVE",
"296 366 CURVE SMOOTH",
"296 476 LINE SMOOTH",
"296 516 OFFCURVE",
"310 544 OFFCURVE",
"336 560 CURVE SMOOTH",
"354 570 OFFCURVE",
"376 576 OFFCURVE",
"400 576 CURVE SMOOTH",
"410 576 OFFCURVE",
"422 576 OFFCURVE",
"434 574 CURVE",
"508 560 OFFCURVE",
"582 534 OFFCURVE",
"624 504 CURVE",
"624 194 LINE",
"582 186 OFFCURVE",
"542 182 OFFCURVE",
"508 182 CURVE SMOOTH"
);
},
{
closed = 1;
nodes = (
"344 1094 OFFCURVE",
"428 1176 OFFCURVE",
"482 1122 CURVE SMOOTH",
"536 1068 OFFCURVE",
"454 984 OFFCURVE",
"396 1036 CURVE"
);
}
);
};
layerId = "8A94633D-DA21-409C-A8B7-00A83612E8B2";
paths = (
{
closed = 1;
nodes = (
"590 -20 OFFCURVE",
"702 -14 OFFCURVE",
"844 0 CURVE",
"844 596 LINE SMOOTH",
"844 906 OFFCURVE",
"754 1020 OFFCURVE",
"428 1020 CURVE",
"450 872 LINE",
"564 872 OFFCURVE",
"624 824 OFFCURVE",
"624 728 CURVE",
"550 776 OFFCURVE",
"446 802 OFFCURVE",
"362 802 CURVE SMOOTH",
"180 802 OFFCURVE",
"74 694 OFFCURVE",
"74 504 CURVE SMOOTH",
"74 310 LINE SMOOTH",
"74 82 OFFCURVE",
"222 -20 OFFCURVE",
"516 -20 CURVE SMOOTH"
);
},
{
closed = 1;
nodes = (
"366 182 OFFCURVE",
"296 244 OFFCURVE",
"296 366 CURVE SMOOTH",
"296 476 LINE SMOOTH",
"296 542 OFFCURVE",
"336 576 OFFCURVE",
"400 576 CURVE SMOOTH",
"464 576 OFFCURVE",
"568 542 OFFCURVE",
"624 504 CURVE",
"624 194 LINE",
"582 186 OFFCURVE",
"542 182 OFFCURVE",
"508 182 CURVE SMOOTH"
);
},
{
closed = 1;
nodes = (
"480 872 OFFCURVE",
"510 888 OFFCURVE",
"532 916 CURVE",
"608 948 OFFCURVE",
"656 1006 OFFCURVE",
"656 1082 CURVE SMOOTH",
"656 1198 OFFCURVE",
"562 1290 OFFCURVE",
"436 1290 CURVE SMOOTH",
"320 1290 OFFCURVE",
"224 1198 OFFCURVE",
"224 1086 CURVE SMOOTH",
"224 968 OFFCURVE",
"310 872 OFFCURVE",
"450 872 CURVE SMOOTH"
);
},
{
closed = 1;
nodes = (
"406 1024 OFFCURVE",
"380 1048 OFFCURVE",
"380 1082 CURVE SMOOTH",
"380 1116 OFFCURVE",
"406 1144 OFFCURVE",
"440 1144 CURVE SMOOTH",
"474 1144 OFFCURVE",
"500 1116 OFFCURVE",
"500 1082 CURVE SMOOTH",
"500 1048 OFFCURVE",
"474 1024 OFFCURVE",
"440 1024 CURVE SMOOTH"
);
}
);
width = 916;
}
);
leftMetricsKey = a;
rightMetricsKey = a;
unicode = 00E5;
},
{
glyphname = b;
lastChange = "2019-02-12 03:57:44 +0000";
layers = (
{
anchors = (
{
name = bottom;
position = "{480, 0}";
},
{
name = top;
position = "{212, 1388}";
}
);
layerId = "BADA37E3-C95E-4946-BA48-1F986F6D85A7";
paths = (
{
closed = 1;
nodes = (
"742 -24 OFFCURVE",
"894 78 OFFCURVE",
"894 314 CURVE SMOOTH",
"894 692 LINE SMOOTH",
"894 908 OFFCURVE",
"750 1018 OFFCURVE",
"532 1018 CURVE SMOOTH",
"421 1018 OFFCURVE",
"333 995 OFFCURVE",
"268 948 CURVE",
"268 1400 LINE",
"156 1400 LINE",
"156 0 LINE",
"271 -16 OFFCURVE",
"377 -24 OFFCURVE",
"466 -24 CURVE SMOOTH"
);
},
{
closed = 1;
nodes = (
"410 78 OFFCURVE",
"343 84 OFFCURVE",
"268 96 CURVE",
"268 850 LINE",
"349 895 OFFCURVE",
"435 918 OFFCURVE",
"525 918 CURVE SMOOTH",
"686 918 OFFCURVE",
"784 842 OFFCURVE",
"784 686 CURVE SMOOTH",
"784 312 LINE SMOOTH",
"784 156 OFFCURVE",
"679 78 OFFCURVE",
"470 78 CURVE SMOOTH"
);
}
);
width = 960;
},
{
anchors = (
{
name = bottom;
position = "{486, 0}";
},
{
name = top;
position = "{176, 1388}";
}
);
layerId = "77B00D75-0619-4FB7-8D17-EB9FCD2DF18B";
paths = (
{
closed = 1;
nodes = (
"722 -24 OFFCURVE",
"894 78 OFFCURVE",
"894 314 CURVE SMOOTH",
"894 692 LINE SMOOTH",
"894 932 OFFCURVE",
"726 1018 OFFCURVE",
"502 1018 CURVE SMOOTH",
"386 1018 OFFCURVE",
"286 996 OFFCURVE",
"194 954 CURVE",
"194 1400 LINE",
"156 1400 LINE",
"156 0 LINE",
"266 -16 OFFCURVE",
"368 -24 OFFCURVE",
"442 -24 CURVE SMOOTH"
);
},
{
closed = 1;
nodes = (
"361 14 OFFCURVE",
"280 20 OFFCURVE",
"194 34 CURVE",
"194 914 LINE",
"284 960 OFFCURVE",
"390 982 OFFCURVE",
"502 982 CURVE SMOOTH",
"728 982 OFFCURVE",
"856 884 OFFCURVE",
"856 686 CURVE SMOOTH",
"856 312 LINE SMOOTH",
"856 113 OFFCURVE",
"717 14 OFFCURVE",
"440 14 CURVE SMOOTH"
);
}
);
width = 972;
},
{
anchors = (
{
name = bottom;
position = "{486, 0}";
},
{
name = top;
position = "{266, 1388}";
}
);
background = {
paths = (
{
closed = 1;
nodes = (
"328 -24 OFFCURVE",
"620 -24 OFFCURVE",
"738 36 QCURVE",
"894 116 OFFCURVE",
"894 314 QCURVE",
"894 692 LINE",
"894 902 OFFCURVE",
"724 980 QCURVE",
"642 1018 OFFCURVE",
"536 1018 QCURVE",
"462 1018 OFFCURVE",
"376 1000 QCURVE",
"376 1400 LINE",
"156 1400 LINE",
"156 0 LINE"
);
},
{
closed = 1;
nodes = (
"410 180 OFFCURVE",
"376 192 QCURVE",
"376 764 LINE",
"396 782 OFFCURVE",
"444 792 QCURVE",
"474 796 OFFCURVE",
"508 796 QCURVE",
"526 796 OFFCURVE",
"544 796 QCURVE",
"596 790 OFFCURVE",
"676 706 OFFCURVE",
"676 630 QCURVE",
"676 310 LINE",
"676 224 OFFCURVE",
"564 196 QCURVE",
"502 180 OFFCURVE",
"452 180 QCURVE"
);
}
);
};
layerId = "8A94633D-DA21-409C-A8B7-00A83612E8B2";
paths = (
{
closed = 1;
nodes = (
"710 -24 OFFCURVE",
"894 78 OFFCURVE",
"894 314 CURVE SMOOTH",
"894 692 LINE SMOOTH",
"894 906 OFFCURVE",
"750 1018 OFFCURVE",
"540 1018 CURVE SMOOTH",
"484 1018 OFFCURVE",
"436 1010 OFFCURVE",
"376 988 CURVE",
"376 1400 LINE",
"156 1400 LINE",
"156 0 LINE",
"271 -16 OFFCURVE",
"377 -24 OFFCURVE",
"474 -24 CURVE SMOOTH"
);
},
{
closed = 1;
nodes = (
"432 180 OFFCURVE",
"402 184 OFFCURVE",
"376 192 CURVE",
"376 764 LINE",
"424 790 OFFCURVE",
"470 796 OFFCURVE",
"506 796 CURVE SMOOTH",
"618 796 OFFCURVE",
"676 734 OFFCURVE",
"676 630 CURVE SMOOTH",
"676 320 LINE SMOOTH",
"676 218 OFFCURVE",
"564 180 OFFCURVE",
"464 180 CURVE SMOOTH"
);
}
);
width = 972;
}
);
leftKerningGroup = l;
rightKerningGroup = o;
unicode = 0062;
},
{
glyphname = c;
lastChange = "2019-02-12 03:57:44 +0000";
layers = (
{
anchors = (
{
name = bottom;
position = "{424, 0}";
},
{
name = top;
position = "{424, 1002}";
}
);
layerId = "BADA37E3-C95E-4946-BA48-1F986F6D85A7";
paths = (
{
closed = 1;
nodes = (
"553 -22 OFFCURVE",
"631 -11 OFFCURVE",
"716 12 CURVE",
"692 102 LINE",
"619 85 OFFCURVE",
"552 76 OFFCURVE",
"492 76 CURVE SMOOTH",
"287 76 OFFCURVE",
"184 163 OFFCURVE",
"184 338 CURVE SMOOTH",
"184 628 LINE SMOOTH",
"184 828 OFFCURVE",
"298 920 OFFCURVE",
"460 920 CURVE SMOOTH",
"526 920 OFFCURVE",
"602 904 OFFCURVE",
"680 874 CURVE",
"712 956 LINE",
"621 999 OFFCURVE",
"532 1020 OFFCURVE",
"444 1020 CURVE SMOOTH",
"202 1020 OFFCURVE",
"72 860 OFFCURVE",
"72 616 CURVE SMOOTH",
"72 360 LINE SMOOTH",
"72 102 OFFCURVE",
"204 -22 OFFCURVE",
"484 -22 CURVE SMOOTH"
);
}
);
width = 766;
},
{
anchors = (
{
name = bottom;
position = "{442, 0}";
},
{
name = top;
position = "{442, 1002}";
}
);
layerId = "77B00D75-0619-4FB7-8D17-EB9FCD2DF18B";
paths = (
{
closed = 1;
nodes = (
"553 -22 OFFCURVE",
"631 -11 OFFCURVE",
"716 12 CURVE",
"706 50 LINE",
"624 26 OFFCURVE",
"544 14 OFFCURVE",
"470 14 CURVE SMOOTH",
"262 14 OFFCURVE",
"106 110 OFFCURVE",
"110 338 CURVE SMOOTH",
"110 628 LINE SMOOTH",
"110 836 OFFCURVE",
"226 980 OFFCURVE",
"446 980 CURVE SMOOTH",
"533 980 OFFCURVE",
"617 959 OFFCURVE",
"698 916 CURVE",
"712 956 LINE",
"621 999 OFFCURVE",
"532 1020 OFFCURVE",
"444 1020 CURVE SMOOTH",
"202 1020 OFFCURVE",
"72 860 OFFCURVE",
"72 616 CURVE SMOOTH",
"72 360 LINE SMOOTH",
"72 102 OFFCURVE",
"204 -22 OFFCURVE",
"484 -22 CURVE SMOOTH"
);
}
);
width = 766;
},
{
anchors = (
{
name = bottom;
position = "{430, 0}";
},
{
name = top;
position = "{406, 1002}";
}
);
layerId = "8A94633D-DA21-409C-A8B7-00A83612E8B2";
paths = (
{
closed = 1;
nodes = (
"551 -22 OFFCURVE",
"631 -11 OFFCURVE",
"716 12 CURVE",
"656 228 LINE",
"612 210 OFFCURVE",
"530 200 OFFCURVE",
"472 200 CURVE SMOOTH",
"354 200 OFFCURVE",
"292 244 OFFCURVE",
"292 338 CURVE SMOOTH",
"292 628 LINE SMOOTH",
"292 738 OFFCURVE",
"364 802 OFFCURVE",
"474 802 CURVE SMOOTH",
"523 802 OFFCURVE",
"583 790 OFFCURVE",
"652 766 CURVE",
"712 956 LINE",
"632 994 OFFCURVE",
"528 1020 OFFCURVE",
"444 1020 CURVE SMOOTH",
"204 1020 OFFCURVE",
"72 862 OFFCURVE",
"72 616 CURVE SMOOTH",
"72 360 LINE SMOOTH",
"72 104 OFFCURVE",
"200 -22 OFFCURVE",
"478 -22 CURVE SMOOTH"
);
}
);
width = 766;
}
);
leftKerningGroup = o;
rightKerningGroup = c;
unicode = 0063;
},
{
glyphname = d;
lastChange = "2019-02-12 03:57:44 +0000";
layers = (
{
anchors = (
{
name = bottom;
position = "{576, 0}";
},
{
name = center;
position = "{780, 1180}";
},
{
name = top;
position = "{838, 1388}";
},
{
name = topright;
position = "{1020, 1388}";
}
);
layerId = "BADA37E3-C95E-4946-BA48-1F986F6D85A7";
paths = (
{
closed = 1;
nodes = (
"674 -24 OFFCURVE",
"780 -16 OFFCURVE",
"894 0 CURVE",
"894 1400 LINE",
"782 1400 LINE",
"782 948 LINE",
"716 994 OFFCURVE",
"628 1018 OFFCURVE",
"518 1018 CURVE SMOOTH",
"306 1018 OFFCURVE",
"156 912 OFFCURVE",
"156 692 CURVE SMOOTH",
"156 314 LINE SMOOTH",
"156 82 OFFCURVE",
"336 -24 OFFCURVE",
"576 -24 CURVE SMOOTH"
);
},
{
closed = 1;
nodes = (
"371 78 OFFCURVE",
"266 156 OFFCURVE",
"266 312 CURVE SMOOTH",
"266 686 LINE SMOOTH",
"266 824 OFFCURVE",
"348 918 OFFCURVE",
"516 918 CURVE SMOOTH",
"612 918 OFFCURVE",
"700 896 OFFCURVE",
"782 850 CURVE",
"782 96 LINE",
"707 84 OFFCURVE",
"640 78 OFFCURVE",
"580 78 CURVE SMOOTH"
);
}
);
width = 960;
},
{
anchors = (
{
name = bottom;
position = "{534, 0}";
},
{
name = center;
position = "{734, 1216}";
},
{
name = top;
position = "{828, 1388}";
},
{
name = topright;
position = "{996, 1388}";
}
);
layerId = "77B00D75-0619-4FB7-8D17-EB9FCD2DF18B";
paths = (
{
closed = 1;
nodes = (
"638 -24 OFFCURVE",
"738 -16 OFFCURVE",
"846 0 CURVE",
"846 1400 LINE",
"808 1400 LINE",
"808 954 LINE",
"716 998 OFFCURVE",
"618 1020 OFFCURVE",
"498 1020 CURVE SMOOTH",
"272 1020 OFFCURVE",
"108 926 OFFCURVE",
"108 680 CURVE SMOOTH",
"108 314 LINE SMOOTH",
"108 82 OFFCURVE",
"270 -24 OFFCURVE",
"558 -24 CURVE SMOOTH"
);
},
{
closed = 1;
nodes = (
"284 14 OFFCURVE",
"146 114 OFFCURVE",
"146 312 CURVE SMOOTH",
"146 686 LINE SMOOTH",
"146 880 OFFCURVE",
"268 982 OFFCURVE",
"500 982 CURVE SMOOTH",
"610 982 OFFCURVE",
"718 960 OFFCURVE",
"808 914 CURVE",
"808 36 LINE",
"722 22 OFFCURVE",
"640 14 OFFCURVE",
"562 14 CURVE SMOOTH"
);
}
);
width = 924;
},
{
anchors = (
{
name = bottom;
position = "{486, 0}";
},
{
name = center;
position = "{774, 1188}";
},
{
name = top;
position = "{786, 1388}";
},
{
name = topright;
position = "{1066, 1388}";
}
);
layerId = "8A94633D-DA21-409C-A8B7-00A83612E8B2";
paths = (
{
closed = 1;
nodes = (
"673 -24 OFFCURVE",
"784 -14 OFFCURVE",
"894 0 CURVE",
"894 1400 LINE",
"676 1400 LINE",
"676 996 LINE",
"628 1010 OFFCURVE",
"582 1020 OFFCURVE",
"518 1020 CURVE SMOOTH",
"318 1020 OFFCURVE",
"156 920 OFFCURVE",
"156 692 CURVE SMOOTH",
"156 314 LINE SMOOTH",
"156 82 OFFCURVE",
"320 -24 OFFCURVE",
"586 -24 CURVE SMOOTH"
);
},
{
closed = 1;
nodes = (
"476 180 OFFCURVE",
"374 222 OFFCURVE",
"374 308 CURVE SMOOTH",
"374 612 LINE SMOOTH",
"374 722 OFFCURVE",
"422 796 OFFCURVE",
"544 796 CURVE SMOOTH",
"590 796 OFFCURVE",
"632 786 OFFCURVE",
"676 764 CURVE",
"676 194 LINE",
"638 184 OFFCURVE",
"602 180 OFFCURVE",
"572 180 CURVE SMOOTH"
);
}
);
width = 972;
}
);
leftKerningGroup = o;
rightKerningGroup = l;
unicode = 0064;
},
{
glyphname = eth;
lastChange = "2019-02-12 03:57:44 +0000";
layers = (
{
layerId = "77B00D75-0619-4FB7-8D17-EB9FCD2DF18B";
paths = (
{
closed = 1;
nodes = (
"726 -20 OFFCURVE",
"846 144 OFFCURVE",
"846 368 CURVE SMOOTH",
"846 866 LINE SMOOTH",
"846 1204 OFFCURVE",
"744 1326 OFFCURVE",
"432 1412 CURVE",
"422 1378 LINE",
"718 1304 OFFCURVE",
"808 1156 OFFCURVE",
"808 884 CURVE SMOOTH",
"808 858 LINE",
"710 972 OFFCURVE",
"618 1020 OFFCURVE",
"472 1020 CURVE SMOOTH",
"270 1020 OFFCURVE",
"108 924 OFFCURVE",
"108 672 CURVE SMOOTH",
"108 368 LINE SMOOTH",
"108 146 OFFCURVE",
"234 -20 OFFCURVE",
"480 -20 CURVE SMOOTH"
);
},
{
closed = 1;
nodes = (
"252 16 OFFCURVE",
"146 174 OFFCURVE",
"146 368 CURVE SMOOTH",
"146 678 LINE SMOOTH",
"146 878 OFFCURVE",
"268 982 OFFCURVE",
"474 982 CURVE SMOOTH",
"610 982 OFFCURVE",
"712 932 OFFCURVE",
"808 808 CURVE",
"808 368 LINE SMOOTH",
"808 168 OFFCURVE",
"704 16 OFFCURVE",
"478 16 CURVE SMOOTH"
);
},
{
closed = 1;
nodes = (
"860 1278 LINE",
"848 1312 LINE",
"408 1152 LINE",
"420 1118 LINE"
);
}
);
width = 938;
},
{
layerId = "BADA37E3-C95E-4946-BA48-1F986F6D85A7";
paths = (
{
closed = 1;
nodes = (
"774 -20 OFFCURVE",
"894 144 OFFCURVE",
"894 368 CURVE SMOOTH",
"894 894 LINE SMOOTH",
"894 1208 OFFCURVE",
"748 1352 OFFCURVE",
"500 1414 CURVE",
"474 1322 LINE",
"680 1264 OFFCURVE",
"782 1124 OFFCURVE",
"782 912 CURVE SMOOTH",
"782 902 LINE",
"720 978 OFFCURVE",
"634 1018 OFFCURVE",
"510 1018 CURVE SMOOTH",
"308 1018 OFFCURVE",
"156 910 OFFCURVE",
"156 684 CURVE SMOOTH",
"156 368 LINE SMOOTH",
"156 146 OFFCURVE",
"282 -20 OFFCURVE",
"528 -20 CURVE SMOOTH"
);
},
{
closed = 1;
nodes = (
"396 78 OFFCURVE",
"266 168 OFFCURVE",
"266 348 CURVE SMOOTH",
"266 678 LINE SMOOTH",
"266 820 OFFCURVE",
"350 918 OFFCURVE",
"512 918 CURVE SMOOTH",
"630 918 OFFCURVE",
"716 868 OFFCURVE",
"782 766 CURVE",
"782 348 LINE SMOOTH",
"782 168 OFFCURVE",
"654 78 OFFCURVE",
"526 78 CURVE SMOOTH"
);
},
{
closed = 1;
nodes = (
"936 1242 LINE",
"902 1332 LINE",
"462 1172 LINE",
"496 1082 LINE"
);
}
);
width = 1002;
},
{
layerId = "8A94633D-DA21-409C-A8B7-00A83612E8B2";
paths = (
{
closed = 1;
nodes = (
"774 -20 OFFCURVE",
"894 144 OFFCURVE",
"894 368 CURVE SMOOTH",
"894 932 LINE SMOOTH",
"894 1232 OFFCURVE",
"750 1350 OFFCURVE",
"514 1434 CURVE",
"460 1284 LINE",
"606 1230 OFFCURVE",
"676 1148 OFFCURVE",
"676 962 CURVE SMOOTH",
"676 952 LINE",
"622 992 OFFCURVE",
"570 1020 OFFCURVE",
"478 1020 CURVE SMOOTH",
"310 1020 OFFCURVE",
"156 920 OFFCURVE",
"156 692 CURVE SMOOTH",
"156 368 LINE SMOOTH",
"156 146 OFFCURVE",
"282 -20 OFFCURVE",
"528 -20 CURVE SMOOTH"
);
},
{
closed = 1;
nodes = (
"426 196 OFFCURVE",
"374 246 OFFCURVE",
"374 348 CURVE SMOOTH",
"374 612 LINE SMOOTH",
"374 722 OFFCURVE",
"416 796 OFFCURVE",
"526 796 CURVE SMOOTH",
"594 796 OFFCURVE",
"644 768 OFFCURVE",
"676 704 CURVE",
"676 348 LINE SMOOTH",
"676 246 OFFCURVE",
"614 196 OFFCURVE",
"528 196 CURVE SMOOTH"
);
},
{
closed = 1;
nodes = (
"918 1216 LINE",
"876 1332 LINE",
"436 1172 LINE",
"478 1056 LINE"
);
}
);
width = 996;
}
);
leftMetricsKey = d;
rightMetricsKey = d;
unicode = 00F0;
},
{
glyphname = e;
lastChange = "2019-02-12 03:57:44 +0000";
layers = (
{
anchors = (
{
name = bottom;
position = "{434, 0}";
},
{
name = ogonek;
position = "{538, 0}";
},
{
name = top;
position = "{434, 1002}";
}
);
layerId = "BADA37E3-C95E-4946-BA48-1F986F6D85A7";
paths = (
{
closed = 1;
nodes = (
"530 -24 OFFCURVE",
"638 8 OFFCURVE",
"740 70 CURVE",
"696 156 LINE",
"594 102 OFFCURVE",
"496 74 OFFCURVE",
"404 74 CURVE SMOOTH",
"272 74 OFFCURVE",
"182 134 OFFCURVE",
"182 268 CURVE SMOOTH",
"182 390 LINE",
"790 424 LINE",
"790 684 LINE SMOOTH",
"790 894 OFFCURVE",
"660 1020 OFFCURVE",
"438 1020 CURVE SMOOTH",
"216 1020 OFFCURVE",
"70 894 OFFCURVE",
"70 678 CURVE SMOOTH",
"70 268 LINE SMOOTH",
"70 74 OFFCURVE",
"186 -24 OFFCURVE",
"408 -24 CURVE SMOOTH"
);
},
{
closed = 1;
nodes = (
"182 676 LINE SMOOTH",
"182 846 OFFCURVE",
"290 924 OFFCURVE",
"436 924 CURVE SMOOTH",
"588 924 OFFCURVE",
"678 836 OFFCURVE",
"678 698 CURVE SMOOTH",
"678 524 LINE",
"182 500 LINE"
);
}
);
width = 868;
},
{
anchors = (
{
name = bottom;
position = "{434, 0}";
},
{
name = ogonek;
position = "{508, 0}";
},
{
name = top;
position = "{438, 1002}";
}
);
layerId = "77B00D75-0619-4FB7-8D17-EB9FCD2DF18B";
paths = (
{
closed = 1;
nodes = (
"530 -24 OFFCURVE",
"637 7 OFFCURVE",
"740 70 CURVE",
"722 100 LINE",
"608 36 OFFCURVE",
"499 8 OFFCURVE",
"404 8 CURVE SMOOTH",
"242 8 OFFCURVE",
"108 88 OFFCURVE",
"108 264 CURVE SMOOTH",
"108 460 LINE",
"790 494 LINE",
"790 684 LINE SMOOTH",
"790 895 OFFCURVE",
"659 1020 OFFCURVE",
"438 1020 CURVE SMOOTH",
"217 1020 OFFCURVE",
"70 894 OFFCURVE",
"70 678 CURVE SMOOTH",
"70 268 LINE SMOOTH",
"70 73 OFFCURVE",
"186 -24 OFFCURVE",
"406 -24 CURVE SMOOTH"
);
},
{
closed = 1;
nodes = (
"108 680 LINE SMOOTH",
"108 888 OFFCURVE",
"258 982 OFFCURVE",
"434 982 CURVE SMOOTH",
"610 982 OFFCURVE",
"752 897 OFFCURVE",
"752 686 CURVE SMOOTH",
"752 532 LINE",
"108 496 LINE"
);
}
);
width = 868;
},
{
anchors = (
{
name = bottom;
position = "{434, 0}";
},
{
name = ogonek;
position = "{546, 0}";
},
{
name = top;
position = "{434, 1002}";
}
);
layerId = "8A94633D-DA21-409C-A8B7-00A83612E8B2";
paths = (
{
closed = 1;
nodes = (
"531 -21 OFFCURVE",
"641 10 OFFCURVE",
"740 70 CURVE",
"660 260 LINE",
"555 207 OFFCURVE",
"472 180 OFFCURVE",
"412 180 CURVE SMOOTH",
"334 180 OFFCURVE",
"292 220 OFFCURVE",
"292 298 CURVE SMOOTH",
"292 354 LINE",
"790 380 LINE",
"790 684 LINE SMOOTH",
"790 895 OFFCURVE",
"659 1020 OFFCURVE",
"438 1020 CURVE SMOOTH",
"217 1020 OFFCURVE",
"70 894 OFFCURVE",
"70 678 CURVE SMOOTH",
"70 268 LINE SMOOTH",
"70 64 OFFCURVE",
"198 -24 OFFCURVE",
"410 -24 CURVE SMOOTH"
);
},
{
closed = 1;
nodes = (
"292 676 LINE SMOOTH",
"292 740 OFFCURVE",
"336 804 OFFCURVE",
"434 804 CURVE SMOOTH",
"511 804 OFFCURVE",
"568 760 OFFCURVE",
"568 680 CURVE SMOOTH",
"568 574 LINE",
"292 556 LINE"
);
}
);
width = 868;
}
);
leftKerningGroup = o;
rightKerningGroup = e;
unicode = 0065;
},
{
glyphname = f;
lastChange = "2019-02-12 03:57:44 +0000";
layers = (
{
anchors = (
{
name = bottom;
position = "{212, 0}";
},
{
name = top;
position = "{334, 1388}";
}
);
background = {
paths = (
{
closed = 1;
nodes = (
"268 0 LINE",
"268 896 LINE",
"448 896 LINE",
"496 1002 LINE",
"268 1002 LINE",
"268 1098 LINE SMOOTH",
"268 1246 OFFCURVE",
"330 1320 OFFCURVE",
"454 1320 CURVE SMOOTH",
"470 1320 OFFCURVE",
"487 1319 OFFCURVE",
"504 1316 CURVE",
"522 1414 LINE",
"499 1419 OFFCURVE",
"476 1422 OFFCURVE",
"452 1422 CURVE SMOOTH",
"392 1422 OFFCURVE",
"333 1405 OFFCURVE",
"276 1372 CURVE SMOOTH",
"207 1332 OFFCURVE",
"156 1231 OFFCURVE",
"156 1098 CURVE SMOOTH",
"156 0 LINE"
);
}
);
};
layerId = "BADA37E3-C95E-4946-BA48-1F986F6D85A7";
paths = (
{
closed = 1;
nodes = (
"268 0 LINE",
"268 896 LINE",
"448 896 LINE",
"496 1002 LINE",
"268 1002 LINE",
"268 1098 LINE SMOOTH",
"268 1246 OFFCURVE",
"330 1320 OFFCURVE",
"454 1320 CURVE SMOOTH",
"470 1320 OFFCURVE",
"487 1319 OFFCURVE",
"504 1316 CURVE",
"522 1414 LINE",
"496 1420 OFFCURVE",
"474 1422 OFFCURVE",
"452 1422 CURVE SMOOTH",
"288 1422 OFFCURVE",
"156 1322 OFFCURVE",
"156 1098 CURVE SMOOTH",
"156 0 LINE"
);
}
);
width = 588;
},
{
anchors = (
{
name = bottom;
position = "{176, 0}";
},
{
name = top;
position = "{342, 1388}";
}
);
background = {
paths = (
{
closed = 1;
nodes = (
"194 0 LINE",
"194 964 LINE",
"480 964 LINE",
"496 1002 LINE",
"194 1002 LINE",
"194 1098 LINE SMOOTH",
"194 1205 OFFCURVE",
"225 1281 OFFCURVE",
"288 1328 CURVE SMOOTH",
"337 1365 OFFCURVE",
"395 1384 OFFCURVE",
"462 1384 CURVE SMOOTH",
"479 1384 OFFCURVE",
"497 1383 OFFCURVE",
"516 1380 CURVE",
"522 1414 LINE",
"499 1419 OFFCURVE",
"476 1422 OFFCURVE",
"452 1422 CURVE SMOOTH",
"392 1422 OFFCURVE",
"333 1405 OFFCURVE",
"276 1372 CURVE SMOOTH",
"207 1332 OFFCURVE",
"156 1231 OFFCURVE",
"156 1098 CURVE SMOOTH",
"156 0 LINE"
);
}
);
};
layerId = "77B00D75-0619-4FB7-8D17-EB9FCD2DF18B";
paths = (
{
closed = 1;
nodes = (
"194 0 LINE",
"194 964 LINE",
"480 964 LINE",
"496 1002 LINE",
"194 1002 LINE",
"194 1098 LINE SMOOTH",
"194 1286 OFFCURVE",
"304 1384 OFFCURVE",
"460 1384 CURVE SMOOTH",
"482 1384 OFFCURVE",
"500 1382 OFFCURVE",
"516 1380 CURVE",
"522 1414 LINE",
"499 1419 OFFCURVE",
"476 1422 OFFCURVE",
"452 1422 CURVE SMOOTH",
"294 1422 OFFCURVE",
"156 1322 OFFCURVE",
"156 1098 CURVE SMOOTH",
"156 0 LINE"
);
}
);
width = 600;
},
{
anchors = (
{
name = bottom;
position = "{268, 0}";
},
{
name = top;
position = "{390, 1388}";
}
);
background = {
paths = (
{
closed = 1;
nodes = (
"380 0 LINE",
"380 796 LINE",
"506 796 LINE",
"554 1002 LINE",
"380 1002 LINE",
"380 1098 LINE SMOOTH",
"380 1143 OFFCURVE",
"391 1177 OFFCURVE",
"412 1198 CURVE",
"431 1215 OFFCURVE",
"450 1224 OFFCURVE",
"470 1224 CURVE SMOOTH",
"474 1224 OFFCURVE",
"477 1224 OFFCURVE",
"480 1224 CURVE",
"504 1220 OFFCURVE",
"523 1217 OFFCURVE",
"536 1214 CURVE",
"572 1414 LINE",
"537 1418 OFFCURVE",
"501 1421 OFFCURVE",
"464 1424 CURVE",
"460 1424 OFFCURVE",
"455 1424 OFFCURVE",
"450 1424 CURVE SMOOTH",
"418 1424 OFFCURVE",
"386 1419 OFFCURVE",
"354 1408 CURVE SMOOTH",
"261 1375 OFFCURVE",
"156 1240 OFFCURVE",
"156 1098 CURVE SMOOTH",
"156 0 LINE"
);
}
);
};
layerId = "8A94633D-DA21-409C-A8B7-00A83612E8B2";
paths = (
{
closed = 1;
nodes = (
"380 0 LINE",
"380 796 LINE",
"506 796 LINE",
"554 1002 LINE",
"380 1002 LINE",
"380 1098 LINE SMOOTH",
"380 1174 OFFCURVE",
"422 1224 OFFCURVE",
"482 1224 CURVE SMOOTH",
"500 1224 OFFCURVE",
"518 1220 OFFCURVE",
"536 1214 CURVE",
"572 1406 LINE",
"540 1416 OFFCURVE",
"500 1424 OFFCURVE",
"460 1424 CURVE SMOOTH",
"300 1424 OFFCURVE",
"156 1292 OFFCURVE",
"156 1098 CURVE SMOOTH",
"156 0 LINE"
);
}
);
width = 650;
}
);
leftKerningGroup = f;
rightKerningGroup = f;
unicode = 0066;
},
{
glyphname = g;
lastChange = "2019-02-12 03:57:44 +0000";
layers = (
{
anchors = (
{
name = bottom;
position = "{466, -464}";
},
{
name = top;
position = "{450, 1002}";
}
);
layerId = "BADA37E3-C95E-4946-BA48-1F986F6D85A7";
paths = (
{
closed = 1;
nodes = (
"766 -372 OFFCURVE",
"828 -288 OFFCURVE",
"828 -128 CURVE SMOOTH",
"828 1002 LINE",
"716 1002 LINE",
"724 886 LINE",
"666 978 OFFCURVE",
"556 1020 OFFCURVE",
"444 1020 CURVE SMOOTH",
"232 1020 OFFCURVE",
"74 890 OFFCURVE",
"74 650 CURVE SMOOTH",
"74 352 LINE SMOOTH",
"74 107 OFFCURVE",
"210 -24 OFFCURVE",
"451 -24 CURVE SMOOTH",
"572 -24 OFFCURVE",
"660 25 OFFCURVE",
"716 122 CURVE",
"716 -126 LINE SMOOTH",
"716 -231 OFFCURVE",
"672 -301 OFFCURVE",
"584 -334 CURVE",
"614 -420 LINE"
);
},
{
closed = 1;
nodes = (
"316 78 OFFCURVE",
"186 164 OFFCURVE",
"186 334 CURVE SMOOTH",
"186 640 LINE SMOOTH",
"186 828 OFFCURVE",
"324 922 OFFCURVE",
"460 922 CURVE SMOOTH",
"590 922 OFFCURVE",
"716 838 OFFCURVE",
"716 672 CURVE SMOOTH",
"716 346 LINE SMOOTH",
"716 166 OFFCURVE",
"580 78 OFFCURVE",
"448 78 CURVE SMOOTH"
);
}
);
width = 896;
},
{
anchors = (
{
name = bottom;
position = "{448, -464}";
},
{
name = top;
position = "{454, 1002}";
}
);
layerId = "77B00D75-0619-4FB7-8D17-EB9FCD2DF18B";
paths = (
{
closed = 1;
nodes = (
"766 -372 OFFCURVE",
"828 -288 OFFCURVE",
"828 -128 CURVE SMOOTH",
"828 1002 LINE",
"790 1002 LINE",
"790 874 LINE",
"721 971 OFFCURVE",
"611 1020 OFFCURVE",
"460 1020 CURVE SMOOTH",
"228 1020 OFFCURVE",
"74 885 OFFCURVE",
"74 650 CURVE SMOOTH",
"74 352 LINE SMOOTH",
"74 107 OFFCURVE",
"211 -24 OFFCURVE",
"446 -24 CURVE SMOOTH",
"598 -24 OFFCURVE",
"713 34 OFFCURVE",
"790 150 CURVE",
"790 -126 LINE SMOOTH",
"790 -284 OFFCURVE",
"734 -332 OFFCURVE",
"602 -384 CURVE",
"614 -420 LINE"
);
},
{
closed = 1;
nodes = (
"227 12 OFFCURVE",
"112 142 OFFCURVE",
"112 334 CURVE SMOOTH",
"112 640 LINE SMOOTH",
"112 858 OFFCURVE",
"250 982 OFFCURVE",
"460 982 CURVE SMOOTH",
"631 982 OFFCURVE",
"741 919 OFFCURVE",
"790 794 CURVE",
"790 320 LINE SMOOTH",
"790 140 OFFCURVE",
"650 12 OFFCURVE",
"446 12 CURVE SMOOTH"
);
}
);
width = 896;
},
{
anchors = (
{
name = bottom;
position = "{448, -464}";
},
{
name = top;
position = "{454, 1020}";
}
);
layerId = "8A94633D-DA21-409C-A8B7-00A83612E8B2";
paths = (
{
closed = 1;
nodes = (
"723 -420 OFFCURVE",
"828 -323 OFFCURVE",
"828 -128 CURVE SMOOTH",
"828 1002 LINE",
"652 1002 LINE",
"610 980 LINE",
"594 999 OFFCURVE",
"529 1020 OFFCURVE",
"454 1020 CURVE SMOOTH",
"222 1020 OFFCURVE",
"74 885 OFFCURVE",
"74 650 CURVE SMOOTH",
"74 352 LINE SMOOTH",
"74 107 OFFCURVE",
"211 -24 OFFCURVE",
"446 -24 CURVE SMOOTH",
"518 -24 OFFCURVE",
"572 -11 OFFCURVE",
"608 16 CURVE",
"608 -92 LINE SMOOTH",
"608 -196 OFFCURVE",
"553 -248 OFFCURVE",
"462 -248 CURVE",
"514 -420 LINE"
);
},
{
closed = 1;
nodes = (
"345 188 OFFCURVE",
"294 253 OFFCURVE",
"294 382 CURVE SMOOTH",
"294 640 LINE SMOOTH",
"294 731 OFFCURVE",
"337 802 OFFCURVE",
"446 802 CURVE SMOOTH",
"554 802 OFFCURVE",
"608 745 OFFCURVE",
"608 630 CURVE SMOOTH",
"608 462 LINE SMOOTH",
"608 267 OFFCURVE",
"577 188 OFFCURVE",
"446 188 CURVE SMOOTH"
);
}
);
width = 896;
}
);
leftKerningGroup = o;
rightKerningGroup = q;
unicode = 0067;
},
{
glyphname = h;
lastChange = "2019-02-12 03:57:44 +0000";
layers = (
{
anchors = (
{
name = bottom;
position = "{494, 0}";
},
{
name = center;
position = "{238, 1180}";
},
{
name = top;
position = "{184, 1388}";
}
);
layerId = "BADA37E3-C95E-4946-BA48-1F986F6D85A7";
paths = (
{
closed = 1;
nodes = (
"240 0 LINE",
"240 850 LINE",
"321 895 OFFCURVE",
"407 918 OFFCURVE",
"497 918 CURVE SMOOTH",
"656 918 OFFCURVE",
"756 844 OFFCURVE",
"756 686 CURVE SMOOTH",
"756 0 LINE",
"866 0 LINE",
"866 692 LINE SMOOTH",
"866 928 OFFCURVE",
"698 1020 OFFCURVE",
"510 1020 CURVE SMOOTH",
"397 1020 OFFCURVE",
"307 996 OFFCURVE",
"240 948 CURVE",
"240 1400 LINE",
"128 1400 LINE",
"128 0 LINE"
);
}
);
width = 986;
},
{
anchors = (
{
name = bottom;
position = "{494, 0}";
},
{
name = center;
position = "{238, 1216}";
},
{
name = top;
position = "{148, 1388}";
}
);
background = {
paths = (
{
closed = 1;
nodes = (
"166 0 LINE",
"166 908 LINE",
"261 957 OFFCURVE",
"369 982 OFFCURVE",
"490 982 CURVE SMOOTH",
"521 982 OFFCURVE",
"551 980 OFFCURVE",
"582 976 CURVE SMOOTH",
"721 957 OFFCURVE",
"828 857 OFFCURVE",
"828 694 CURVE SMOOTH",
"828 0 LINE",
"866 0 LINE",
"866 692 LINE SMOOTH",
"866 831 OFFCURVE",
"809 926 OFFCURVE",
"696 978 CURVE",
"641 1006 OFFCURVE",
"562 1020 OFFCURVE",
"458 1020 CURVE SMOOTH",
"354 1020 OFFCURVE",
"257 997 OFFCURVE",
"166 950 CURVE",
"166 1400 LINE",
"128 1400 LINE",
"128 0 LINE"
);
}
);
};
layerId = "77B00D75-0619-4FB7-8D17-EB9FCD2DF18B";
paths = (
{
closed = 1;
nodes = (
"166 0 LINE",
"166 908 LINE",
"260 958 OFFCURVE",
"368 982 OFFCURVE",
"476 982 CURVE SMOOTH",
"654 982 OFFCURVE",
"828 916 OFFCURVE",
"828 694 CURVE SMOOTH",
"828 0 LINE",
"866 0 LINE",
"866 692 LINE SMOOTH",
"866 940 OFFCURVE",
"686 1020 OFFCURVE",
"476 1020 CURVE SMOOTH",
"356 1020 OFFCURVE",
"258 996 OFFCURVE",
"166 950 CURVE",
"166 1400 LINE",
"128 1400 LINE",
"128 0 LINE"
);
}
);
width = 986;
},
{
anchors = (
{
name = bottom;
position = "{494, 0}";
},
{
name = center;
position = "{260, 1188}";
},
{
name = top;
position = "{238, 1388}";
}
);
layerId = "8A94633D-DA21-409C-A8B7-00A83612E8B2";
paths = (
{
closed = 1;
nodes = (
"348 0 LINE",
"348 778 LINE",
"384 802 OFFCURVE",
"444 812 OFFCURVE",
"486 812 CURVE SMOOTH",
"600 812 OFFCURVE",
"646 736 OFFCURVE",
"646 614 CURVE SMOOTH",
"646 0 LINE",
"866 0 LINE",
"866 692 LINE SMOOTH",
"866 902 OFFCURVE",
"730 1020 OFFCURVE",
"496 1020 CURVE SMOOTH",
"435 1019 OFFCURVE",
"385 1010 OFFCURVE",
"348 994 CURVE",
"348 1400 LINE",
"128 1400 LINE",
"128 0 LINE"
);
}
);
width = 986;
}
);
leftKerningGroup = l;
rightKerningGroup = n;
unicode = 0068;
},
{
glyphname = i;
lastChange = "2019-02-12 03:57:44 +0000";
layers = (
{
anchors = (
{
name = bottom;
position = "{222, 0}";
},
{
name = ogonek;
position = "{278, 0}";
}
);
layerId = "BADA37E3-C95E-4946-BA48-1F986F6D85A7";
paths = (
{
closed = 1;
nodes = (
"278 0 LINE",
"278 1002 LINE",
"166 1002 LINE",
"166 0 LINE"
);
},
{
closed = 1;
nodes = (
"258 1288 OFFCURVE",
"290 1308 OFFCURVE",
"290 1352 CURVE SMOOTH",
"290 1396 OFFCURVE",
"258 1418 OFFCURVE",
"224 1418 CURVE SMOOTH",
"190 1418 OFFCURVE",
"156 1398 OFFCURVE",
"156 1354 CURVE SMOOTH",
"156 1310 OFFCURVE",
"190 1288 OFFCURVE",
"224 1288 CURVE SMOOTH"
);
}
);
width = 450;
},
{
anchors = (
{
name = bottom;
position = "{184, 0}";
},
{
name = ogonek;
position = "{202, 0}";
}
);
layerId = "77B00D75-0619-4FB7-8D17-EB9FCD2DF18B";
paths = (
{
closed = 1;
nodes = (
"202 0 LINE",
"202 1002 LINE",
"164 1002 LINE",
"164 0 LINE"
);
},
{
closed = 1;
nodes = (
"196 1366 OFFCURVE",
"210 1374 OFFCURVE",
"210 1392 CURVE SMOOTH",
"210 1410 OFFCURVE",
"198 1420 OFFCURVE",
"184 1420 CURVE SMOOTH",
"170 1420 OFFCURVE",
"156 1412 OFFCURVE",
"156 1394 CURVE SMOOTH",
"156 1376 OFFCURVE",
"168 1366 OFFCURVE",
"182 1366 CURVE SMOOTH"
);
}
);
width = 370;
},
{
anchors = (
{
name = bottom;
position = "{270, 0}";
},
{
name = ogonek;
position = "{380, 0}";
}
);
layerId = "8A94633D-DA21-409C-A8B7-00A83612E8B2";
paths = (
{
closed = 1;
nodes = (
"380 0 LINE",
"380 1002 LINE",
"160 1002 LINE",
"160 0 LINE"
);
},
{
closed = 1;
nodes = (
"338 1184 OFFCURVE",
"392 1236 OFFCURVE",
"392 1302 CURVE SMOOTH",
"392 1368 OFFCURVE",
"338 1420 OFFCURVE",
"274 1420 CURVE SMOOTH",
"210 1420 OFFCURVE",
"156 1368 OFFCURVE",
"156 1302 CURVE SMOOTH",
"156 1236 OFFCURVE",
"210 1184 OFFCURVE",
"274 1184 CURVE SMOOTH"
);
}
);
width = 552;
}
);
leftKerningGroup = i;
rightKerningGroup = i;
unicode = 0069;
},
{
glyphname = idotless;
lastChange = "2019-02-12 03:57:44 +0000";
layers = (
{
anchors = (
{
name = bottom;
position = "{212, 0}";
},
{
name = ogonek;
position = "{268, 0}";
},
{
name = top;
position = "{212, 1002}";
}
);
layerId = "BADA37E3-C95E-4946-BA48-1F986F6D85A7";
paths = (
{
closed = 1;
nodes = (
"268 0 LINE",
"268 1002 LINE",
"156 1002 LINE",
"156 0 LINE"
);
}
);
width = 428;
},
{
anchors = (
{
name = bottom;
position = "{176, 0}";
},
{
name = ogonek;
position = "{194, 0}";
},
{
name = top;
position = "{176, 1002}";
}
);
layerId = "77B00D75-0619-4FB7-8D17-EB9FCD2DF18B";
paths = (
{
closed = 1;
nodes = (
"194 0 LINE",
"194 1002 LINE",
"156 1002 LINE",
"156 0 LINE"
);
}
);
width = 354;
},
{
anchors = (
{
name = bottom;
position = "{266, 0}";
},
{
name = ogonek;
position = "{376, 0}";
},
{
name = top;
position = "{266, 1002}";
}
);
layerId = "8A94633D-DA21-409C-A8B7-00A83612E8B2";
paths = (
{
closed = 1;
nodes = (
"376 0 LINE",
"376 1002 LINE",
"156 1002 LINE",
"156 0 LINE"
);
}
);
width = 536;
}
);
leftMetricsKey = i;
rightMetricsKey = i;
unicode = 0131;
},
{
glyphname = j;
lastChange = "2019-02-12 03:57:44 +0000";
layers = (
{
layerId = "BADA37E3-C95E-4946-BA48-1F986F6D85A7";
paths = (
{
closed = 1;
nodes = (
"144 -418 OFFCURVE",
"248 -306 OFFCURVE",
"248 -122 CURVE SMOOTH",
"248 1002 LINE",
"0 1002 LINE",
"46 898 LINE",
"136 892 LINE",
"136 -112 LINE SMOOTH",
"136 -226 OFFCURVE",
"70 -332 OFFCURVE",
"-14 -332 CURVE",
"0 -418 LINE"
);
},
{
closed = 1;
nodes = (
"230 1286 OFFCURVE",
"260 1318 OFFCURVE",
"260 1352 CURVE SMOOTH",
"260 1388 OFFCURVE",
"228 1420 OFFCURVE",
"192 1420 CURVE SMOOTH",
"156 1420 OFFCURVE",
"126 1388 OFFCURVE",
"126 1354 CURVE SMOOTH",
"126 1318 OFFCURVE",
"158 1286 OFFCURVE",
"194 1286 CURVE SMOOTH"
);
}
);
width = 386;
},
{
layerId = "77B00D75-0619-4FB7-8D17-EB9FCD2DF18B";
paths = (
{
closed = 1;
nodes = (
"140 -397 OFFCURVE",
"210 -313 OFFCURVE",
"210 -166 CURVE SMOOTH",
"210 1002 LINE",
"0 1002 LINE",
"22 964 LINE",
"172 964 LINE",
"172 -164 LINE SMOOTH",
"172 -296 OFFCURVE",
"84 -382 OFFCURVE",
"-6 -382 CURVE",
"0 -418 LINE"
);
},
{
closed = 1;
nodes = (
"206 1366 OFFCURVE",
"218 1374 OFFCURVE",
"218 1392 CURVE SMOOTH",
"218 1414 OFFCURVE",
"206 1420 OFFCURVE",
"192 1420 CURVE SMOOTH",
"176 1420 OFFCURVE",
"164 1414 OFFCURVE",
"164 1394 CURVE SMOOTH",
"164 1374 OFFCURVE",
"176 1366 OFFCURVE",
"190 1366 CURVE SMOOTH"
);
}
);
width = 392;
},
{
layerId = "8A94633D-DA21-409C-A8B7-00A83612E8B2";
paths = (
{
closed = 1;
nodes = (
"211 -418 OFFCURVE",
"364 -292 OFFCURVE",
"364 -68 CURVE SMOOTH",
"364 1002 LINE",
"-2 1002 LINE",
"42 818 LINE",
"144 798 LINE",
"144 -70 LINE SMOOTH",
"144 -176 OFFCURVE",
"88 -234 OFFCURVE",
"2 -248 CURVE",
"62 -418 LINE"
);
},
{
closed = 1;
nodes = (
"322 1184 OFFCURVE",
"376 1244 OFFCURVE",
"376 1302 CURVE SMOOTH",
"376 1366 OFFCURVE",
"318 1422 OFFCURVE",
"256 1422 CURVE SMOOTH",
"202 1422 OFFCURVE",
"138 1372 OFFCURVE",
"138 1306 CURVE SMOOTH",
"138 1244 OFFCURVE",
"196 1184 OFFCURVE",
"260 1184 CURVE SMOOTH"
);
}
);
width = 472;
}
);
leftKerningGroup = j;
rightKerningGroup = j;
unicode = 006A;
},
{
glyphname = jdotless;
lastChange = "2019-02-12 03:57:44 +0000";
layers = (
{
anchors = (
{
name = bottom;
position = "{132, -464}";
},
{
name = top;
position = "{192, 1002}";
}
);
layerId = "BADA37E3-C95E-4946-BA48-1F986F6D85A7";
paths = (
{
closed = 1;
nodes = (
"144 -418 OFFCURVE",
"248 -298 OFFCURVE",
"248 -126 CURVE SMOOTH",
"248 1002 LINE",
"0 1002 LINE",
"46 898 LINE",
"136 892 LINE",
"136 -120 LINE SMOOTH",
"136 -228 OFFCURVE",
"84 -308 OFFCURVE",
"-14 -332 CURVE",
"0 -418 LINE"
);
}
);
width = 374;
},
{
anchors = (
{
name = bottom;
position = "{134, -464}";
},
{
name = top;
position = "{192, 1002}";
}
);
layerId = "77B00D75-0619-4FB7-8D17-EB9FCD2DF18B";
paths = (
{
closed = 1;
nodes = (
"140 -396 OFFCURVE",
"210 -312 OFFCURVE",
"210 -166 CURVE SMOOTH",
"210 1002 LINE",
"0 1002 LINE",
"22 964 LINE",
"172 964 LINE",
"172 -164 LINE SMOOTH",
"172 -296 OFFCURVE",
"84 -382 OFFCURVE",
"-6 -382 CURVE",
"0 -418 LINE"
);
}
);
width = 384;
},
{
anchors = (
{
name = bottom;
position = "{208, -464}";
},
{
name = top;
position = "{254, 1002}";
}
);
layerId = "8A94633D-DA21-409C-A8B7-00A83612E8B2";
paths = (
{
closed = 1;
nodes = (
"212 -418 OFFCURVE",
"364 -300 OFFCURVE",
"364 -102 CURVE SMOOTH",
"364 1002 LINE",
"-2 1002 LINE",
"42 818 LINE",
"144 798 LINE",
"144 -70 LINE SMOOTH",
"144 -166 OFFCURVE",
"96 -232 OFFCURVE",
"2 -248 CURVE",
"62 -418 LINE"
);
}
);
width = 460;
}
);
leftMetricsKey = j;
rightMetricsKey = j;
unicode = 0237;
},
{
glyphname = k;
lastChange = "2019-02-12 03:57:44 +0000";
layers = (
{
anchors = (
{
name = bottom;
position = "{458, 0}";
},
{
name = top;
position = "{190, 1388}";
}
);
layerId = "BADA37E3-C95E-4946-BA48-1F986F6D85A7";
paths = (
{
closed = 1;
nodes = (
"246 0 LINE",
"246 544 LINE",
"350 634 LINE",
"734 0 LINE",
"868 0 LINE",
"430 704 LINE",
"726 962 LINE",
"646 1040 LINE",
"246 670 LINE",
"246 1400 LINE",
"134 1400 LINE",
"134 0 LINE"
);
}
);
width = 868;
},
{
anchors = (
{
name = bottom;
position = "{462, 0}";
},
{
name = top;
position = "{154, 1388}";
}
);
layerId = "77B00D75-0619-4FB7-8D17-EB9FCD2DF18B";
paths = (
{
closed = 1;
nodes = (
"172 0 LINE",
"172 554 LINE",
"370 732 LINE",
"822 0 LINE",
"868 0 LINE",
"398 760 LINE",
"674 1014 LINE",
"646 1040 LINE",
"172 602 LINE",
"172 1400 LINE",
"134 1400 LINE",
"134 0 LINE"
);
}
);
width = 876;
},
{
anchors = (
{
name = bottom;
position = "{488, 0}";
},
{
name = top;
position = "{238, 1388}";
}
);
layerId = "8A94633D-DA21-409C-A8B7-00A83612E8B2";
paths = (
{
closed = 1;
nodes = (
"348 0 LINE",
"348 480 LINE",
"376 508 LINE",
"676 0 LINE",
"952 0 LINE",
"546 664 LINE",
"808 886 LINE",
"646 1040 LINE",
"348 764 LINE",
"348 1400 LINE",
"128 1400 LINE",
"128 0 LINE"
);
}
);
width = 948;
}
);
leftKerningGroup = l;
rightKerningGroup = k;
unicode = 006B;
},
{
glyphname = kgreenlandic;
lastChange = "2019-02-12 03:57:44 +0000";
layers = (
{
layerId = "BADA37E3-C95E-4946-BA48-1F986F6D85A7";
paths = (
{
closed = 1;
nodes = (
"892 94 LINE",
"839 97 OFFCURVE",
"778 143 OFFCURVE",
"710 234 CURVE SMOOTH",
"456 592 LINE",
"832 1002 LINE",
"684 1002 LINE",
"268 548 LINE",
"268 1002 LINE",
"156 1002 LINE",
"156 0 LINE",
"268 0 LINE",
"268 396 LINE",
"378 508 LINE",
"588 220 LINE SMOOTH",
"669 109 OFFCURVE",
"767 -2 OFFCURVE",
"896 -2 CURVE"
);
}
);
width = 962;
},
{
layerId = "77B00D75-0619-4FB7-8D17-EB9FCD2DF18B";
paths = (
{
closed = 1;
nodes = (
"894 38 LINE",
"833 38 OFFCURVE",
"755 101 OFFCURVE",
"662 226 CURVE SMOOTH",
"408 584 LINE",
"792 1002 LINE",
"738 1002 LINE",
"194 410 LINE",
"194 1014 LINE",
"156 1024 LINE",
"156 0 LINE",
"194 0 LINE",
"194 358 LINE",
"382 556 LINE",
"640 196 LINE SMOOTH",
"735 64 OFFCURVE",
"819 -2 OFFCURVE",
"894 -2 CURVE"
);
}
);
width = 972;
},
{
layerId = "8A94633D-DA21-409C-A8B7-00A83612E8B2";
paths = (
{
closed = 1;
nodes = (
"962 192 LINE",
"909 195 OFFCURVE",
"865 219 OFFCURVE",
"790 320 CURVE SMOOTH",
"592 600 LINE",
"956 1002 LINE",
"684 1002 LINE",
"376 666 LINE",
"376 1002 LINE",
"156 1002 LINE",
"156 0 LINE",
"376 0 LINE",
"376 390 LINE",
"430 438 LINE",
"588 220 LINE SMOOTH",
"669 109 OFFCURVE",
"767 -2 OFFCURVE",
"896 -2 CURVE"
);
}
);
width = 1040;
}
);
unicode = 0138;
},
{
glyphname = l;
lastChange = "2019-02-12 03:57:44 +0000";
layers = (
{
anchors = (
{
name = bottom;
position = "{212, 0}";
},
{
name = center;
position = "{214, 798}";
},
{
name = top;
position = "{212, 1388}";
},
{
name = topright;
position = "{396, 1388}";
}
);
layerId = "BADA37E3-C95E-4946-BA48-1F986F6D85A7";
paths = (
{
closed = 1;
nodes = (
"268 0 LINE",
"268 1400 LINE",
"156 1400 LINE",
"156 0 LINE"
);
}
);
width = 428;
},
{
anchors = (
{
name = bottom;
position = "{176, 0}";
},
{
name = center;
position = "{176, 830}";
},
{
name = top;
position = "{176, 1388}";
},
{
name = topright;
position = "{320, 1388}";
}
);
layerId = "77B00D75-0619-4FB7-8D17-EB9FCD2DF18B";
paths = (
{
closed = 1;
nodes = (
"194 0 LINE",
"194 1400 LINE",
"156 1400 LINE",
"156 0 LINE"
);
}
);
width = 354;
},
{
anchors = (
{
name = bottom;
position = "{266, 0}";
},
{
name = center;
position = "{266, 768}";
},
{
name = top;
position = "{266, 1388}";
},
{
name = topright;
position = "{554, 1388}";
}
);
layerId = "8A94633D-DA21-409C-A8B7-00A83612E8B2";
paths = (
{
closed = 1;
nodes = (
"376 0 LINE",
"376 1400 LINE",
"156 1400 LINE",
"156 0 LINE"
);
}
);
width = 536;
}
);
leftKerningGroup = l;
rightKerningGroup = l;
unicode = 006C;
},
{
glyphname = m;
lastChange = "2019-02-12 03:57:44 +0000";
layers = (
{
anchors = (
{
name = bottom;
position = "{800, 0}";
},
{
name = top;
position = "{786, 1002}";
}
);
background = {
paths = (
{
closed = 1;
nodes = (
"268 0 LINE",
"268 850 LINE",
"388 916 OFFCURVE",
"634 916 OFFCURVE",
"694 848 QCURVE",
"744 790 OFFCURVE",
"744 686 QCURVE",
"744 0 LINE",
"854 0 LINE",
"854 692 LINE",
"854 780 OFFCURVE",
"820 848 QCURVE",
"894 884 LINE",
"962 910 OFFCURVE",
"1044 916 OFFCURVE",
"1110 916 OFFCURVE",
"1218 888 OFFCURVE",
"1294 776 OFFCURVE",
"1294 686 QCURVE",
"1294 0 LINE",
"1404 0 LINE",
"1404 692 LINE",
"1404 834 OFFCURVE",
"1236 1018 OFFCURVE",
"1092 1018 QCURVE",
"940 1018 OFFCURVE",
"770 922 QCURVE",
"678 1016 OFFCURVE",
"396 1016 OFFCURVE",
"258 938 QCURVE",
"268 1002 LINE",
"156 1002 LINE",
"156 0 LINE"
);
}
);
};
layerId = "BADA37E3-C95E-4946-BA48-1F986F6D85A7";
paths = (
{
closed = 1;
nodes = (
"268 0 LINE",
"268 850 LINE",
"348 894 OFFCURVE",
"429 916 OFFCURVE",
"511 916 CURVE SMOOTH",
"666 916 OFFCURVE",
"744 834 OFFCURVE",
"744 686 CURVE SMOOTH",
"744 0 LINE",
"854 0 LINE",
"854 692 LINE SMOOTH",
"854 751 OFFCURVE",
"843 803 OFFCURVE",
"820 848 CURVE",
"938 900 OFFCURVE",
"1012 916 OFFCURVE",
"1077 916 CURVE SMOOTH",
"1190 916 OFFCURVE",
"1294 866 OFFCURVE",
"1294 686 CURVE SMOOTH",
"1294 0 LINE",
"1404 0 LINE",
"1404 692 LINE SMOOTH",
"1404 881 OFFCURVE",
"1292 1018 OFFCURVE",
"1092 1018 CURVE SMOOTH",
"994 1018 OFFCURVE",
"883 986 OFFCURVE",
"770 922 CURVE",
"709 985 OFFCURVE",
"631 1016 OFFCURVE",
"534 1016 CURVE SMOOTH",
"443 1016 OFFCURVE",
"350 990 OFFCURVE",
"258 938 CURVE",
"268 1002 LINE",
"156 1002 LINE",
"156 0 LINE"
);
}
);
width = 1470;
},
{
anchors = (
{
name = bottom;
position = "{788, 0}";
},
{
name = top;
position = "{776, 1002}";
}
);
layerId = "77B00D75-0619-4FB7-8D17-EB9FCD2DF18B";
paths = (
{
closed = 1;
nodes = (
"194 0 LINE",
"194 908 LINE",
"308 960 OFFCURVE",
"390 980 OFFCURVE",
"492 980 CURVE SMOOTH",
"662 980 OFFCURVE",
"768 912 OFFCURVE",
"768 742 CURVE SMOOTH",
"768 0 LINE",
"806 0 LINE",
"806 718 LINE SMOOTH",
"806 794 OFFCURVE",
"800 838 OFFCURVE",
"784 876 CURVE",
"924 954 OFFCURVE",
"1028 978 OFFCURVE",
"1102 978 CURVE SMOOTH",
"1244 978 OFFCURVE",
"1366 892 OFFCURVE",
"1366 704 CURVE SMOOTH",
"1366 0 LINE",
"1404 0 LINE",
"1404 708 LINE SMOOTH",
"1404 924 OFFCURVE",
"1270 1016 OFFCURVE",
"1102 1016 CURVE SMOOTH",
"1000 1016 OFFCURVE",
"886 976 OFFCURVE",
"768 908 CURVE",
"718 984 OFFCURVE",
"642 1018 OFFCURVE",
"490 1018 CURVE SMOOTH",
"386 1018 OFFCURVE",
"298 1000 OFFCURVE",
"194 952 CURVE",
"194 1002 LINE",
"156 1002 LINE",
"156 0 LINE"
);
}
);
width = 1482;
},
{
anchors = (
{
name = bottom;
position = "{802, 0}";
},
{
name = top;
position = "{790, 1002}";
}
);
layerId = "8A94633D-DA21-409C-A8B7-00A83612E8B2";
paths = (
{
closed = 1;
nodes = (
"376 0 LINE",
"376 766 LINE",
"442 796 OFFCURVE",
"502 812 OFFCURVE",
"546 812 CURVE SMOOTH",
"628 812 OFFCURVE",
"692 756 OFFCURVE",
"692 626 CURVE SMOOTH",
"692 0 LINE",
"912 0 LINE",
"912 662 LINE SMOOTH",
"912 710 OFFCURVE",
"908 746 OFFCURVE",
"900 772 CURVE",
"966 798 OFFCURVE",
"1016 812 OFFCURVE",
"1058 812 CURVE SMOOTH",
"1146 812 OFFCURVE",
"1184 754 OFFCURVE",
"1184 630 CURVE SMOOTH",
"1184 0 LINE",
"1404 0 LINE",
"1404 692 LINE SMOOTH",
"1404 878 OFFCURVE",
"1290 1018 OFFCURVE",
"1092 1018 CURVE SMOOTH",
"992 1018 OFFCURVE",
"892 982 OFFCURVE",
"806 932 CURVE",
"746 990 OFFCURVE",
"682 1020 OFFCURVE",
"586 1020 CURVE SMOOTH",
"520 1020 OFFCURVE",
"440 1006 OFFCURVE",
"376 972 CURVE",
"350 1002 LINE",
"156 1002 LINE",
"156 0 LINE"
);
}
);
width = 1482;
}
);
leftKerningGroup = n;
rightKerningGroup = n;
unicode = 006D;
},
{
glyphname = n;
lastChange = "2019-02-12 03:57:44 +0000";
layers = (
{
anchors = (
{
name = bottom;
position = "{500, 0}";
},
{
name = top;
position = "{508, 1002}";
}
);
layerId = "BADA37E3-C95E-4946-BA48-1F986F6D85A7";
paths = (
{
closed = 1;
nodes = (
"240 0 LINE",
"240 850 LINE",
"321 895 OFFCURVE",
"407 918 OFFCURVE",
"497 918 CURVE SMOOTH",
"658 918 OFFCURVE",
"756 842 OFFCURVE",
"756 686 CURVE SMOOTH",
"756 0 LINE",
"866 0 LINE",
"866 692 LINE SMOOTH",
"866 902 OFFCURVE",
"742 1020 OFFCURVE",
"512 1020 CURVE SMOOTH",
"398 1020 OFFCURVE",
"302 992 OFFCURVE",
"232 934 CURVE",
"240 1002 LINE",
"128 1002 LINE",
"128 0 LINE"
);
}
);
width = 1000;
},
{
anchors = (
{
name = bottom;
position = "{500, 0}";
},
{
name = top;
position = "{500, 1002}";
}
);
layerId = "77B00D75-0619-4FB7-8D17-EB9FCD2DF18B";
paths = (
{
closed = 1;
nodes = (
"166 0 LINE",
"166 908 LINE",
"259 957 OFFCURVE",
"365 982 OFFCURVE",
"484 982 CURVE SMOOTH",
"684 982 OFFCURVE",
"828 884 OFFCURVE",
"828 694 CURVE SMOOTH",
"828 0 LINE",
"866 0 LINE",
"866 692 LINE SMOOTH",
"866 920 OFFCURVE",
"716 1020 OFFCURVE",
"476 1020 CURVE SMOOTH",
"356 1020 OFFCURVE",
"258 996 OFFCURVE",
"166 950 CURVE",
"166 1002 LINE",
"128 1002 LINE",
"128 0 LINE"
);
}
);
width = 1000;
},
{
anchors = (
{
name = bottom;
position = "{500, 0}";
},
{
name = top;
position = "{500, 1002}";
}
);
layerId = "8A94633D-DA21-409C-A8B7-00A83612E8B2";
paths = (
{
closed = 1;
nodes = (
"346 0 LINE",
"346 772 LINE",
"395 796 OFFCURVE",
"441 808 OFFCURVE",
"482 808 CURVE SMOOTH",
"578 808 OFFCURVE",
"646 742 OFFCURVE",
"646 630 CURVE SMOOTH",
"646 0 LINE",
"866 0 LINE",
"866 692 LINE SMOOTH",
"866 900 OFFCURVE",
"726 1020 OFFCURVE",
"528 1020 CURVE SMOOTH",
"462 1020 OFFCURVE",
"404 1006 OFFCURVE",
"346 978 CURVE",
"322 1002 LINE",
"128 1002 LINE",
"128 0 LINE"
);
}
);
width = 1000;
}
);
leftKerningGroup = n;
rightKerningGroup = n;
unicode = 006E;
},
{
glyphname = eng;
lastChange = "2019-02-12 03:57:44 +0000";
layers = (
{
layerId = "BADA37E3-C95E-4946-BA48-1F986F6D85A7";
paths = (
{
closed = 1;
nodes = (
"398 1020 OFFCURVE",
"302 992 OFFCURVE",
"232 934 CURVE",
"240 1002 LINE",
"128 1002 LINE",
"128 0 LINE",
"240 0 LINE",
"240 850 LINE",
"322 896 OFFCURVE",
"408 918 OFFCURVE",
"498 918 CURVE SMOOTH",
"658 918 OFFCURVE",
"756 842 OFFCURVE",
"756 686 CURVE SMOOTH",
"756 -112 LINE SMOOTH",
"756 -226 OFFCURVE",
"690 -332 OFFCURVE",
"604 -332 CURVE",
"618 -418 LINE",
"762 -418 OFFCURVE",
"866 -286 OFFCURVE",
"866 -110 CURVE SMOOTH",
"866 692 LINE SMOOTH",
"866 902 OFFCURVE",
"742 1020 OFFCURVE",
"512 1020 CURVE SMOOTH"
);
}
);
width = 1000;
},
{
layerId = "77B00D75-0619-4FB7-8D17-EB9FCD2DF18B";
paths = (
{
closed = 1;
nodes = (
"356 1020 OFFCURVE",
"258 996 OFFCURVE",
"166 950 CURVE",
"166 1002 LINE",
"128 1002 LINE",
"128 0 LINE",
"166 0 LINE",
"166 908 LINE",
"260 958 OFFCURVE",
"366 982 OFFCURVE",
"484 982 CURVE SMOOTH",
"684 982 OFFCURVE",
"828 884 OFFCURVE",
"828 694 CURVE SMOOTH",
"828 -164 LINE SMOOTH",
"828 -296 OFFCURVE",
"740 -382 OFFCURVE",
"650 -382 CURVE",
"656 -418 LINE",
"796 -396 OFFCURVE",
"866 -312 OFFCURVE",
"866 -166 CURVE SMOOTH",
"866 692 LINE SMOOTH",
"866 920 OFFCURVE",
"716 1020 OFFCURVE",
"476 1020 CURVE SMOOTH"
);
}
);
width = 1000;
},
{
layerId = "8A94633D-DA21-409C-A8B7-00A83612E8B2";
paths = (
{
closed = 1;
nodes = (
"462 1020 OFFCURVE",
"404 1006 OFFCURVE",
"346 978 CURVE",
"322 1002 LINE",
"128 1002 LINE",
"128 0 LINE",
"346 0 LINE",
"346 772 LINE",
"396 796 OFFCURVE",
"440 808 OFFCURVE",
"482 808 CURVE SMOOTH",
"578 808 OFFCURVE",
"646 742 OFFCURVE",
"646 630 CURVE SMOOTH",
"646 -70 LINE SMOOTH",
"646 -176 OFFCURVE",
"590 -234 OFFCURVE",
"504 -248 CURVE",
"564 -418 LINE",
"714 -418 OFFCURVE",
"866 -292 OFFCURVE",
"866 -68 CURVE SMOOTH",
"866 692 LINE SMOOTH",
"866 900 OFFCURVE",
"726 1020 OFFCURVE",
"528 1020 CURVE SMOOTH"
);
}
);
width = 1000;
}
);
leftMetricsKey = n;
rightMetricsKey = n;
unicode = 014B;
},
{
glyphname = o;
lastChange = "2019-02-12 03:57:44 +0000";
layers = (
{
anchors = (
{
name = bottom;
position = "{530, 0}";
},
{
name = center;
position = "{530, 502}";
},
{
name = ogonek;
position = "{652, 0}";
},
{
name = top;
position = "{530, 1002}";
},
{
name = topright;
position = "{928, 1002}";
}
);
layerId = "BADA37E3-C95E-4946-BA48-1F986F6D85A7";
paths = (
{
closed = 1;
nodes = (
"780 -20 OFFCURVE",
"902 144 OFFCURVE",
"902 368 CURVE SMOOTH",
"902 632 LINE SMOOTH",
"902 874 OFFCURVE",
"766 1024 OFFCURVE",
"528 1024 CURVE SMOOTH",
"290 1024 OFFCURVE",
"156 886 OFFCURVE",
"156 632 CURVE SMOOTH",
"156 368 LINE SMOOTH",
"156 146 OFFCURVE",
"284 -20 OFFCURVE",
"532 -20 CURVE SMOOTH"
);
},
{
closed = 1;
nodes = (
"398 78 OFFCURVE",
"268 168 OFFCURVE",
"268 348 CURVE SMOOTH",
"268 632 LINE SMOOTH",
"268 826 OFFCURVE",
"356 922 OFFCURVE",
"532 922 CURVE SMOOTH",
"704 922 OFFCURVE",
"790 826 OFFCURVE",
"790 632 CURVE SMOOTH",
"790 348 LINE SMOOTH",
"790 168 OFFCURVE",
"660 78 OFFCURVE",
"530 78 CURVE SMOOTH"
);
}
);
width = 968;
},
{
anchors = (
{
name = bottom;
position = "{472, 0}";
},
{
name = center;
position = "{472, 502}";
},
{
name = ogonek;
position = "{564, 0}";
},
{
name = top;
position = "{472, 1002}";
},
{
name = topright;
position = "{882, 1002}";
}
);
layerId = "77B00D75-0619-4FB7-8D17-EB9FCD2DF18B";
paths = (
{
closed = 1;
nodes = (
"722 -20 OFFCURVE",
"844 144 OFFCURVE",
"844 368 CURVE SMOOTH",
"844 632 LINE SMOOTH",
"844 874 OFFCURVE",
"708 1024 OFFCURVE",
"470 1024 CURVE SMOOTH",
"232 1024 OFFCURVE",
"98 886 OFFCURVE",
"98 632 CURVE SMOOTH",
"98 368 LINE SMOOTH",
"98 146 OFFCURVE",
"226 -20 OFFCURVE",
"474 -20 CURVE SMOOTH"
);
},
{
closed = 1;
nodes = (
"243 16 OFFCURVE",
"136 173 OFFCURVE",
"136 368 CURVE SMOOTH",
"136 640 LINE SMOOTH",
"136 870 OFFCURVE",
"280 986 OFFCURVE",
"472 986 CURVE SMOOTH",
"664 986 OFFCURVE",
"806 870 OFFCURVE",
"806 640 CURVE SMOOTH",
"806 368 LINE SMOOTH",
"806 168 OFFCURVE",
"699 16 OFFCURVE",
"471 16 CURVE SMOOTH"
);
}
);
width = 922;
},
{
anchors = (
{
name = bottom;
position = "{530, 0}";
},
{
name = center;
position = "{530, 502}";
},
{
name = ogonek;
position = "{652, 0}";
},
{
name = top;
position = "{530, 1002}";
},
{
name = topright;
position = "{940, 1002}";
}
);
layerId = "8A94633D-DA21-409C-A8B7-00A83612E8B2";
paths = (
{
closed = 1;
nodes = (
"780 -20 OFFCURVE",
"902 144 OFFCURVE",
"902 368 CURVE SMOOTH",
"902 632 LINE SMOOTH",
"902 874 OFFCURVE",
"764 1024 OFFCURVE",
"532 1024 CURVE SMOOTH",
"290 1024 OFFCURVE",
"156 886 OFFCURVE",
"156 632 CURVE SMOOTH",
"156 368 LINE SMOOTH",
"156 146 OFFCURVE",
"284 -20 OFFCURVE",
"532 -20 CURVE SMOOTH"
);
},
{
closed = 1;
nodes = (
"428 196 OFFCURVE",
"376 247 OFFCURVE",
"376 348 CURVE SMOOTH",
"376 632 LINE SMOOTH",
"376 746 OFFCURVE",
"428 802 OFFCURVE",
"532 802 CURVE SMOOTH",
"622 802 OFFCURVE",
"684 770 OFFCURVE",
"684 632 CURVE SMOOTH",
"684 348 LINE SMOOTH",
"684 247 OFFCURVE",
"620 196 OFFCURVE",
"532 196 CURVE SMOOTH"
);
}
);
width = 980;
}
);
leftKerningGroup = o;
rightKerningGroup = o;
unicode = 006F;
},
{
glyphname = p;
lastChange = "2019-02-12 03:57:44 +0000";
layers = (
{
anchors = (
{
name = bottom;
position = "{518, 0}";
},
{
name = top;
position = "{518, 1002}";
}
);
layerId = "BADA37E3-C95E-4946-BA48-1F986F6D85A7";
paths = (
{
closed = 1;
nodes = (
"268 -376 LINE",
"268 84 LINE",
"330 12 OFFCURVE",
"434 -24 OFFCURVE",
"538 -24 CURVE SMOOTH",
"762 -24 OFFCURVE",
"910 110 OFFCURVE",
"910 352 CURVE SMOOTH",
"910 630 LINE SMOOTH",
"910 859 OFFCURVE",
"774 1018 OFFCURVE",
"542 1018 CURVE SMOOTH",
"426 1018 OFFCURVE",
"331 979 OFFCURVE",
"258 900 CURVE",
"268 1002 LINE",
"156 1002 LINE",
"156 -420 LINE"
);
},
{
closed = 1;
nodes = (
"398 74 OFFCURVE",
"268 158 OFFCURVE",
"268 332 CURVE SMOOTH",
"268 648 LINE",
"276 828 OFFCURVE",
"408 920 OFFCURVE",
"538 920 CURVE SMOOTH",
"668 920 OFFCURVE",
"798 826 OFFCURVE",
"798 638 CURVE SMOOTH",
"798 332 LINE SMOOTH",
"798 162 OFFCURVE",
"662 74 OFFCURVE",
"530 74 CURVE SMOOTH"
);
}
);
width = 976;
},
{
anchors = (
{
name = bottom;
position = "{512, 0}";
},
{
name = top;
position = "{512, 1002}";
}
);
layerId = "77B00D75-0619-4FB7-8D17-EB9FCD2DF18B";
paths = (
{
closed = 1;
nodes = (
"194 -406 LINE",
"194 154 LINE",
"254 35 OFFCURVE",
"367 -24 OFFCURVE",
"532 -24 CURVE SMOOTH",
"756 -24 OFFCURVE",
"910 109 OFFCURVE",
"910 352 CURVE SMOOTH",
"910 628 LINE SMOOTH",
"910 860 OFFCURVE",
"776 1018 OFFCURVE",
"504 1018 CURVE SMOOTH",
"392 1018 OFFCURVE",
"263 978 OFFCURVE",
"194 882 CURVE",
"194 1002 LINE",
"156 1002 LINE",
"156 -420 LINE"
);
},
{
closed = 1;
nodes = (
"327 14 OFFCURVE",
"194 128 OFFCURVE",
"194 312 CURVE SMOOTH",
"194 794 LINE",
"230 904 OFFCURVE",
"346 980 OFFCURVE",
"506 980 CURVE SMOOTH",
"708 980 OFFCURVE",
"872 882 OFFCURVE",
"872 636 CURVE SMOOTH",
"872 332 LINE SMOOTH",
"872 146 OFFCURVE",
"742 14 OFFCURVE",
"538 14 CURVE SMOOTH"
);
}
);
width = 988;
},
{
anchors = (
{
name = bottom;
position = "{524, 0}";
},
{
name = top;
position = "{524, 1002}";
}
);
layerId = "8A94633D-DA21-409C-A8B7-00A83612E8B2";
paths = (
{
closed = 1;
nodes = (
"376 -376 LINE",
"376 4 LINE",
"414 -12 OFFCURVE",
"479 -24 OFFCURVE",
"538 -24 CURVE SMOOTH",
"762 -24 OFFCURVE",
"910 109 OFFCURVE",
"910 352 CURVE SMOOTH",
"910 630 LINE SMOOTH",
"910 859 OFFCURVE",
"778 1018 OFFCURVE",
"536 1018 CURVE SMOOTH",
"471 1018 OFFCURVE",
"420 1006 OFFCURVE",
"376 980 CURVE",
"364 1002 LINE",
"156 1002 LINE",
"156 -420 LINE"
);
},
{
closed = 1;
nodes = (
"430 196 OFFCURVE",
"376 256 OFFCURVE",
"376 376 CURVE SMOOTH",
"376 648 LINE SMOOTH",
"376 744 OFFCURVE",
"429 802 OFFCURVE",
"538 802 CURVE SMOOTH",
"639 802 OFFCURVE",
"690 747 OFFCURVE",
"690 638 CURVE SMOOTH",
"690 404 LINE SMOOTH",
"690 255 OFFCURVE",
"661 196 OFFCURVE",
"538 196 CURVE SMOOTH"
);
}
);
width = 988;
}
);
leftKerningGroup = p;
rightKerningGroup = o;
unicode = 0070;
},
{
glyphname = thorn;
lastChange = "2019-02-12 03:57:44 +0000";
layers = (
{
anchors = (
{
name = bottom;
position = "{488, 0}";
},
{
name = top;
position = "{488, 1002}";
}
);
layerId = "BADA37E3-C95E-4946-BA48-1F986F6D85A7";
paths = (
{
closed = 1;
nodes = (
"268 -376 LINE",
"268 84 LINE",
"330 12 OFFCURVE",
"434 -24 OFFCURVE",
"538 -24 CURVE SMOOTH",
"762 -24 OFFCURVE",
"910 110 OFFCURVE",
"910 352 CURVE SMOOTH",
"910 630 LINE SMOOTH",
"910 859 OFFCURVE",
"774 1018 OFFCURVE",
"542 1018 CURVE SMOOTH",
"430 1018 OFFCURVE",
"338 976 OFFCURVE",
"268 894 CURVE",
"268 1400 LINE",
"156 1400 LINE",
"156 -420 LINE"
);
},
{
closed = 1;
nodes = (
"398 74 OFFCURVE",
"268 158 OFFCURVE",
"268 332 CURVE SMOOTH",
"268 648 LINE",
"276 828 OFFCURVE",
"408 920 OFFCURVE",
"538 920 CURVE SMOOTH",
"668 920 OFFCURVE",
"798 826 OFFCURVE",
"798 638 CURVE SMOOTH",
"798 332 LINE SMOOTH",
"798 162 OFFCURVE",
"662 74 OFFCURVE",
"530 74 CURVE SMOOTH"
);
}
);
width = 976;
},
{
anchors = (
{
name = bottom;
position = "{496, 0}";
},
{
name = top;
position = "{496, 1002}";
}
);
layerId = "77B00D75-0619-4FB7-8D17-EB9FCD2DF18B";
paths = (
{
closed = 1;
nodes = (
"194 -406 LINE",
"194 154 LINE",
"254 35 OFFCURVE",
"367 -24 OFFCURVE",
"532 -24 CURVE SMOOTH",
"756 -24 OFFCURVE",
"910 109 OFFCURVE",
"910 352 CURVE SMOOTH",
"910 628 LINE SMOOTH",
"910 860 OFFCURVE",
"776 1018 OFFCURVE",
"504 1018 CURVE SMOOTH",
"392 1018 OFFCURVE",
"263 978 OFFCURVE",
"194 882 CURVE",
"194 1400 LINE",
"156 1400 LINE",
"156 -420 LINE"
);
},
{
closed = 1;
nodes = (
"327 14 OFFCURVE",
"194 128 OFFCURVE",
"194 312 CURVE SMOOTH",
"194 794 LINE",
"230 904 OFFCURVE",
"346 980 OFFCURVE",
"506 980 CURVE SMOOTH",
"708 980 OFFCURVE",
"872 882 OFFCURVE",
"872 636 CURVE SMOOTH",
"872 332 LINE SMOOTH",
"872 146 OFFCURVE",
"742 14 OFFCURVE",
"538 14 CURVE SMOOTH"
);
}
);
width = 990;
},
{
anchors = (
{
name = bottom;
position = "{494, 0}";
},
{
name = top;
position = "{494, 1002}";
}
);
layerId = "8A94633D-DA21-409C-A8B7-00A83612E8B2";
paths = (
{
closed = 1;
nodes = (
"376 -376 LINE",
"376 4 LINE",
"414 -12 OFFCURVE",
"479 -24 OFFCURVE",
"538 -24 CURVE SMOOTH",
"762 -24 OFFCURVE",
"910 109 OFFCURVE",
"910 352 CURVE SMOOTH",
"910 630 LINE SMOOTH",
"910 859 OFFCURVE",
"778 1018 OFFCURVE",
"536 1018 CURVE SMOOTH",
"470 1018 OFFCURVE",
"418 1006 OFFCURVE",
"374 980 CURVE",
"374 1400 LINE",
"156 1400 LINE",
"156 -420 LINE"
);
},
{
closed = 1;
nodes = (
"430 196 OFFCURVE",
"376 256 OFFCURVE",
"376 376 CURVE SMOOTH",
"376 648 LINE SMOOTH",
"376 744 OFFCURVE",
"429 802 OFFCURVE",
"538 802 CURVE SMOOTH",
"639 802 OFFCURVE",
"690 747 OFFCURVE",
"690 638 CURVE SMOOTH",
"690 404 LINE SMOOTH",
"690 255 OFFCURVE",
"661 196 OFFCURVE",
"538 196 CURVE SMOOTH"
);
}
);
width = 988;
}
);
unicode = 00FE;
},
{
glyphname = q;
lastChange = "2019-02-12 03:57:44 +0000";
layers = (
{
anchors = (
{
name = bottom;
position = "{448, 0}";
},
{
name = top;
position = "{448, 1002}";
}
);
layerId = "BADA37E3-C95E-4946-BA48-1F986F6D85A7";
paths = (
{
closed = 1;
nodes = (
"828 1002 LINE",
"716 1002 LINE",
"726 896 LINE",
"652 978 OFFCURVE",
"542 1018 OFFCURVE",
"436 1018 CURVE SMOOTH",
"220 1018 OFFCURVE",
"74 866 OFFCURVE",
"74 628 CURVE SMOOTH",
"74 352 LINE SMOOTH",
"74 109 OFFCURVE",
"220 -24 OFFCURVE",
"451 -24 CURVE SMOOTH",
"566 -24 OFFCURVE",
"655 12 OFFCURVE",
"716 84 CURVE",
"716 -376 LINE",
"828 -420 LINE"
);
},
{
closed = 1;
nodes = (
"322 74 OFFCURVE",
"186 162 OFFCURVE",
"186 332 CURVE SMOOTH",
"186 636 LINE SMOOTH",
"186 826 OFFCURVE",
"316 920 OFFCURVE",
"448 920 CURVE SMOOTH",
"578 920 OFFCURVE",
"708 828 OFFCURVE",
"716 648 CURVE",
"716 332 LINE SMOOTH",
"716 158 OFFCURVE",
"586 74 OFFCURVE",
"454 74 CURVE SMOOTH"
);
}
);
width = 896;
},
{
anchors = (
{
name = bottom;
position = "{456, 0}";
},
{
name = top;
position = "{460, 1002}";
}
);
background = {
paths = (
{
closed = 1;
nodes = (
"828 1002 LINE",
"790 1002 LINE",
"790 882 LINE",
"738 954 OFFCURVE",
"564 1018 OFFCURVE",
"480 1018 QCURVE",
"276 1018 OFFCURVE",
"74 802 OFFCURVE",
"74 628 QCURVE",
"74 352 LINE",
"74 170 OFFCURVE",
"284 -24 OFFCURVE",
"452 -24 QCURVE",
"700 -24 OFFCURVE",
"790 154 QCURVE",
"790 -406 LINE",
"828 -420 LINE"
);
},
{
closed = 1;
nodes = (
"112 218 OFFCURVE",
"112 332 QCURVE",
"112 636 LINE",
"112 732 OFFCURVE",
"184 874 OFFCURVE",
"300 948 OFFCURVE",
"418 980 OFFCURVE",
"560 980 OFFCURVE",
"644 948 QCURVE",
"692 928 OFFCURVE",
"772 850 OFFCURVE",
"790 794 QCURVE",
"790 312 LINE",
"790 174 OFFCURVE",
"604 14 OFFCURVE",
"268 14 OFFCURVE",
"168 144 QCURVE"
);
}
);
};
layerId = "77B00D75-0619-4FB7-8D17-EB9FCD2DF18B";
paths = (
{
closed = 1;
nodes = (
"828 1002 LINE",
"790 1002 LINE",
"790 882 LINE",
"721 978 OFFCURVE",
"598 1018 OFFCURVE",
"472 1018 CURVE SMOOTH",
"208 1018 OFFCURVE",
"74 860 OFFCURVE",
"74 628 CURVE SMOOTH",
"74 352 LINE SMOOTH",
"74 109 OFFCURVE",
"224 -24 OFFCURVE",
"452 -24 CURVE SMOOTH",
"617 -24 OFFCURVE",
"730 35 OFFCURVE",
"790 154 CURVE",
"790 -406 LINE",
"828 -420 LINE"
);
},
{
closed = 1;
nodes = (
"252 14 OFFCURVE",
"112 130 OFFCURVE",
"112 332 CURVE SMOOTH",
"112 632 LINE SMOOTH",
"112 824 OFFCURVE",
"234 980 OFFCURVE",
"472 980 CURVE SMOOTH",
"598 980 OFFCURVE",
"746 934 OFFCURVE",
"790 794 CURVE",
"790 312 LINE SMOOTH",
"790 128 OFFCURVE",
"656 14 OFFCURVE",
"452 14 CURVE SMOOTH"
);
}
);
width = 896;
},
{
anchors = (
{
name = bottom;
position = "{448, 0}";
},
{
name = top;
position = "{448, 1002}";
}
);
layerId = "8A94633D-DA21-409C-A8B7-00A83612E8B2";
paths = (
{
closed = 1;
nodes = (
"828 1002 LINE",
"624 1002 LINE",
"610 974 LINE",
"560 1006 OFFCURVE",
"516 1018 OFFCURVE",
"450 1018 CURVE SMOOTH",
"206 1018 OFFCURVE",
"74 857 OFFCURVE",
"74 628 CURVE SMOOTH",
"74 352 LINE SMOOTH",
"74 109 OFFCURVE",
"222 -24 OFFCURVE",
"446 -24 CURVE SMOOTH",
"503 -24 OFFCURVE",
"572 -13 OFFCURVE",
"610 6 CURVE",
"610 -376 LINE",
"828 -420 LINE"
);
},
{
closed = 1;
nodes = (
"343 196 OFFCURVE",
"292 250 OFFCURVE",
"292 358 CURVE SMOOTH",
"292 606 LINE SMOOTH",
"292 737 OFFCURVE",
"343 802 OFFCURVE",
"446 802 CURVE SMOOTH",
"555 802 OFFCURVE",
"610 743 OFFCURVE",
"610 626 CURVE SMOOTH",
"610 386 LINE SMOOTH",
"610 266 OFFCURVE",
"579 196 OFFCURVE",
"446 196 CURVE SMOOTH"
);
}
);
width = 896;
}
);
leftKerningGroup = o;
rightKerningGroup = q;
unicode = 0071;
},
{
glyphname = r;
lastChange = "2019-02-12 03:57:44 +0000";
layers = (
{
anchors = (
{
name = bottom;
position = "{178, 0}";
},
{
name = top;
position = "{352, 1002}";
}
);
layerId = "BADA37E3-C95E-4946-BA48-1F986F6D85A7";
paths = (
{
closed = 1;
nodes = (
"234 0 LINE",
"234 784 LINE SMOOTH",
"234 882 OFFCURVE",
"338 918 OFFCURVE",
"450 918 CURVE SMOOTH",
"498 918 OFFCURVE",
"548 912 OFFCURVE",
"592 900 CURVE",
"622 1000 LINE",
"570 1012 OFFCURVE",
"521 1018 OFFCURVE",
"476 1018 CURVE SMOOTH",
"373 1018 OFFCURVE",
"291 989 OFFCURVE",
"228 932 CURVE",
"234 1002 LINE",
"122 1002 LINE",
"122 0 LINE"
);
}
);
width = 666;
},
{
anchors = (
{
name = bottom;
position = "{142, 0}";
},
{
name = top;
position = "{358, 1002}";
}
);
layerId = "77B00D75-0619-4FB7-8D17-EB9FCD2DF18B";
paths = (
{
closed = 1;
nodes = (
"160 0 LINE",
"160 798 LINE SMOOTH",
"160 908 OFFCURVE",
"328 982 OFFCURVE",
"464 982 CURVE SMOOTH",
"510 982 OFFCURVE",
"561 975 OFFCURVE",
"610 960 CURVE",
"618 1000 LINE",
"564 1012 OFFCURVE",
"516 1018 OFFCURVE",
"468 1018 CURVE SMOOTH",
"341 1018 OFFCURVE",
"237 977 OFFCURVE",
"160 896 CURVE",
"160 1002 LINE",
"122 1002 LINE",
"122 0 LINE"
);
}
);
width = 664;
},
{
anchors = (
{
name = bottom;
position = "{232, 0}";
},
{
name = top;
position = "{384, 1002}";
}
);
layerId = "8A94633D-DA21-409C-A8B7-00A83612E8B2";
paths = (
{
closed = 1;
nodes = (
"342 0 LINE",
"342 644 LINE SMOOTH",
"342 748 OFFCURVE",
"422 808 OFFCURVE",
"518 808 CURVE SMOOTH",
"556 808 OFFCURVE",
"592 798 OFFCURVE",
"630 780 CURVE",
"682 994 LINE",
"612 1010 OFFCURVE",
"570 1018 OFFCURVE",
"516 1018 CURVE SMOOTH",
"456 1018 OFFCURVE",
"404 1006 OFFCURVE",
"342 970 CURVE",
"318 1002 LINE",
"122 1002 LINE",
"122 0 LINE"
);
}
);
width = 760;
}
);
leftKerningGroup = n;
rightKerningGroup = r;
unicode = 0072;
},
{
glyphname = s;
lastChange = "2019-02-12 03:57:44 +0000";
layers = (
{
anchors = (
{
name = bottom;
position = "{438, 0}";
},
{
name = top;
position = "{432, 1002}";
}
);
layerId = "BADA37E3-C95E-4946-BA48-1F986F6D85A7";
paths = (
{
closed = 1;
nodes = (
"616 -30 OFFCURVE",
"792 62 OFFCURVE",
"792 244 CURVE SMOOTH",
"792 450 OFFCURVE",
"616 510 OFFCURVE",
"456 560 CURVE SMOOTH",
"324 602 OFFCURVE",
"206 640 OFFCURVE",
"206 758 CURVE SMOOTH",
"206 862 OFFCURVE",
"302 928 OFFCURVE",
"438 928 CURVE SMOOTH",
"508 928 OFFCURVE",
"576 914 OFFCURVE",
"624 876 CURVE",
"662 968 LINE",
"600 1004 OFFCURVE",
"528 1026 OFFCURVE",
"438 1026 CURVE SMOOTH",
"196 1026 OFFCURVE",
"94 892 OFFCURVE",
"94 751 CURVE SMOOTH",
"94 572 OFFCURVE",
"254 518 OFFCURVE",
"408 468 CURVE SMOOTH",
"546 420 OFFCURVE",
"680 372 OFFCURVE",
"680 244 CURVE SMOOTH",
"680 128 OFFCURVE",
"568 74 OFFCURVE",
"450 74 CURVE SMOOTH",
"326 74 OFFCURVE",
"194 134 OFFCURVE",
"178 254 CURVE",
"72 254 LINE",
"78 62 OFFCURVE",
"260 -30 OFFCURVE",
"438 -30 CURVE SMOOTH"
);
}
);
width = 862;
},
{
anchors = (
{
name = bottom;
position = "{436, 0}";
},
{
name = top;
position = "{432, 1002}";
}
);
background = {
paths = (
{
closed = 1;
nodes = (
"76 134 OFFCURVE",
"272 -30 OFFCURVE",
"614 -30 OFFCURVE",
"792 132 OFFCURVE",
"792 346 OFFCURVE",
"664 472 OFFCURVE",
"478 536 OFFCURVE",
"290 590 OFFCURVE",
"144 680 OFFCURVE",
"144 770 QCURVE",
"144 872 OFFCURVE",
"312 986 OFFCURVE",
"548 986 OFFCURVE",
"644 932 QCURVE",
"662 966 LINE",
"636 980 LINE",
"612 996 OFFCURVE",
"500 1026 OFFCURVE",
"438 1026 QCURVE",
"256 1026 OFFCURVE",
"106 856 OFFCURVE",
"106 766 QCURVE",
"106 748 OFFCURVE",
"108 730 QCURVE",
"126 598 OFFCURVE",
"352 530 QCURVE",
"446 502 OFFCURVE",
"628 444 OFFCURVE",
"754 332 OFFCURVE",
"754 144 OFFCURVE",
"582 8 OFFCURVE",
"286 8 OFFCURVE",
"118 152 OFFCURVE",
"110 254 QCURVE",
"72 254 LINE"
);
}
);
};
layerId = "77B00D75-0619-4FB7-8D17-EB9FCD2DF18B";
paths = (
{
closed = 1;
nodes = (
"634 -30 OFFCURVE",
"792 66 OFFCURVE",
"792 246 CURVE SMOOTH",
"792 446 OFFCURVE",
"610 498 OFFCURVE",
"440 548 CURVE SMOOTH",
"288 590 OFFCURVE",
"144 632 OFFCURVE",
"144 770 CURVE SMOOTH",
"144 906 OFFCURVE",
"273 986 OFFCURVE",
"430 986 CURVE SMOOTH",
"509 986 OFFCURVE",
"580 968 OFFCURVE",
"644 932 CURVE",
"662 966 LINE",
"604 1002 OFFCURVE",
"524 1026 OFFCURVE",
"432 1026 CURVE SMOOTH",
"195 1026 OFFCURVE",
"106 886 OFFCURVE",
"106 766 CURVE SMOOTH",
"106 600 OFFCURVE",
"268 554 OFFCURVE",
"430 506 CURVE SMOOTH",
"592 458 OFFCURVE",
"754 412 OFFCURVE",
"754 244 CURVE SMOOTH",
"754 114 OFFCURVE",
"636 8 OFFCURVE",
"436 8 CURVE SMOOTH",
"270 8 OFFCURVE",
"116 92 OFFCURVE",
"110 254 CURVE",
"72 254 LINE",
"78 62 OFFCURVE",
"248 -30 OFFCURVE",
"438 -30 CURVE SMOOTH"
);
}
);
width = 862;
},
{
anchors = (
{
name = bottom;
position = "{442, 0}";
},
{
name = top;
position = "{426, 1002}";
}
);
background = {
paths = (
{
closed = 1;
nodes = (
"624 -30 OFFCURVE",
"812 152 OFFCURVE",
"812 282 QCURVE",
"812 382 OFFCURVE",
"718 526 OFFCURVE",
"582 598 OFFCURVE",
"446 646 OFFCURVE",
"340 696 OFFCURVE",
"334 726 QCURVE",
"334 740 OFFCURVE",
"328 778 OFFCURVE",
"382 810 OFFCURVE",
"438 810 QCURVE",
"552 810 OFFCURVE",
"598 764 QCURVE",
"662 968 LINE",
"638 982 LINE",
"614 996 OFFCURVE",
"502 1026 OFFCURVE",
"438 1026 QCURVE",
"256 1026 OFFCURVE",
"172 934 QCURVE",
"94 852 OFFCURVE",
"94 754 QCURVE",
"94 742 OFFCURVE",
"96 730 QCURVE",
"106 634 OFFCURVE",
"212 510 OFFCURVE",
"350 456 OFFCURVE",
"486 414 OFFCURVE",
"580 344 OFFCURVE",
"580 286 QCURVE",
"580 242 OFFCURVE",
"508 176 OFFCURVE",
"442 176 QCURVE",
"366 176 OFFCURVE",
"292 240 OFFCURVE",
"292 276 QCURVE",
"72 254 LINE",
"76 134 OFFCURVE",
"272 -30 OFFCURVE",
"442 -30 QCURVE"
);
}
);
};
layerId = "8A94633D-DA21-409C-A8B7-00A83612E8B2";
paths = (
{
closed = 1;
nodes = (
"685 -30 OFFCURVE",
"812 109 OFFCURVE",
"812 288 CURVE SMOOTH",
"812 512 OFFCURVE",
"636 576 OFFCURVE",
"498 624 CURVE SMOOTH",
"406 656 OFFCURVE",
"330 684 OFFCURVE",
"330 748 CURVE SMOOTH",
"330 788 OFFCURVE",
"362 810 OFFCURVE",
"444 810 CURVE SMOOTH",
"514 810 OFFCURVE",
"567 795 OFFCURVE",
"598 764 CURVE",
"662 968 LINE",
"594 1008 OFFCURVE",
"520 1026 OFFCURVE",
"430 1026 CURVE SMOOTH",
"246 1026 OFFCURVE",
"94 948 OFFCURVE",
"94 754 CURVE SMOOTH",
"94 546 OFFCURVE",
"252 492 OFFCURVE",
"388 446 CURVE SMOOTH",
"490 412 OFFCURVE",
"580 380 OFFCURVE",
"580 290 CURVE SMOOTH",
"580 228 OFFCURVE",
"530 176 OFFCURVE",
"440 176 CURVE SMOOTH",
"346 176 OFFCURVE",
"296 228 OFFCURVE",
"292 276 CURVE",
"72 254 LINE",
"77 94 OFFCURVE",
"215 -30 OFFCURVE",
"442 -30 CURVE SMOOTH"
);
}
);
width = 862;
}
);
leftKerningGroup = s;
rightKerningGroup = s;
unicode = 0073;
},
{
glyphname = germandbls;
lastChange = "2019-02-12 03:57:44 +0000";
layers = (
{
background = {
paths = (
{
closed = 1;
nodes = (
"698 -22 OFFCURVE",
"770 4 QCURVE",
"882 44 OFFCURVE",
"926 146 QCURVE",
"954 214 OFFCURVE",
"954 282 QCURVE",
"954 422 OFFCURVE",
"826 558 QCURVE",
"780 608 OFFCURVE",
"694 682 QCURVE",
"664 708 OFFCURVE",
"574 790 OFFCURVE",
"518 896 OFFCURVE",
"552 954 QCURVE",
"612 954 LINE",
"686 1020 OFFCURVE",
"686 1236 OFFCURVE",
"554 1402 OFFCURVE",
"294 1402 OFFCURVE",
"156 1228 OFFCURVE",
"156 1074 QCURVE",
"156 0 LINE",
"270 0 LINE",
"270 1082 LINE",
"270 1294 OFFCURVE",
"436 1294 QCURVE",
"514 1294 OFFCURVE",
"552 1224 QCURVE",
"576 1182 OFFCURVE",
"576 1112 OFFCURVE",
"564 1084 QCURVE",
"538 1014 OFFCURVE",
"456 1014 QCURVE",
"422 954 OFFCURVE",
"422 846 OFFCURVE",
"436 808 QCURVE",
"472 724 OFFCURVE",
"600 618 QCURVE",
"670 558 OFFCURVE",
"742 486 QCURVE",
"838 388 OFFCURVE",
"838 288 QCURVE",
"838 238 OFFCURVE",
"814 188 QCURVE",
"766 88 OFFCURVE",
"614 88 QCURVE",
"486 88 OFFCURVE",
"402 170 QCURVE",
"344 74 LINE",
"458 -22 OFFCURVE",
"640 -22 QCURVE"
);
}
);
};
layerId = "BADA37E3-C95E-4946-BA48-1F986F6D85A7";
paths = (
{
closed = 1;
nodes = (
"816 -22 OFFCURVE",
"954 94 OFFCURVE",
"954 282 CURVE SMOOTH",
"954 462 OFFCURVE",
"820 572 OFFCURVE",
"704 666 CURVE SMOOTH",
"616 738 OFFCURVE",
"536 800 OFFCURVE",
"536 876 CURVE SMOOTH",
"536 894 OFFCURVE",
"540 912 OFFCURVE",
"550 932 CURVE",
"626 960 OFFCURVE",
"686 1022 OFFCURVE",
"686 1144 CURVE SMOOTH",
"686 1290 OFFCURVE",
"596 1402 OFFCURVE",
"424 1402 CURVE SMOOTH",
"276 1402 OFFCURVE",
"156 1310 OFFCURVE",
"156 1074 CURVE SMOOTH",
"156 0 LINE",
"270 0 LINE",
"270 1082 LINE SMOOTH",
"270 1223 OFFCURVE",
"326 1294 OFFCURVE",
"428 1294 CURVE SMOOTH",
"524 1294 OFFCURVE",
"576 1226 OFFCURVE",
"576 1147 CURVE SMOOTH",
"576 1088 OFFCURVE",
"548 1012 OFFCURVE",
"452 1012 CURVE",
"432 962 OFFCURVE",
"422 918 OFFCURVE",
"422 876 CURVE SMOOTH",
"422 742 OFFCURVE",
"526 660 OFFCURVE",
"630 576 CURVE SMOOTH",
"734 496 OFFCURVE",
"838 414 OFFCURVE",
"838 288 CURVE SMOOTH",
"838 182 OFFCURVE",
"774 88 OFFCURVE",
"614 88 CURVE SMOOTH",
"529 88 OFFCURVE",
"458 115 OFFCURVE",
"402 170 CURVE",
"344 74 LINE",
"420 10 OFFCURVE",
"519 -22 OFFCURVE",
"640 -22 CURVE SMOOTH"
);
}
);
width = 1022;
},
{
layerId = "77B00D75-0619-4FB7-8D17-EB9FCD2DF18B";
paths = (
{
closed = 1;
nodes = (
"854 -22 OFFCURVE",
"954 100 OFFCURVE",
"954 250 CURVE SMOOTH",
"954 432 OFFCURVE",
"818 544 OFFCURVE",
"672 644 CURVE SMOOTH",
"546 730 OFFCURVE",
"458 804 OFFCURVE",
"458 902 CURVE SMOOTH",
"458 924 OFFCURVE",
"462 950 OFFCURVE",
"472 974 CURVE",
"590 1000 OFFCURVE",
"648 1082 OFFCURVE",
"648 1186 CURVE SMOOTH",
"648 1332 OFFCURVE",
"538 1402 OFFCURVE",
"406 1402 CURVE SMOOTH",
"242 1402 OFFCURVE",
"156 1292 OFFCURVE",
"156 1074 CURVE SMOOTH",
"156 0 LINE",
"194 0 LINE",
"194 1082 LINE SMOOTH",
"194 1270 OFFCURVE",
"266 1364 OFFCURVE",
"406 1364 CURVE SMOOTH",
"526 1364 OFFCURVE",
"610 1302 OFFCURVE",
"610 1188 CURVE SMOOTH",
"610 1096 OFFCURVE",
"562 1020 OFFCURVE",
"446 1004 CURVE",
"428 968 OFFCURVE",
"420 938 OFFCURVE",
"420 902 CURVE SMOOTH",
"420 772 OFFCURVE",
"534 692 OFFCURVE",
"654 608 CURVE SMOOTH",
"782 518 OFFCURVE",
"912 418 OFFCURVE",
"912 256 CURVE SMOOTH",
"912 122 OFFCURVE",
"814 18 OFFCURVE",
"634 18 CURVE SMOOTH",
"542 18 OFFCURVE",
"440 46 OFFCURVE",
"368 112 CURVE",
"344 74 LINE",
"420 10 OFFCURVE",
"520 -22 OFFCURVE",
"634 -22 CURVE SMOOTH"
);
}
);
width = 1030;
},
{
layerId = "8A94633D-DA21-409C-A8B7-00A83612E8B2";
paths = (
{
closed = 1;
nodes = (
"898 -26 OFFCURVE",
"1050 100 OFFCURVE",
"1050 308 CURVE SMOOTH",
"1050 486 OFFCURVE",
"936 568 OFFCURVE",
"832 644 CURVE SMOOTH",
"748 706 OFFCURVE",
"664 752 OFFCURVE",
"664 850 CURVE SMOOTH",
"664 874 OFFCURVE",
"668 894 OFFCURVE",
"678 914 CURVE",
"752 946 OFFCURVE",
"796 1010 OFFCURVE",
"796 1114 CURVE SMOOTH",
"796 1278 OFFCURVE",
"688 1402 OFFCURVE",
"490 1402 CURVE SMOOTH",
"280 1402 OFFCURVE",
"156 1272 OFFCURVE",
"156 1038 CURVE SMOOTH",
"156 0 LINE",
"374 0 LINE",
"374 1012 LINE SMOOTH",
"374 1132 OFFCURVE",
"414 1192 OFFCURVE",
"492 1192 CURVE SMOOTH",
"552 1192 OFFCURVE",
"580 1154 OFFCURVE",
"580 1112 CURVE SMOOTH",
"580 1070 OFFCURVE",
"550 1014 OFFCURVE",
"482 1014 CURVE",
"448 954 OFFCURVE",
"438 894 OFFCURVE",
"438 846 CURVE SMOOTH",
"438 696 OFFCURVE",
"538 596 OFFCURVE",
"658 512 CURVE SMOOTH",
"744 452 OFFCURVE",
"818 390 OFFCURVE",
"818 308 CURVE SMOOTH",
"818 244 OFFCURVE",
"774 186 OFFCURVE",
"704 186 CURVE SMOOTH",
"640 186 OFFCURVE",
"572 218 OFFCURVE",
"512 276 CURVE",
"416 74 LINE",
"498 6 OFFCURVE",
"618 -26 OFFCURVE",
"700 -26 CURVE SMOOTH"
);
}
);
width = 1128;
}
);
unicode = 00DF;
},
{
glyphname = t;
lastChange = "2019-02-12 03:57:44 +0000";
layers = (
{
anchors = (
{
name = bottom;
position = "{244, 0}";
},
{
name = center;
position = "{190, 662}";
},
{
name = top;
position = "{144, 1388}";
},
{
name = topright;
position = "{386, 1388}";
}
);
layerId = "BADA37E3-C95E-4946-BA48-1F986F6D85A7";
paths = (
{
closed = 1;
nodes = (
"332 60 LINE",
"244 89 OFFCURVE",
"200 157 OFFCURVE",
"200 264 CURVE SMOOTH",
"200 896 LINE",
"392 896 LINE",
"440 1002 LINE",
"200 1002 LINE",
"200 1400 LINE",
"88 1400 LINE",
"88 264 LINE SMOOTH",
"88 107 OFFCURVE",
"151 17 OFFCURVE",
"300 -26 CURVE"
);
}
);
width = 486;
},
{
anchors = (
{
name = bottom;
position = "{262, 0}";
},
{
name = center;
position = "{180, 698}";
},
{
name = top;
position = "{108, 1388}";
},
{
name = topright;
position = "{326, 1388}";
}
);
layerId = "77B00D75-0619-4FB7-8D17-EB9FCD2DF18B";
paths = (
{
closed = 1;
nodes = (
"312 10 LINE",
"179 53 OFFCURVE",
"126 117 OFFCURVE",
"126 264 CURVE SMOOTH",
"126 964 LINE",
"422 964 LINE",
"440 1002 LINE",
"126 1002 LINE",
"126 1400 LINE",
"88 1400 LINE",
"88 264 LINE SMOOTH",
"88 107 OFFCURVE",
"151 17 OFFCURVE",
"300 -26 CURVE"
);
}
);
width = 486;
},
{
anchors = (
{
name = bottom;
position = "{274, 0}";
},
{
name = center;
position = "{232, 612}";
},
{
name = top;
position = "{200, 1388}";
},
{
name = topright;
position = "{502, 1388}";
}
);
layerId = "8A94633D-DA21-409C-A8B7-00A83612E8B2";
paths = (
{
closed = 1;
nodes = (
"458 150 LINE",
"365 150 OFFCURVE",
"312 173 OFFCURVE",
"312 264 CURVE SMOOTH",
"312 796 LINE",
"454 796 LINE",
"502 1002 LINE",
"312 1002 LINE",
"312 1400 LINE",
"88 1400 LINE",
"88 264 LINE SMOOTH",
"88 75 OFFCURVE",
"189 -22 OFFCURVE",
"392 -26 CURVE"
);
}
);
width = 548;
}
);
leftKerningGroup = t;
rightKerningGroup = t;
unicode = 0074;
},
{
glyphname = u;
lastChange = "2019-02-12 03:57:44 +0000";
layers = (
{
anchors = (
{
name = bottom;
position = "{448, 0}";
},
{
name = ogonek;
position = "{818, 0}";
},
{
name = top;
position = "{448, 1002}";
},
{
name = topright;
position = "{854, 1002}";
}
);
layerId = "BADA37E3-C95E-4946-BA48-1F986F6D85A7";
paths = (
{
closed = 1;
nodes = (
"566 -22 OFFCURVE",
"650 20 OFFCURVE",
"716 102 CURVE",
"708 0 LINE",
"818 0 LINE",
"818 1002 LINE",
"706 1002 LINE",
"706 330 LINE SMOOTH",
"706 162 OFFCURVE",
"620 78 OFFCURVE",
"448 78 CURVE SMOOTH",
"285 78 OFFCURVE",
"184 159 OFFCURVE",
"184 330 CURVE SMOOTH",
"184 1002 LINE",
"72 1002 LINE",
"72 344 LINE SMOOTH",
"72 100 OFFCURVE",
"220 -22 OFFCURVE",
"440 -22 CURVE SMOOTH"
);
}
);
width = 894;
},
{
anchors = (
{
name = bottom;
position = "{448, 0}";
},
{
name = ogonek;
position = "{818, 0}";
},
{
name = top;
position = "{448, 1002}";
},
{
name = topright;
position = "{854, 1002}";
}
);
layerId = "77B00D75-0619-4FB7-8D17-EB9FCD2DF18B";
paths = (
{
closed = 1;
nodes = (
"592 -22 OFFCURVE",
"710 38 OFFCURVE",
"780 156 CURVE",
"780 0 LINE",
"818 0 LINE",
"818 1002 LINE",
"780 1002 LINE",
"780 320 LINE SMOOTH",
"780 136 OFFCURVE",
"646 18 OFFCURVE",
"429 18 CURVE SMOOTH",
"212 18 OFFCURVE",
"110 136 OFFCURVE",
"110 352 CURVE SMOOTH",
"110 1002 LINE",
"72 1002 LINE",
"72 352 LINE SMOOTH",
"72 103 OFFCURVE",
"190 -22 OFFCURVE",
"428 -22 CURVE SMOOTH"
);
}
);
width = 894;
},
{
anchors = (
{
name = bottom;
position = "{448, 0}";
},
{
name = ogonek;
position = "{818, 0}";
},
{
name = top;
position = "{448, 1002}";
},
{
name = topright;
position = "{854, 1002}";
}
);
layerId = "8A94633D-DA21-409C-A8B7-00A83612E8B2";
paths = (
{
closed = 1;
nodes = (
"496 -22 OFFCURVE",
"550 2 OFFCURVE",
"598 28 CURVE",
"612 0 LINE",
"818 0 LINE",
"818 1002 LINE",
"598 1002 LINE",
"598 384 LINE SMOOTH",
"598 226 OFFCURVE",
"538 196 OFFCURVE",
"442 196 CURVE SMOOTH",
"346 196 OFFCURVE",
"292 238 OFFCURVE",
"292 376 CURVE SMOOTH",
"292 1002 LINE",
"72 1002 LINE",
"72 344 LINE SMOOTH",
"72 100 OFFCURVE",
"188 -22 OFFCURVE",
"404 -22 CURVE SMOOTH"
);
}
);
width = 894;
}
);
leftKerningGroup = u;
rightKerningGroup = u;
unicode = 0075;
},
{
glyphname = v;
lastChange = "2019-02-12 03:57:44 +0000";
layers = (
{
anchors = (
{
name = bottom;
position = "{424, 0}";
},
{
name = top;
position = "{424, 1002}";
}
);
layerId = "BADA37E3-C95E-4946-BA48-1F986F6D85A7";
paths = (
{
closed = 1;
nodes = (
"496 0 LINE",
"806 1002 LINE",
"688 1002 LINE",
"420 116 LINE",
"154 1002 LINE",
"36 1002 LINE",
"342 0 LINE"
);
}
);
width = 848;
},
{
anchors = (
{
name = bottom;
position = "{422, 0}";
},
{
name = top;
position = "{422, 1002}";
}
);
layerId = "77B00D75-0619-4FB7-8D17-EB9FCD2DF18B";
paths = (
{
closed = 1;
nodes = (
"434 0 LINE",
"806 1002 LINE",
"768 1002 LINE",
"420 74 LINE",
"74 1002 LINE",
"36 1002 LINE",
"408 0 LINE"
);
}
);
width = 860;
},
{
anchors = (
{
name = bottom;
position = "{454, 0}";
},
{
name = top;
position = "{454, 1002}";
}
);
layerId = "8A94633D-DA21-409C-A8B7-00A83612E8B2";
paths = (
{
closed = 1;
nodes = (
"556 0 LINE",
"870 1002 LINE",
"632 1002 LINE",
"450 390 LINE",
"264 1002 LINE",
"24 1002 LINE",
"344 0 LINE"
);
}
);
width = 906;
}
);
leftKerningGroup = v;
rightKerningGroup = v;
unicode = 0076;
},
{
glyphname = w;
lastChange = "2019-02-12 03:57:44 +0000";
layers = (
{
anchors = (
{
name = bottom;
position = "{700, 0}";
},
{
name = top;
position = "{700, 1002}";
}
);
layerId = "BADA37E3-C95E-4946-BA48-1F986F6D85A7";
paths = (
{
closed = 1;
nodes = (
"496 0 LINE",
"700 810 LINE",
"902 0 LINE",
"1056 0 LINE",
"1366 1002 LINE",
"1248 1002 LINE",
"980 116 LINE",
"760 1002 LINE",
"646 1002 LINE",
"420 116 LINE",
"154 1002 LINE",
"36 1002 LINE",
"342 0 LINE"
);
}
);
width = 1408;
},
{
anchors = (
{
name = bottom;
position = "{664, 0}";
},
{
name = top;
position = "{664, 1002}";
}
);
layerId = "77B00D75-0619-4FB7-8D17-EB9FCD2DF18B";
paths = (
{
closed = 1;
nodes = (
"398 0 LINE",
"664 910 LINE",
"932 0 LINE",
"958 0 LINE",
"1294 1002 LINE",
"1254 1002 LINE",
"946 76 LINE",
"674 1002 LINE",
"652 1002 LINE",
"382 74 LINE",
"76 1002 LINE",
"36 1002 LINE",
"374 0 LINE"
);
}
);
width = 1394;
},
{
anchors = (
{
name = bottom;
position = "{708, 0}";
},
{
name = top;
position = "{708, 1002}";
}
);
layerId = "8A94633D-DA21-409C-A8B7-00A83612E8B2";
paths = (
{
closed = 1;
nodes = (
"560 0 LINE",
"706 534 LINE",
"850 0 LINE",
"1060 0 LINE",
"1384 1002 LINE",
"1148 1002 LINE",
"984 390 LINE",
"816 1002 LINE",
"608 1002 LINE",
"446 390 LINE",
"264 1002 LINE",
"24 1002 LINE",
"346 0 LINE"
);
}
);
width = 1420;
}
);
leftKerningGroup = v;
rightKerningGroup = v;
unicode = 0077;
},
{
glyphname = x;
lastChange = "2019-02-12 03:57:44 +0000";
layers = (
{
anchors = (
{
name = bottom;
position = "{534, 0}";
},
{
name = top;
position = "{534, 1002}";
}
);
layerId = "BADA37E3-C95E-4946-BA48-1F986F6D85A7";
paths = (
{
closed = 1;
nodes = (
"288 0 LINE",
"534 394 LINE",
"780 0 LINE",
"912 0 LINE",
"598 498 LINE",
"912 1002 LINE",
"786 1002 LINE",
"534 602 LINE",
"282 1002 LINE",
"156 1002 LINE",
"468 498 LINE",
"156 0 LINE"
);
}
);
width = 978;
},
{
anchors = (
{
name = bottom;
position = "{446, 0}";
},
{
name = top;
position = "{446, 1002}";
}
);
layerId = "77B00D75-0619-4FB7-8D17-EB9FCD2DF18B";
paths = (
{
closed = 1;
nodes = (
"154 0 LINE",
"448 468 LINE",
"730 0 LINE",
"772 0 LINE",
"472 500 LINE",
"778 1002 LINE",
"734 1002 LINE",
"448 532 LINE",
"168 1002 LINE",
"122 1002 LINE",
"426 502 LINE",
"110 0 LINE"
);
}
);
width = 886;
},
{
anchors = (
{
name = bottom;
position = "{572, 0}";
},
{
name = top;
position = "{572, 1002}";
}
);
layerId = "8A94633D-DA21-409C-A8B7-00A83612E8B2";
paths = (
{
closed = 1;
nodes = (
"396 0 LINE",
"570 280 LINE",
"746 0 LINE",
"1008 0 LINE",
"706 500 LINE",
"1024 1002 LINE",
"752 1002 LINE",
"572 716 LINE",
"400 1002 LINE",
"122 1002 LINE",
"434 498 LINE",
"122 0 LINE"
);
}
);
width = 1102;
}
);
leftKerningGroup = x;
rightKerningGroup = x;
unicode = 0078;
},
{
glyphname = y;
lastChange = "2019-02-12 03:57:44 +0000";
layers = (
{
anchors = (
{
name = bottom;
position = "{436, 0}";
},
{
name = top;
position = "{456, 1002}";
}
);
layerId = "BADA37E3-C95E-4946-BA48-1F986F6D85A7";
paths = (
{
closed = 1;
nodes = (
"766 -372 OFFCURVE",
"824 -285 OFFCURVE",
"824 -122 CURVE SMOOTH",
"824 804 LINE SMOOTH",
"824 877 OFFCURVE",
"847 924 OFFCURVE",
"892 944 CURVE",
"862 1020 LINE",
"722 974 OFFCURVE",
"716 892 OFFCURVE",
"716 726 CURVE SMOOTH",
"716 332 LINE SMOOTH",
"716 158 OFFCURVE",
"586 72 OFFCURVE",
"454 72 CURVE SMOOTH",
"318 72 OFFCURVE",
"182 160 OFFCURVE",
"182 332 CURVE SMOOTH",
"182 1002 LINE",
"74 1002 LINE",
"74 352 LINE SMOOTH",
"74 101 OFFCURVE",
"201 -24 OFFCURVE",
"454 -24 CURVE SMOOTH",
"581 -24 OFFCURVE",
"669 17 OFFCURVE",
"718 98 CURVE",
"718 -126 LINE SMOOTH",
"718 -231 OFFCURVE",
"673 -301 OFFCURVE",
"584 -334 CURVE",
"614 -420 LINE"
);
}
);
width = 960;
},
{
anchors = (
{
name = bottom;
position = "{422, 0}";
},
{
name = top;
position = "{450, 1002}";
}
);
layerId = "77B00D75-0619-4FB7-8D17-EB9FCD2DF18B";
paths = (
{
closed = 1;
nodes = (
"766 -372 OFFCURVE",
"824 -285 OFFCURVE",
"824 -122 CURVE SMOOTH",
"824 808 LINE SMOOTH",
"824 901 OFFCURVE",
"842 961 OFFCURVE",
"878 988 CURVE",
"862 1020 LINE",
"795 983 OFFCURVE",
"786 909 OFFCURVE",
"786 746 CURVE SMOOTH",
"786 332 LINE SMOOTH",
"786 148 OFFCURVE",
"648 14 OFFCURVE",
"432 14 CURVE SMOOTH",
"216 14 OFFCURVE",
"112 140 OFFCURVE",
"112 332 CURVE SMOOTH",
"112 1002 LINE",
"74 1002 LINE",
"74 352 LINE SMOOTH",
"74 104 OFFCURVE",
"205 -24 OFFCURVE",
"440 -24 CURVE SMOOTH",
"571 -24 OFFCURVE",
"716 30 OFFCURVE",
"788 174 CURVE",
"788 -126 LINE SMOOTH",
"788 -266 OFFCURVE",
"726 -352 OFFCURVE",
"602 -384 CURVE",
"614 -420 LINE"
);
}
);
width = 946;
},
{
anchors = (
{
name = bottom;
position = "{402, 0}";
},
{
name = top;
position = "{474, 1002}";
}
);
layerId = "8A94633D-DA21-409C-A8B7-00A83612E8B2";
paths = (
{
closed = 1;
nodes = (
"751 -396 OFFCURVE",
"824 -295 OFFCURVE",
"824 -122 CURVE SMOOTH",
"824 694 LINE SMOOTH",
"824 761 OFFCURVE",
"867 821 OFFCURVE",
"944 840 CURVE",
"862 1020 LINE",
"713 1007 OFFCURVE",
"604 867 OFFCURVE",
"604 726 CURVE SMOOTH",
"604 412 LINE SMOOTH",
"604 239 OFFCURVE",
"557 196 OFFCURVE",
"440 196 CURVE SMOOTH",
"333 196 OFFCURVE",
"294 244 OFFCURVE",
"294 412 CURVE SMOOTH",
"294 1002 LINE",
"74 1002 LINE",
"74 352 LINE SMOOTH",
"74 104 OFFCURVE",
"205 -24 OFFCURVE",
"440 -24 CURVE SMOOTH",
"489 -24 OFFCURVE",
"544 -15 OFFCURVE",
"604 4 CURVE",
"604 -112 LINE SMOOTH",
"604 -205 OFFCURVE",
"539 -246 OFFCURVE",
"470 -246 CURVE",
"556 -420 LINE"
);
}
);
width = 1012;
}
);
leftKerningGroup = u;
rightKerningGroup = y;
unicode = 0079;
},
{
glyphname = z;
lastChange = "2019-02-12 03:57:44 +0000";
layers = (
{
anchors = (
{
name = bottom;
position = "{488, 0}";
},
{
name = top;
position = "{488, 1002}";
}
);
layerId = "BADA37E3-C95E-4946-BA48-1F986F6D85A7";
paths = (
{
closed = 1;
nodes = (
"890 0 LINE",
"890 102 LINE",
"294 102 LINE",
"848 902 LINE",
"848 1002 LINE",
"174 1002 LINE",
"174 900 LINE",
"706 900 LINE",
"156 100 LINE",
"156 0 LINE"
);
}
);
width = 956;
},
{
anchors = (
{
name = bottom;
position = "{538, 0}";
},
{
name = top;
position = "{500, 1002}";
}
);
layerId = "77B00D75-0619-4FB7-8D17-EB9FCD2DF18B";
paths = (
{
closed = 1;
nodes = (
"890 0 LINE",
"890 38 LINE",
"202 38 LINE",
"848 964 LINE",
"848 1002 LINE",
"174 1002 LINE",
"174 964 LINE",
"802 964 LINE",
"156 38 LINE",
"156 0 LINE"
);
}
);
width = 968;
},
{
anchors = (
{
name = bottom;
position = "{518, 0}";
},
{
name = top;
position = "{520, 1002}";
}
);
layerId = "8A94633D-DA21-409C-A8B7-00A83612E8B2";
paths = (
{
closed = 1;
nodes = (
"890 0 LINE",
"890 208 LINE",
"450 208 LINE",
"870 802 LINE",
"870 1002 LINE",
"174 1002 LINE",
"174 794 LINE",
"574 794 LINE",
"156 208 LINE",
"156 0 LINE"
);
}
);
width = 968;
}
);
leftKerningGroup = z;
rightKerningGroup = z;
unicode = 007A;
},
{
glyphname = y.ss01;
lastChange = "2019-02-12 03:57:44 +0000";
layers = (
{
anchors = (
{
name = bottom;
position = "{746, 0}";
},
{
name = top;
position = "{490, 1002}";
}
);
layerId = "BADA37E3-C95E-4946-BA48-1F986F6D85A7";
paths = (
{
closed = 1;
nodes = (
"356 -396 LINE",
"962 1002 LINE",
"836 1002 LINE",
"480 174 LINE",
"152 1002 LINE",
"26 1002 LINE",
"422 40 LINE",
"238 -396 LINE"
);
}
);
width = 1028;
},
{
anchors = (
{
name = bottom;
position = "{788, 0}";
},
{
name = top;
position = "{488, 1002}";
}
);
layerId = "77B00D75-0619-4FB7-8D17-EB9FCD2DF18B";
paths = (
{
closed = 1;
nodes = (
"354 -396 LINE",
"960 1002 LINE",
"920 1002 LINE",
"520 86 LINE",
"64 1002 LINE",
"24 1002 LINE",
"500 40 LINE",
"310 -396 LINE"
);
}
);
width = 1038;
},
{
anchors = (
{
name = bottom;
position = "{876, 0}";
},
{
name = top;
position = "{524, 1002}";
}
);
layerId = "8A94633D-DA21-409C-A8B7-00A83612E8B2";
paths = (
{
closed = 1;
nodes = (
"474 -396 LINE",
"1030 1002 LINE",
"792 1002 LINE",
"522 298 LINE",
"262 1002 LINE",
"18 1002 LINE",
"396 0 LINE",
"230 -396 LINE"
);
}
);
width = 1108;
}
);
},
{
glyphname = f_f;
lastChange = "2019-02-12 03:57:44 +0000";
layers = (
{
anchors = (
{
name = bottom;
position = "{678, 0}";
},
{
name = top;
position = "{800, 1388}";
}
);
layerId = "BADA37E3-C95E-4946-BA48-1F986F6D85A7";
paths = (
{
closed = 1;
nodes = (
"268 0 LINE",
"268 896 LINE",
"448 896 LINE",
"496 1002 LINE",
"268 1002 LINE",
"268 1098 LINE SMOOTH",
"268 1230 OFFCURVE",
"342 1310 OFFCURVE",
"458 1310 CURVE SMOOTH",
"540 1310 OFFCURVE",
"598 1270 OFFCURVE",
"642 1196 CURVE",
"728 1252 LINE",
"662 1358 OFFCURVE",
"570 1414 OFFCURVE",
"452 1414 CURVE SMOOTH",
"280 1414 OFFCURVE",
"156 1294 OFFCURVE",
"156 1092 CURVE SMOOTH",
"156 0 LINE"
);
},
{
closed = 1;
nodes = (
"734 0 LINE",
"734 896 LINE",
"914 896 LINE",
"962 1002 LINE",
"734 1002 LINE",
"734 1098 LINE SMOOTH",
"734 1246 OFFCURVE",
"796 1320 OFFCURVE",
"920 1320 CURVE SMOOTH",
"936 1320 OFFCURVE",
"952 1318 OFFCURVE",
"970 1316 CURVE",
"988 1414 LINE",
"962 1420 OFFCURVE",
"940 1422 OFFCURVE",
"918 1422 CURVE SMOOTH",
"754 1422 OFFCURVE",
"622 1322 OFFCURVE",
"622 1098 CURVE SMOOTH",
"622 0 LINE"
);
}
);
width = 1054;
},
{
anchors = (
{
name = bottom;
position = "{644, 0}";
},
{
name = top;
position = "{810, 1388}";
}
);
layerId = "77B00D75-0619-4FB7-8D17-EB9FCD2DF18B";
paths = (
{
closed = 1;
nodes = (
"192 0 LINE",
"192 964 LINE",
"480 964 LINE",
"496 1002 LINE",
"192 1002 LINE",
"192 1112 LINE SMOOTH",
"192 1280 OFFCURVE",
"302 1382 OFFCURVE",
"448 1382 CURVE SMOOTH",
"532 1382 OFFCURVE",
"606 1348 OFFCURVE",
"670 1276 CURVE",
"696 1300 LINE",
"626 1380 OFFCURVE",
"542 1418 OFFCURVE",
"448 1418 CURVE SMOOTH",
"286 1418 OFFCURVE",
"156 1303 OFFCURVE",
"156 1122 CURVE SMOOTH",
"156 0 LINE"
);
},
{
closed = 1;
nodes = (
"662 0 LINE",
"662 964 LINE",
"948 964 LINE",
"964 1002 LINE",
"662 1002 LINE",
"662 1098 LINE SMOOTH",
"662 1286 OFFCURVE",
"772 1384 OFFCURVE",
"928 1384 CURVE SMOOTH",
"950 1384 OFFCURVE",
"968 1382 OFFCURVE",
"984 1380 CURVE",
"990 1414 LINE",
"968 1420 OFFCURVE",
"944 1422 OFFCURVE",
"920 1422 CURVE SMOOTH",
"762 1422 OFFCURVE",
"624 1322 OFFCURVE",
"624 1098 CURVE SMOOTH",
"624 0 LINE"
);
}
);
width = 1068;
},
{
anchors = (
{
name = bottom;
position = "{938, 0}";
},
{
name = top;
position = "{1060, 1388}";
}
);
layerId = "8A94633D-DA21-409C-A8B7-00A83612E8B2";
paths = (
{
closed = 1;
nodes = (
"380 0 LINE",
"380 796 LINE",
"506 796 LINE",
"554 1002 LINE",
"380 1002 LINE",
"380 1084 LINE SMOOTH",
"380 1172 OFFCURVE",
"436 1222 OFFCURVE",
"514 1222 CURVE SMOOTH",
"566 1222 OFFCURVE",
"610 1200 OFFCURVE",
"646 1148 CURVE",
"808 1276 LINE",
"718 1392 OFFCURVE",
"618 1420 OFFCURVE",
"520 1420 CURVE SMOOTH",
"294 1420 OFFCURVE",
"156 1274 OFFCURVE",
"156 1034 CURVE SMOOTH",
"156 0 LINE"
);
},
{
closed = 1;
nodes = (
"850 0 LINE",
"850 796 LINE",
"976 796 LINE",
"1024 1002 LINE",
"850 1002 LINE",
"850 1098 LINE SMOOTH",
"850 1174 OFFCURVE",
"892 1224 OFFCURVE",
"952 1224 CURVE SMOOTH",
"970 1224 OFFCURVE",
"988 1220 OFFCURVE",
"1006 1214 CURVE",
"1042 1406 LINE",
"1010 1416 OFFCURVE",
"968 1424 OFFCURVE",
"928 1424 CURVE SMOOTH",
"770 1424 OFFCURVE",
"626 1292 OFFCURVE",
"626 1098 CURVE SMOOTH",
"626 0 LINE"
);
}
);
width = 1120;
}
);
leftMetricsKey = f;
rightMetricsKey = f;
unicode = FB00;
},
{
glyphname = f_f_l;
lastChange = "2019-02-12 03:57:44 +0000";
layers = (
{
layerId = "BADA37E3-C95E-4946-BA48-1F986F6D85A7";
paths = (
{
closed = 1;
nodes = (
"268 0 LINE",
"268 896 LINE",
"448 896 LINE",
"496 1002 LINE",
"268 1002 LINE",
"268 1098 LINE SMOOTH",
"268 1230 OFFCURVE",
"342 1310 OFFCURVE",
"458 1310 CURVE SMOOTH",
"540 1310 OFFCURVE",
"598 1270 OFFCURVE",
"642 1196 CURVE",
"728 1252 LINE",
"662 1358 OFFCURVE",
"570 1414 OFFCURVE",
"452 1414 CURVE SMOOTH",
"280 1414 OFFCURVE",
"156 1294 OFFCURVE",
"156 1092 CURVE SMOOTH",
"156 0 LINE"
);
},
{
closed = 1;
nodes = (
"734 0 LINE",
"734 896 LINE",
"914 896 LINE",
"962 1002 LINE",
"734 1002 LINE",
"734 1098 LINE SMOOTH",
"734 1230 OFFCURVE",
"810 1310 OFFCURVE",
"922 1310 CURVE SMOOTH",
"982 1310 OFFCURVE",
"1032 1286 OFFCURVE",
"1078 1244 CURVE",
"1078 0 LINE",
"1190 0 LINE",
"1190 1292 LINE",
"1110 1372 OFFCURVE",
"1018 1414 OFFCURVE",
"918 1414 CURVE SMOOTH",
"746 1414 OFFCURVE",
"622 1294 OFFCURVE",
"622 1092 CURVE SMOOTH",
"622 0 LINE"
);
}
);
width = 1350;
},
{
layerId = "77B00D75-0619-4FB7-8D17-EB9FCD2DF18B";
paths = (
{
closed = 1;
nodes = (
"192 0 LINE",
"192 964 LINE",
"480 964 LINE",
"496 1002 LINE",
"192 1002 LINE",
"192 1112 LINE SMOOTH",
"192 1280 OFFCURVE",
"302 1382 OFFCURVE",
"448 1382 CURVE SMOOTH",
"532 1382 OFFCURVE",
"606 1348 OFFCURVE",
"670 1276 CURVE",
"696 1300 LINE",
"626 1380 OFFCURVE",
"542 1418 OFFCURVE",
"448 1418 CURVE SMOOTH",
"286 1418 OFFCURVE",
"156 1303 OFFCURVE",
"156 1122 CURVE SMOOTH",
"156 0 LINE"
);
},
{
closed = 1;
nodes = (
"654 0 LINE",
"654 964 LINE",
"938 964 LINE",
"958 1002 LINE",
"654 1002 LINE",
"654 1120 LINE SMOOTH",
"654 1264 OFFCURVE",
"758 1376 OFFCURVE",
"906 1376 CURVE SMOOTH",
"980 1376 OFFCURVE",
"1050 1348 OFFCURVE",
"1110 1294 CURVE",
"1110 0 LINE",
"1148 0 LINE",
"1148 1312 LINE",
"1076 1380 OFFCURVE",
"990 1412 OFFCURVE",
"904 1412 CURVE SMOOTH",
"744 1412 OFFCURVE",
"616 1296 OFFCURVE",
"616 1120 CURVE SMOOTH",
"616 0 LINE"
);
}
);
width = 1308;
},
{
layerId = "8A94633D-DA21-409C-A8B7-00A83612E8B2";
paths = (
{
closed = 1;
nodes = (
"380 0 LINE",
"380 796 LINE",
"506 796 LINE",
"554 1002 LINE",
"380 1002 LINE",
"380 1084 LINE SMOOTH",
"380 1172 OFFCURVE",
"436 1222 OFFCURVE",
"514 1222 CURVE SMOOTH",
"566 1222 OFFCURVE",
"610 1200 OFFCURVE",
"646 1148 CURVE",
"808 1276 LINE",
"718 1392 OFFCURVE",
"618 1420 OFFCURVE",
"520 1420 CURVE SMOOTH",
"294 1420 OFFCURVE",
"156 1274 OFFCURVE",
"156 1034 CURVE SMOOTH",
"156 0 LINE"
);
},
{
closed = 1;
nodes = (
"844 0 LINE",
"844 796 LINE",
"970 796 LINE",
"1018 1002 LINE",
"844 1002 LINE",
"844 1084 LINE SMOOTH",
"844 1172 OFFCURVE",
"900 1222 OFFCURVE",
"978 1222 CURVE SMOOTH",
"1014 1222 OFFCURVE",
"1046 1212 OFFCURVE",
"1070 1190 CURVE",
"1070 0 LINE",
"1294 0 LINE",
"1294 1306 LINE",
"1184 1394 OFFCURVE",
"1084 1420 OFFCURVE",
"988 1420 CURVE SMOOTH",
"758 1420 OFFCURVE",
"620 1274 OFFCURVE",
"620 1034 CURVE SMOOTH",
"620 0 LINE"
);
}
);
width = 1454;
}
);
leftMetricsKey = f;
rightMetricsKey = l;
unicode = FB04;
},
{
glyphname = f_i;
lastChange = "2019-02-12 03:57:44 +0000";
layers = (
{
layerId = "BADA37E3-C95E-4946-BA48-1F986F6D85A7";
paths = (
{
closed = 1;
nodes = (
"268 0 LINE",
"268 896 LINE",
"448 896 LINE",
"496 1002 LINE",
"268 1002 LINE",
"268 1098 LINE SMOOTH",
"268 1230 OFFCURVE",
"342 1310 OFFCURVE",
"458 1310 CURVE SMOOTH",
"540 1310 OFFCURVE",
"598 1270 OFFCURVE",
"642 1196 CURVE",
"728 1252 LINE",
"662 1358 OFFCURVE",
"570 1414 OFFCURVE",
"452 1414 CURVE SMOOTH",
"280 1414 OFFCURVE",
"156 1294 OFFCURVE",
"156 1092 CURVE SMOOTH",
"156 0 LINE"
);
},
{
closed = 1;
nodes = (
"724 0 LINE",
"724 1002 LINE",
"612 1002 LINE",
"612 0 LINE"
);
}
);
width = 888;
},
{
layerId = "77B00D75-0619-4FB7-8D17-EB9FCD2DF18B";
paths = (
{
closed = 1;
nodes = (
"192 0 LINE",
"192 964 LINE",
"480 964 LINE",
"496 1002 LINE",
"192 1002 LINE",
"192 1112 LINE SMOOTH",
"192 1280 OFFCURVE",
"302 1382 OFFCURVE",
"448 1382 CURVE SMOOTH",
"532 1382 OFFCURVE",
"606 1348 OFFCURVE",
"670 1276 CURVE",
"696 1300 LINE",
"626 1380 OFFCURVE",
"542 1418 OFFCURVE",
"448 1418 CURVE SMOOTH",
"286 1418 OFFCURVE",
"156 1304 OFFCURVE",
"156 1122 CURVE SMOOTH",
"156 0 LINE"
);
},
{
closed = 1;
nodes = (
"692 0 LINE",
"692 1002 LINE",
"656 1002 LINE",
"656 0 LINE"
);
}
);
width = 856;
},
{
layerId = "8A94633D-DA21-409C-A8B7-00A83612E8B2";
paths = (
{
closed = 1;
nodes = (
"380 0 LINE",
"380 796 LINE",
"506 796 LINE",
"554 1002 LINE",
"380 1002 LINE",
"380 1084 LINE SMOOTH",
"380 1172 OFFCURVE",
"436 1222 OFFCURVE",
"514 1222 CURVE SMOOTH",
"566 1222 OFFCURVE",
"610 1200 OFFCURVE",
"646 1148 CURVE",
"808 1276 LINE",
"718 1392 OFFCURVE",
"618 1420 OFFCURVE",
"518 1420 CURVE SMOOTH",
"294 1420 OFFCURVE",
"156 1274 OFFCURVE",
"156 1034 CURVE SMOOTH",
"156 0 LINE"
);
},
{
closed = 1;
nodes = (
"830 0 LINE",
"830 1002 LINE",
"612 1002 LINE",
"612 0 LINE"
);
}
);
width = 990;
}
);
leftMetricsKey = f;
rightMetricsKey = i;
unicode = FB01;
},
{
glyphname = f_l;
lastChange = "2019-02-12 03:57:44 +0000";
layers = (
{
layerId = "BADA37E3-C95E-4946-BA48-1F986F6D85A7";
paths = (
{
closed = 1;
nodes = (
"268 0 LINE",
"268 896 LINE",
"448 896 LINE",
"496 1002 LINE",
"268 1002 LINE",
"268 1098 LINE SMOOTH",
"268 1230 OFFCURVE",
"344 1310 OFFCURVE",
"456 1310 CURVE SMOOTH",
"516 1310 OFFCURVE",
"566 1286 OFFCURVE",
"612 1244 CURVE",
"612 0 LINE",
"724 0 LINE",
"724 1292 LINE",
"644 1372 OFFCURVE",
"552 1414 OFFCURVE",
"452 1414 CURVE SMOOTH",
"280 1414 OFFCURVE",
"156 1294 OFFCURVE",
"156 1092 CURVE SMOOTH",
"156 0 LINE"
);
}
);
width = 884;
},
{
layerId = "77B00D75-0619-4FB7-8D17-EB9FCD2DF18B";
paths = (
{
closed = 1;
nodes = (
"194 0 LINE",
"194 964 LINE",
"478 964 LINE",
"498 1002 LINE",
"194 1002 LINE",
"194 1120 LINE SMOOTH",
"194 1264 OFFCURVE",
"298 1376 OFFCURVE",
"446 1376 CURVE SMOOTH",
"520 1376 OFFCURVE",
"590 1348 OFFCURVE",
"650 1294 CURVE",
"650 0 LINE",
"688 0 LINE",
"688 1312 LINE",
"616 1380 OFFCURVE",
"530 1412 OFFCURVE",
"444 1412 CURVE SMOOTH",
"284 1412 OFFCURVE",
"156 1296 OFFCURVE",
"156 1120 CURVE SMOOTH",
"156 0 LINE"
);
}
);
width = 848;
},
{
layerId = "8A94633D-DA21-409C-A8B7-00A83612E8B2";
paths = (
{
closed = 1;
nodes = (
"380 0 LINE",
"380 796 LINE",
"506 796 LINE",
"554 1002 LINE",
"380 1002 LINE",
"380 1084 LINE SMOOTH",
"380 1172 OFFCURVE",
"436 1222 OFFCURVE",
"514 1222 CURVE SMOOTH",
"550 1222 OFFCURVE",
"582 1212 OFFCURVE",
"606 1190 CURVE",
"606 0 LINE",
"830 0 LINE",
"830 1306 LINE",
"720 1394 OFFCURVE",
"620 1420 OFFCURVE",
"524 1420 CURVE SMOOTH",
"294 1420 OFFCURVE",
"156 1274 OFFCURVE",
"156 1034 CURVE SMOOTH",
"156 0 LINE"
);
}
);
width = 990;
}
);
leftMetricsKey = f;
rightMetricsKey = l;
unicode = FB02;
},
{
glyphname = f_t;
lastChange = "2019-02-12 03:57:44 +0000";
layers = (
{
layerId = "BADA37E3-C95E-4946-BA48-1F986F6D85A7";
paths = (
{
closed = 1;
nodes = (
"856 60 LINE",
"768 89 OFFCURVE",
"724 157 OFFCURVE",
"724 264 CURVE SMOOTH",
"724 896 LINE",
"916 896 LINE",
"964 1002 LINE",
"724 1002 LINE",
"724 1292 LINE",
"644 1372 OFFCURVE",
"552 1414 OFFCURVE",
"452 1414 CURVE SMOOTH",
"280 1414 OFFCURVE",
"156 1294 OFFCURVE",
"156 1092 CURVE SMOOTH",
"156 0 LINE",
"268 0 LINE",
"268 896 LINE",
"448 896 LINE",
"496 1002 LINE",
"268 1002 LINE",
"268 1098 LINE SMOOTH",
"268 1230 OFFCURVE",
"344 1310 OFFCURVE",
"456 1310 CURVE SMOOTH",
"516 1310 OFFCURVE",
"566 1286 OFFCURVE",
"612 1244 CURVE",
"612 264 LINE SMOOTH",
"612 107 OFFCURVE",
"675 17 OFFCURVE",
"824 -26 CURVE"
);
}
);
width = 1010;
},
{
layerId = "77B00D75-0619-4FB7-8D17-EB9FCD2DF18B";
paths = (
{
closed = 1;
nodes = (
"872 6 LINE",
"750 44 OFFCURVE",
"688 130 OFFCURVE",
"688 264 CURVE SMOOTH",
"688 964 LINE",
"944 964 LINE",
"960 1002 LINE",
"688 1002 LINE",
"688 1312 LINE",
"616 1380 OFFCURVE",
"530 1412 OFFCURVE",
"444 1412 CURVE SMOOTH",
"284 1412 OFFCURVE",
"156 1296 OFFCURVE",
"156 1120 CURVE SMOOTH",
"156 0 LINE",
"194 0 LINE",
"194 964 LINE",
"478 964 LINE",
"498 1002 LINE",
"194 1002 LINE",
"194 1120 LINE SMOOTH",
"194 1264 OFFCURVE",
"298 1376 OFFCURVE",
"446 1376 CURVE SMOOTH",
"520 1376 OFFCURVE",
"590 1348 OFFCURVE",
"650 1294 CURVE",
"650 264 LINE SMOOTH",
"650 112 OFFCURVE",
"712 16 OFFCURVE",
"862 -26 CURVE"
);
}
);
width = 1006;
},
{
layerId = "8A94633D-DA21-409C-A8B7-00A83612E8B2";
paths = (
{
closed = 1;
nodes = (
"976 150 LINE",
"883 150 OFFCURVE",
"830 173 OFFCURVE",
"830 264 CURVE SMOOTH",
"830 796 LINE",
"972 796 LINE",
"1020 1002 LINE",
"830 1002 LINE",
"830 1306 LINE",
"720 1394 OFFCURVE",
"620 1420 OFFCURVE",
"524 1420 CURVE SMOOTH",
"294 1420 OFFCURVE",
"156 1274 OFFCURVE",
"156 1034 CURVE SMOOTH",
"156 0 LINE",
"380 0 LINE",
"380 796 LINE",
"506 796 LINE",
"554 1002 LINE",
"380 1002 LINE",
"380 1084 LINE SMOOTH",
"380 1172 OFFCURVE",
"436 1222 OFFCURVE",
"514 1222 CURVE SMOOTH",
"550 1222 OFFCURVE",
"582 1212 OFFCURVE",
"606 1190 CURVE",
"606 264 LINE SMOOTH",
"606 75 OFFCURVE",
"707 -22 OFFCURVE",
"910 -26 CURVE"
);
}
);
width = 1066;
}
);
leftMetricsKey = f;
rightMetricsKey = t;
},
{
glyphname = t_t;
lastChange = "2019-02-12 03:57:44 +0000";
layers = (
{
layerId = "BADA37E3-C95E-4946-BA48-1F986F6D85A7";
paths = (
{
closed = 1;
nodes = (
"332 60 LINE",
"244 91 OFFCURVE",
"200 159 OFFCURVE",
"200 264 CURVE SMOOTH",
"200 896 LINE",
"556 896 LINE",
"558 264 LINE SMOOTH",
"558 107 OFFCURVE",
"621 17 OFFCURVE",
"770 -26 CURVE",
"802 60 LINE",
"714 91 OFFCURVE",
"670 159 OFFCURVE",
"670 264 CURVE SMOOTH",
"670 896 LINE",
"862 896 LINE",
"910 1002 LINE",
"670 1002 LINE",
"670 1400 LINE",
"558 1400 LINE",
"558 1002 LINE",
"200 1002 LINE",
"200 1400 LINE",
"88 1400 LINE",
"88 264 LINE SMOOTH",
"88 107 OFFCURVE",
"151 17 OFFCURVE",
"300 -26 CURVE"
);
}
);
width = 956;
},
{
layerId = "77B00D75-0619-4FB7-8D17-EB9FCD2DF18B";
paths = (
{
closed = 1;
nodes = (
"312 10 LINE",
"179 53 OFFCURVE",
"126 117 OFFCURVE",
"126 264 CURVE SMOOTH",
"126 964 LINE",
"556 964 LINE",
"556 264 LINE SMOOTH",
"556 107 OFFCURVE",
"619 17 OFFCURVE",
"768 -26 CURVE",
"780 10 LINE",
"647 53 OFFCURVE",
"594 117 OFFCURVE",
"594 264 CURVE SMOOTH",
"594 964 LINE",
"890 964 LINE",
"908 1002 LINE",
"594 1002 LINE",
"594 1400 LINE",
"556 1400 LINE",
"556 1002 LINE",
"126 1002 LINE",
"126 1400 LINE",
"88 1400 LINE",
"88 264 LINE SMOOTH",
"88 107 OFFCURVE",
"151 17 OFFCURVE",
"300 -26 CURVE"
);
}
);
width = 954;
},
{
layerId = "8A94633D-DA21-409C-A8B7-00A83612E8B2";
paths = (
{
closed = 1;
nodes = (
"458 150 LINE",
"365 150 OFFCURVE",
"312 173 OFFCURVE",
"312 264 CURVE SMOOTH",
"312 796 LINE",
"556 796 LINE",
"556 264 LINE SMOOTH",
"556 75 OFFCURVE",
"657 -22 OFFCURVE",
"860 -26 CURVE",
"926 150 LINE",
"833 150 OFFCURVE",
"780 173 OFFCURVE",
"780 264 CURVE SMOOTH",
"780 796 LINE",
"922 796 LINE",
"970 1002 LINE",
"780 1002 LINE",
"780 1400 LINE",
"556 1400 LINE",
"556 1002 LINE",
"312 1002 LINE",
"312 1400 LINE",
"88 1400 LINE",
"88 264 LINE SMOOTH",
"88 75 OFFCURVE",
"189 -22 OFFCURVE",
"392 -26 CURVE"
);
}
);
width = 1016;
}
);
leftMetricsKey = t;
rightMetricsKey = t;
},
{
glyphname = ordfeminine;
lastChange = "2019-02-12 03:57:44 +0000";
layers = (
{
layerId = "BADA37E3-C95E-4946-BA48-1F986F6D85A7";
paths = (
{
closed = 1;
nodes = (
"508 764 OFFCURVE",
"604 772 OFFCURVE",
"694 790 CURVE",
"694 1110 LINE SMOOTH",
"694 1321 OFFCURVE",
"623 1418 OFFCURVE",
"362 1418 CURVE",
"356 1332 LINE",
"521 1332 OFFCURVE",
"590 1266 OFFCURVE",
"590 1178 CURVE",
"502 1230 OFFCURVE",
"424 1256 OFFCURVE",
"358 1256 CURVE SMOOTH",
"236 1256 OFFCURVE",
"156 1178 OFFCURVE",
"156 1038 CURVE SMOOTH",
"156 876 OFFCURVE",
"236 764 OFFCURVE",
"446 764 CURVE SMOOTH"
);
},
{
closed = 1;
nodes = (
"340 852 OFFCURVE",
"250 902 OFFCURVE",
"250 1026 CURVE SMOOTH",
"250 1116 OFFCURVE",
"286 1160 OFFCURVE",
"360 1160 CURVE SMOOTH",
"416 1160 OFFCURVE",
"492 1132 OFFCURVE",
"590 1078 CURVE",
"590 866 LINE",
"540 856 OFFCURVE",
"496 852 OFFCURVE",
"456 852 CURVE SMOOTH"
);
}
);
width = 760;
},
{
layerId = "77B00D75-0619-4FB7-8D17-EB9FCD2DF18B";
paths = (
{
closed = 1;
nodes = (
"546 768 OFFCURVE",
"628 776 OFFCURVE",
"694 790 CURVE",
"694 1128 LINE SMOOTH",
"694 1324 OFFCURVE",
"608 1418 OFFCURVE",
"362 1418 CURVE",
"358 1386 LINE",
"569 1381 OFFCURVE",
"656 1322 OFFCURVE",
"656 1138 CURVE",
"550 1220 OFFCURVE",
"448 1260 OFFCURVE",
"358 1260 CURVE SMOOTH",
"234 1260 OFFCURVE",
"156 1186 OFFCURVE",
"156 1016 CURVE SMOOTH",
"156 856 OFFCURVE",
"224 768 OFFCURVE",
"470 768 CURVE SMOOTH"
);
},
{
closed = 1;
nodes = (
"244 804 OFFCURVE",
"194 876 OFFCURVE",
"194 1016 CURVE SMOOTH",
"194 1152 OFFCURVE",
"244 1224 OFFCURVE",
"360 1224 CURVE SMOOTH",
"450 1224 OFFCURVE",
"548 1180 OFFCURVE",
"656 1094 CURVE",
"656 820 LINE",
"584 808 OFFCURVE",
"526 804 OFFCURVE",
"470 804 CURVE SMOOTH"
);
}
);
width = 772;
},
{
layerId = "8A94633D-DA21-409C-A8B7-00A83612E8B2";
paths = (
{
closed = 1;
nodes = (
"546 760 OFFCURVE",
"616 768 OFFCURVE",
"694 782 CURVE",
"694 1118 LINE SMOOTH",
"694 1336 OFFCURVE",
"618 1420 OFFCURVE",
"368 1420 CURVE",
"348 1296 LINE",
"472 1296 OFFCURVE",
"518 1268 OFFCURVE",
"518 1202 CURVE",
"466 1228 OFFCURVE",
"416 1240 OFFCURVE",
"368 1240 CURVE SMOOTH",
"244 1240 OFFCURVE",
"156 1160 OFFCURVE",
"156 1014 CURVE SMOOTH",
"156 864 OFFCURVE",
"254 760 OFFCURVE",
"476 760 CURVE SMOOTH"
);
},
{
closed = 1;
nodes = (
"364 910 OFFCURVE",
"320 948 OFFCURVE",
"320 1010 CURVE SMOOTH",
"320 1062 OFFCURVE",
"350 1094 OFFCURVE",
"406 1094 CURVE SMOOTH",
"442 1094 OFFCURVE",
"480 1080 OFFCURVE",
"518 1058 CURVE",
"518 916 LINE",
"492 912 OFFCURVE",
"470 910 OFFCURVE",
"450 910 CURVE SMOOTH"
);
}
);
width = 772;
}
);
unicode = 00AA;
},
{
glyphname = ordmasculine;
lastChange = "2019-02-12 03:57:44 +0000";
layers = (
{
layerId = "77B00D75-0619-4FB7-8D17-EB9FCD2DF18B";
paths = (
{
closed = 1;
nodes = (
"534 768 OFFCURVE",
"620 884 OFFCURVE",
"620 1040 CURVE SMOOTH",
"620 1146 LINE SMOOTH",
"620 1316 OFFCURVE",
"524 1422 OFFCURVE",
"358 1422 CURVE SMOOTH",
"192 1422 OFFCURVE",
"98 1324 OFFCURVE",
"98 1146 CURVE SMOOTH",
"98 1040 LINE SMOOTH",
"98 886 OFFCURVE",
"188 768 OFFCURVE",
"362 768 CURVE SMOOTH"
);
},
{
closed = 1;
nodes = (
"216 802 OFFCURVE",
"136 900 OFFCURVE",
"136 1036 CURVE SMOOTH",
"136 1150 LINE SMOOTH",
"136 1306 OFFCURVE",
"230 1386 OFFCURVE",
"360 1386 CURVE SMOOTH",
"490 1386 OFFCURVE",
"582 1306 OFFCURVE",
"582 1150 CURVE SMOOTH",
"582 1036 LINE SMOOTH",
"582 898 OFFCURVE",
"504 802 OFFCURVE",
"360 802 CURVE SMOOTH"
);
}
);
width = 698;
},
{
layerId = "BADA37E3-C95E-4946-BA48-1F986F6D85A7";
paths = (
{
closed = 1;
nodes = (
"596 764 OFFCURVE",
"682 874 OFFCURVE",
"682 1024 CURVE SMOOTH",
"682 1158 LINE SMOOTH",
"682 1320 OFFCURVE",
"586 1422 OFFCURVE",
"420 1422 CURVE SMOOTH",
"250 1422 OFFCURVE",
"156 1328 OFFCURVE",
"156 1158 CURVE SMOOTH",
"156 1024 LINE SMOOTH",
"156 874 OFFCURVE",
"248 764 OFFCURVE",
"422 764 CURVE SMOOTH"
);
},
{
closed = 1;
nodes = (
"336 870 OFFCURVE",
"268 918 OFFCURVE",
"268 1012 CURVE SMOOTH",
"268 1158 LINE SMOOTH",
"268 1260 OFFCURVE",
"320 1312 OFFCURVE",
"422 1312 CURVE SMOOTH",
"526 1312 OFFCURVE",
"570 1260 OFFCURVE",
"570 1158 CURVE SMOOTH",
"570 1012 LINE SMOOTH",
"570 918 OFFCURVE",
"498 870 OFFCURVE",
"420 870 CURVE SMOOTH"
);
}
);
width = 748;
},
{
layerId = "8A94633D-DA21-409C-A8B7-00A83612E8B2";
paths = (
{
closed = 1;
nodes = (
"614 760 OFFCURVE",
"704 882 OFFCURVE",
"704 1048 CURVE SMOOTH",
"704 1134 LINE SMOOTH",
"704 1312 OFFCURVE",
"604 1424 OFFCURVE",
"432 1424 CURVE SMOOTH",
"256 1424 OFFCURVE",
"156 1322 OFFCURVE",
"156 1134 CURVE SMOOTH",
"156 1048 LINE SMOOTH",
"156 884 OFFCURVE",
"250 760 OFFCURVE",
"432 760 CURVE SMOOTH"
);
},
{
closed = 1;
nodes = (
"362 932 OFFCURVE",
"332 966 OFFCURVE",
"332 1034 CURVE SMOOTH",
"332 1132 LINE SMOOTH",
"332 1212 OFFCURVE",
"360 1248 OFFCURVE",
"432 1248 CURVE SMOOTH",
"494 1248 OFFCURVE",
"530 1222 OFFCURVE",
"530 1132 CURVE SMOOTH",
"530 1034 LINE SMOOTH",
"530 968 OFFCURVE",
"500 932 OFFCURVE",
"430 932 CURVE SMOOTH"
);
}
);
width = 782;
}
);
unicode = 00BA;
},
{
glyphname = Gamma;
lastChange = "2019-02-12 03:57:44 +0000";
layers = (
{
layerId = "BADA37E3-C95E-4946-BA48-1F986F6D85A7";
paths = (
{
closed = 1;
nodes = (
"268 0 LINE",
"268 1294 LINE",
"824 1294 LINE",
"824 1400 LINE",
"156 1400 LINE",
"156 0 LINE"
);
}
);
width = 890;
},
{
layerId = "77B00D75-0619-4FB7-8D17-EB9FCD2DF18B";
paths = (
{
closed = 1;
nodes = (
"194 0 LINE",
"194 1360 LINE",
"824 1360 LINE",
"824 1400 LINE",
"156 1400 LINE",
"156 0 LINE"
);
}
);
width = 902;
},
{
layerId = "8A94633D-DA21-409C-A8B7-00A83612E8B2";
paths = (
{
closed = 1;
nodes = (
"378 0 LINE",
"378 1180 LINE",
"824 1180 LINE",
"824 1400 LINE",
"156 1400 LINE",
"156 0 LINE"
);
}
);
width = 902;
}
);
unicode = 0393;
},
{
glyphname = Delta;
lastChange = "2019-02-12 03:57:44 +0000";
layers = (
{
layerId = "BADA37E3-C95E-4946-BA48-1F986F6D85A7";
paths = (
{
closed = 1;
nodes = (
"1034 0 LINE",
"578 1400 LINE",
"472 1400 LINE",
"24 0 LINE"
);
},
{
closed = 1;
nodes = (
"524 1226 LINE",
"882 100 LINE",
"172 100 LINE"
);
}
);
width = 1046;
},
{
layerId = "77B00D75-0619-4FB7-8D17-EB9FCD2DF18B";
paths = (
{
closed = 1;
nodes = (
"1034 0 LINE",
"542 1400 LINE",
"504 1400 LINE",
"24 0 LINE"
);
},
{
closed = 1;
nodes = (
"524 1348 LINE",
"980 38 LINE",
"78 38 LINE"
);
}
);
width = 1056;
},
{
layerId = "8A94633D-DA21-409C-A8B7-00A83612E8B2";
paths = (
{
closed = 1;
nodes = (
"1052 0 LINE",
"644 1400 LINE",
"424 1400 LINE",
"42 0 LINE"
);
},
{
closed = 1;
nodes = (
"544 964 LINE",
"754 202 LINE",
"340 202 LINE"
);
}
);
width = 1064;
}
);
unicode = 0394;
},
{
glyphname = Theta;
lastChange = "2019-02-12 03:57:44 +0000";
layers = (
{
layerId = "BADA37E3-C95E-4946-BA48-1F986F6D85A7";
paths = (
{
closed = 1;
nodes = (
"778 -22 OFFCURVE",
"966 118 OFFCURVE",
"966 388 CURVE SMOOTH",
"966 1012 LINE SMOOTH",
"966 1274 OFFCURVE",
"814 1432 OFFCURVE",
"550 1432 CURVE SMOOTH",
"286 1432 OFFCURVE",
"126 1288 OFFCURVE",
"126 1014 CURVE SMOOTH",
"126 388 LINE SMOOTH",
"126 118 OFFCURVE",
"318 -22 OFFCURVE",
"548 -22 CURVE SMOOTH"
);
},
{
closed = 1;
nodes = (
"394 80 OFFCURVE",
"238 178 OFFCURVE",
"238 372 CURVE SMOOTH",
"238 660 LINE",
"856 660 LINE",
"856 374 LINE SMOOTH",
"856 176 OFFCURVE",
"704 80 OFFCURVE",
"550 80 CURVE SMOOTH"
);
},
{
closed = 1;
nodes = (
"238 1032 LINE SMOOTH",
"238 1226 OFFCURVE",
"360 1326 OFFCURVE",
"546 1326 CURVE SMOOTH",
"732 1326 OFFCURVE",
"856 1226 OFFCURVE",
"856 1032 CURVE SMOOTH",
"856 770 LINE",
"238 770 LINE"
);
}
);
width = 1098;
},
{
layerId = "77B00D75-0619-4FB7-8D17-EB9FCD2DF18B";
paths = (
{
closed = 1;
nodes = (
"778 -22 OFFCURVE",
"966 100 OFFCURVE",
"966 370 CURVE SMOOTH",
"966 1012 LINE SMOOTH",
"966 1274 OFFCURVE",
"814 1432 OFFCURVE",
"550 1432 CURVE SMOOTH",
"286 1432 OFFCURVE",
"126 1288 OFFCURVE",
"126 1014 CURVE SMOOTH",
"126 370 LINE SMOOTH",
"126 100 OFFCURVE",
"318 -22 OFFCURVE",
"548 -22 CURVE SMOOTH"
);
},
{
closed = 1;
nodes = (
"334 16 OFFCURVE",
"164 136 OFFCURVE",
"164 368 CURVE SMOOTH",
"164 694 LINE",
"928 694 LINE",
"928 368 LINE SMOOTH",
"928 122 OFFCURVE",
"762 16 OFFCURVE",
"548 16 CURVE SMOOTH"
);
},
{
closed = 1;
nodes = (
"164 1016 LINE SMOOTH",
"164 1246 OFFCURVE",
"292 1390 OFFCURVE",
"546 1390 CURVE SMOOTH",
"800 1390 OFFCURVE",
"928 1250 OFFCURVE",
"928 1020 CURVE SMOOTH",
"928 732 LINE",
"164 732 LINE"
);
}
);
width = 1098;
},
{
layerId = "8A94633D-DA21-409C-A8B7-00A83612E8B2";
paths = (
{
closed = 1;
nodes = (
"778 -22 OFFCURVE",
"966 100 OFFCURVE",
"966 370 CURVE SMOOTH",
"966 1012 LINE SMOOTH",
"966 1274 OFFCURVE",
"814 1432 OFFCURVE",
"550 1432 CURVE SMOOTH",
"286 1432 OFFCURVE",
"126 1288 OFFCURVE",
"126 1014 CURVE SMOOTH",
"126 370 LINE SMOOTH",
"126 100 OFFCURVE",
"318 -22 OFFCURVE",
"548 -22 CURVE SMOOTH"
);
},
{
closed = 1;
nodes = (
"410 202 OFFCURVE",
"346 280 OFFCURVE",
"346 408 CURVE SMOOTH",
"346 602 LINE",
"746 602 LINE",
"746 412 LINE SMOOTH",
"746 286 OFFCURVE",
"672 202 OFFCURVE",
"546 202 CURVE SMOOTH"
);
},
{
closed = 1;
nodes = (
"346 942 LINE SMOOTH",
"346 1116 OFFCURVE",
"384 1194 OFFCURVE",
"546 1194 CURVE SMOOTH",
"708 1194 OFFCURVE",
"746 1110 OFFCURVE",
"746 940 CURVE SMOOTH",
"746 784 LINE",
"346 784 LINE"
);
}
);
width = 1098;
}
);
leftMetricsKey = O;
rightMetricsKey = O;
unicode = 0398;
},
{
glyphname = Lambda;
lastChange = "2019-02-12 03:57:44 +0000";
layers = (
{
layerId = "BADA37E3-C95E-4946-BA48-1F986F6D85A7";
paths = (
{
closed = 1;
nodes = (
"142 0 LINE",
"524 1226 LINE",
"914 0 LINE",
"1034 0 LINE",
"578 1400 LINE",
"472 1400 LINE",
"24 0 LINE"
);
}
);
width = 1046;
},
{
layerId = "77B00D75-0619-4FB7-8D17-EB9FCD2DF18B";
paths = (
{
closed = 1;
nodes = (
"62 0 LINE",
"524 1340 LINE",
"994 0 LINE",
"1034 0 LINE",
"544 1400 LINE",
"506 1400 LINE",
"24 0 LINE"
);
}
);
width = 1066;
},
{
layerId = "8A94633D-DA21-409C-A8B7-00A83612E8B2";
paths = (
{
closed = 1;
nodes = (
"290 0 LINE",
"542 908 LINE",
"800 0 LINE",
"1052 0 LINE",
"646 1400 LINE",
"442 1400 LINE",
"42 0 LINE"
);
}
);
width = 1064;
}
);
unicode = 039B;
},
{
glyphname = Xi;
lastChange = "2019-02-12 03:57:44 +0000";
layers = (
{
layerId = "BADA37E3-C95E-4946-BA48-1F986F6D85A7";
paths = (
{
closed = 1;
nodes = (
"274 1251 OFFCURVE",
"342 1298 OFFCURVE",
"446 1298 CURVE SMOOTH",
"1054 1298 LINE",
"1096 1402 LINE",
"446 1402 LINE SMOOTH",
"289 1402 OFFCURVE",
"199 1339 OFFCURVE",
"156 1190 CURVE",
"242 1158 LINE"
);
},
{
closed = 1;
nodes = (
"884 0 LINE SMOOTH",
"1041 0 OFFCURVE",
"1131 63 OFFCURVE",
"1174 212 CURVE",
"1088 244 LINE",
"1056 151 OFFCURVE",
"988 104 OFFCURVE",
"884 104 CURVE SMOOTH",
"276 104 LINE",
"234 0 LINE"
);
},
{
closed = 1;
nodes = (
"938 716 LINE",
"938 826 LINE",
"410 826 LINE",
"410 716 LINE"
);
}
);
width = 1240;
},
{
layerId = "77B00D75-0619-4FB7-8D17-EB9FCD2DF18B";
paths = (
{
closed = 1;
nodes = (
"232 1293 OFFCURVE",
"286 1360 OFFCURVE",
"446 1360 CURVE SMOOTH",
"1078 1360 LINE",
"1096 1400 LINE",
"446 1400 LINE SMOOTH",
"289 1400 OFFCURVE",
"199 1339 OFFCURVE",
"156 1190 CURVE",
"192 1176 LINE"
);
},
{
closed = 1;
nodes = (
"884 0 LINE SMOOTH",
"1041 0 OFFCURVE",
"1131 63 OFFCURVE",
"1174 212 CURVE",
"1136 226 LINE",
"1096 106 OFFCURVE",
"1044 38 OFFCURVE",
"884 38 CURVE SMOOTH",
"250 38 LINE",
"234 0 LINE"
);
},
{
closed = 1;
nodes = (
"938 788 LINE",
"938 826 LINE",
"410 826 LINE",
"410 788 LINE"
);
}
);
width = 1252;
},
{
layerId = "8A94633D-DA21-409C-A8B7-00A83612E8B2";
paths = (
{
closed = 1;
nodes = (
"331 1150 OFFCURVE",
"391 1180 OFFCURVE",
"488 1180 CURVE SMOOTH",
"1054 1180 LINE",
"1096 1402 LINE",
"446 1402 LINE SMOOTH",
"289 1402 OFFCURVE",
"199 1339 OFFCURVE",
"156 1190 CURVE",
"310 1090 LINE"
);
},
{
closed = 1;
nodes = (
"884 0 LINE SMOOTH",
"1041 0 OFFCURVE",
"1131 63 OFFCURVE",
"1174 212 CURVE",
"990 314 LINE",
"961 226 OFFCURVE",
"911 202 OFFCURVE",
"804 202 CURVE SMOOTH",
"296 202 LINE",
"234 0 LINE"
);
},
{
closed = 1;
nodes = (
"938 616 LINE",
"938 826 LINE",
"410 826 LINE",
"410 616 LINE"
);
}
);
width = 1252;
}
);
unicode = 039E;
},
{
glyphname = Pi;
lastChange = "2019-02-12 03:57:44 +0000";
layers = (
{
layerId = "BADA37E3-C95E-4946-BA48-1F986F6D85A7";
paths = (
{
closed = 1;
nodes = (
"272 0 LINE",
"272 1290 LINE",
"908 1290 LINE",
"908 0 LINE",
"1020 0 LINE",
"1020 1400 LINE",
"160 1400 LINE",
"160 0 LINE"
);
}
);
width = 1162;
},
{
layerId = "77B00D75-0619-4FB7-8D17-EB9FCD2DF18B";
paths = (
{
closed = 1;
nodes = (
"198 0 LINE",
"198 1360 LINE",
"982 1360 LINE",
"982 0 LINE",
"1020 0 LINE",
"1020 1400 LINE",
"160 1400 LINE",
"160 0 LINE"
);
}
);
width = 1180;
},
{
layerId = "8A94633D-DA21-409C-A8B7-00A83612E8B2";
paths = (
{
closed = 1;
nodes = (
"380 0 LINE",
"380 1180 LINE",
"800 1180 LINE",
"800 0 LINE",
"1020 0 LINE",
"1020 1400 LINE",
"160 1400 LINE",
"160 0 LINE"
);
}
);
width = 1162;
}
);
unicode = 03A0;
},
{
glyphname = Sigma;
lastChange = "2019-02-12 03:57:44 +0000";
layers = (
{
layerId = "BADA37E3-C95E-4946-BA48-1F986F6D85A7";
paths = (
{
closed = 1;
nodes = (
"802 0 LINE SMOOTH",
"959 0 OFFCURVE",
"1049 63 OFFCURVE",
"1092 212 CURVE",
"1006 244 LINE",
"974 153 OFFCURVE",
"895 102 OFFCURVE",
"794 102 CURVE SMOOTH",
"342 102 LINE",
"742 774 LINE",
"390 1298 LINE",
"1008 1298 LINE",
"1044 1404 LINE",
"188 1404 LINE",
"608 768 LINE",
"156 0 LINE"
);
}
);
width = 1158;
},
{
layerId = "77B00D75-0619-4FB7-8D17-EB9FCD2DF18B";
paths = (
{
closed = 1;
nodes = (
"802 0 LINE SMOOTH",
"959 0 OFFCURVE",
"1049 63 OFFCURVE",
"1092 212 CURVE",
"1052 226 LINE",
"1009 77 OFFCURVE",
"927 40 OFFCURVE",
"770 40 CURVE SMOOTH",
"224 40 LINE",
"654 768 LINE",
"264 1356 LINE",
"1028 1356 LINE",
"1044 1400 LINE",
"188 1400 LINE",
"608 768 LINE",
"156 0 LINE"
);
}
);
width = 1170;
},
{
layerId = "8A94633D-DA21-409C-A8B7-00A83612E8B2";
paths = (
{
closed = 1;
nodes = (
"802 0 LINE SMOOTH",
"959 0 OFFCURVE",
"1049 63 OFFCURVE",
"1092 212 CURVE",
"904 314 LINE",
"872 221 OFFCURVE",
"841 202 OFFCURVE",
"740 202 CURVE SMOOTH",
"530 202 LINE",
"868 774 LINE",
"594 1180 LINE",
"976 1180 LINE",
"1044 1404 LINE",
"188 1404 LINE",
"608 768 LINE",
"156 0 LINE"
);
}
);
width = 1170;
}
);
unicode = 03A3;
},
{
glyphname = Phi;
lastChange = "2019-02-12 03:57:44 +0000";
layers = (
{
layerId = "BADA37E3-C95E-4946-BA48-1F986F6D85A7";
paths = (
{
closed = 1;
nodes = (
"806 0 LINE",
"806 198 LINE",
"930 198 LINE SMOOTH",
"1242 198 OFFCURVE",
"1344 440 OFFCURVE",
"1344 720 CURVE SMOOTH",
"1344 1054 OFFCURVE",
"1206 1228 OFFCURVE",
"916 1228 CURVE SMOOTH",
"806 1228 LINE",
"806 1400 LINE",
"694 1400 LINE",
"694 1228 LINE",
"584 1228 LINE SMOOTH",
"294 1228 OFFCURVE",
"156 1054 OFFCURVE",
"156 720 CURVE SMOOTH",
"156 440 OFFCURVE",
"260 198 OFFCURVE",
"570 198 CURVE SMOOTH",
"694 198 LINE",
"694 0 LINE"
);
},
{
closed = 1;
nodes = (
"322 308 OFFCURVE",
"266 498 OFFCURVE",
"266 720 CURVE SMOOTH",
"266 1016 OFFCURVE",
"384 1122 OFFCURVE",
"576 1122 CURVE SMOOTH",
"694 1122 LINE",
"694 308 LINE",
"568 308 LINE SMOOTH"
);
},
{
closed = 1;
nodes = (
"806 1122 LINE",
"924 1122 LINE SMOOTH",
"1116 1122 OFFCURVE",
"1234 1016 OFFCURVE",
"1234 720 CURVE SMOOTH",
"1234 498 OFFCURVE",
"1178 308 OFFCURVE",
"932 308 CURVE SMOOTH",
"806 308 LINE"
);
}
);
width = 1412;
},
{
layerId = "77B00D75-0619-4FB7-8D17-EB9FCD2DF18B";
paths = (
{
closed = 1;
nodes = (
"742 0 LINE",
"742 200 LINE",
"876 200 LINE SMOOTH",
"1152 200 OFFCURVE",
"1290 368 OFFCURVE",
"1290 704 CURVE SMOOTH",
"1290 1024 OFFCURVE",
"1164 1226 OFFCURVE",
"902 1226 CURVE SMOOTH",
"742 1226 LINE",
"742 1400 LINE",
"704 1400 LINE",
"704 1226 LINE",
"544 1226 LINE SMOOTH",
"282 1226 OFFCURVE",
"156 1024 OFFCURVE",
"156 704 CURVE SMOOTH",
"156 368 OFFCURVE",
"294 200 OFFCURVE",
"570 200 CURVE SMOOTH",
"704 200 LINE",
"704 0 LINE"
);
},
{
closed = 1;
nodes = (
"320 238 OFFCURVE",
"194 394 OFFCURVE",
"194 704 CURVE SMOOTH",
"194 1000 OFFCURVE",
"302 1186 OFFCURVE",
"542 1186 CURVE SMOOTH",
"704 1186 LINE",
"704 238 LINE",
"574 238 LINE SMOOTH"
);
},
{
closed = 1;
nodes = (
"742 1186 LINE",
"904 1186 LINE SMOOTH",
"1144 1186 OFFCURVE",
"1252 1000 OFFCURVE",
"1252 704 CURVE SMOOTH",
"1252 394 OFFCURVE",
"1126 238 OFFCURVE",
"872 238 CURVE SMOOTH",
"742 238 LINE"
);
}
);
width = 1368;
},
{
layerId = "8A94633D-DA21-409C-A8B7-00A83612E8B2";
paths = (
{
closed = 1;
nodes = (
"930 0 LINE",
"930 154 LINE",
"1070 154 LINE SMOOTH",
"1344 154 OFFCURVE",
"1484 348 OFFCURVE",
"1484 716 CURVE SMOOTH",
"1484 1036 OFFCURVE",
"1346 1256 OFFCURVE",
"1052 1256 CURVE SMOOTH",
"930 1256 LINE",
"930 1400 LINE",
"710 1400 LINE",
"710 1256 LINE",
"588 1256 LINE SMOOTH",
"294 1256 OFFCURVE",
"156 1036 OFFCURVE",
"156 716 CURVE SMOOTH",
"156 348 OFFCURVE",
"296 154 OFFCURVE",
"570 154 CURVE SMOOTH",
"710 154 LINE",
"710 0 LINE"
);
},
{
closed = 1;
nodes = (
"424 364 OFFCURVE",
"376 494 OFFCURVE",
"376 714 CURVE SMOOTH",
"376 950 OFFCURVE",
"434 1036 OFFCURVE",
"644 1036 CURVE SMOOTH",
"710 1036 LINE",
"710 364 LINE",
"638 364 LINE SMOOTH"
);
},
{
closed = 1;
nodes = (
"930 1036 LINE",
"996 1036 LINE SMOOTH",
"1206 1036 OFFCURVE",
"1264 950 OFFCURVE",
"1264 714 CURVE SMOOTH",
"1264 494 OFFCURVE",
"1216 364 OFFCURVE",
"1002 364 CURVE SMOOTH",
"930 364 LINE"
);
}
);
width = 1562;
},
{
associatedMasterId = "8A94633D-DA21-409C-A8B7-00A83612E8B2";
layerId = "C08CFD2E-5E8F-4859-8ED5-3D4C00A38A6F";
name = "Aug 14 18, 16:16";
paths = (
{
closed = 1;
nodes = (
"788 30 LINE",
"834 30 LINE SMOOTH",
"1114 30 OFFCURVE",
"1210 189 OFFCURVE",
"1210 450 CURVE SMOOTH",
"1210 1026 LINE SMOOTH",
"1210 1266 OFFCURVE",
"1116 1422 OFFCURVE",
"878 1422 CURVE SMOOTH",
"688 1422 OFFCURVE",
"568 1322 OFFCURVE",
"568 1122 CURVE SMOOTH",
"568 202 LINE",
"532 202 LINE SMOOTH",
"382 202 OFFCURVE",
"382 306 OFFCURVE",
"376 502 CURVE SMOOTH",
"376 1034 LINE SMOOTH",
"376 1187 OFFCURVE",
"409 1208 OFFCURVE",
"504 1244 CURVE",
"388 1412 LINE",
"233 1363 OFFCURVE",
"156 1237 OFFCURVE",
"156 1034 CURVE SMOOTH",
"156 450 LINE SMOOTH",
"156 189 OFFCURVE",
"246 30 OFFCURVE",
"532 30 CURVE SMOOTH",
"568 30 LINE",
"568 -44 LINE",
"788 -70 LINE"
);
},
{
closed = 1;
nodes = (
"788 1090 LINE SMOOTH",
"788 1164 OFFCURVE",
"812 1202 OFFCURVE",
"878 1202 CURVE SMOOTH",
"980 1202 OFFCURVE",
"986 1110 OFFCURVE",
"986 958 CURVE SMOOTH",
"986 502 LINE SMOOTH",
"986 256 OFFCURVE",
"928 202 OFFCURVE",
"834 202 CURVE SMOOTH",
"788 202 LINE"
);
}
);
width = 1288;
},
{
associatedMasterId = "BADA37E3-C95E-4946-BA48-1F986F6D85A7";
layerId = "CD575D91-D60A-46B2-B960-054AE4F2DCCB";
name = "Aug 14 18, 16:17";
paths = (
{
closed = 1;
nodes = (
"736 60 LINE",
"834 60 LINE SMOOTH",
"1087 60 OFFCURVE",
"1210 207 OFFCURVE",
"1210 450 CURVE SMOOTH",
"1210 1022 LINE SMOOTH",
"1210 1265 OFFCURVE",
"1068 1422 OFFCURVE",
"836 1422 CURVE SMOOTH",
"711 1422 OFFCURVE",
"628 1343 OFFCURVE",
"620 1210 CURVE",
"620 162 LINE",
"532 162 LINE SMOOTH",
"372 162 OFFCURVE",
"268 254 OFFCURVE",
"268 430 CURVE SMOOTH",
"268 1034 LINE SMOOTH",
"268 1195 OFFCURVE",
"328 1291 OFFCURVE",
"448 1322 CURVE",
"388 1412 LINE",
"233 1363 OFFCURVE",
"156 1237 OFFCURVE",
"156 1034 CURVE SMOOTH",
"156 450 LINE SMOOTH",
"156 207 OFFCURVE",
"279 60 OFFCURVE",
"532 60 CURVE SMOOTH",
"620 60 LINE",
"620 -44 LINE",
"736 -70 LINE"
);
},
{
closed = 1;
nodes = (
"736 1192 LINE SMOOTH",
"736 1275 OFFCURVE",
"775 1316 OFFCURVE",
"852 1316 CURVE SMOOTH",
"975 1316 OFFCURVE",
"1098 1223 OFFCURVE",
"1098 1042 CURVE SMOOTH",
"1098 430 LINE SMOOTH",
"1098 254 OFFCURVE",
"994 162 OFFCURVE",
"834 162 CURVE SMOOTH",
"736 162 LINE"
);
}
);
width = 1276;
},
{
associatedMasterId = "77B00D75-0619-4FB7-8D17-EB9FCD2DF18B";
layerId = "F2CECFC7-21A8-4E0A-871D-1C1021119436";
name = "Aug 14 18, 16:17";
paths = (
{
closed = 1;
nodes = (
"698 60 LINE",
"834 60 LINE SMOOTH",
"1088 60 OFFCURVE",
"1210 208 OFFCURVE",
"1210 450 CURVE SMOOTH",
"1210 1022 LINE SMOOTH",
"1210 1262 OFFCURVE",
"1070 1422 OFFCURVE",
"870 1422 CURVE SMOOTH",
"724 1422 OFFCURVE",
"660 1338 OFFCURVE",
"660 1202 CURVE SMOOTH",
"660 96 LINE",
"532 96 LINE SMOOTH",
"318 96 OFFCURVE",
"194 208 OFFCURVE",
"194 430 CURVE SMOOTH",
"194 1034 LINE SMOOTH",
"194 1220 OFFCURVE",
"264 1336 OFFCURVE",
"404 1382 CURVE",
"388 1412 LINE",
"234 1362 OFFCURVE",
"156 1236 OFFCURVE",
"156 1034 CURVE SMOOTH",
"156 450 LINE SMOOTH",
"156 208 OFFCURVE",
"278 60 OFFCURVE",
"532 60 CURVE SMOOTH",
"660 60 LINE",
"660 -52 LINE",
"698 -60 LINE"
);
},
{
closed = 1;
nodes = (
"698 1202 LINE SMOOTH",
"698 1326 OFFCURVE",
"748 1388 OFFCURVE",
"870 1388 CURVE SMOOTH",
"1060 1388 OFFCURVE",
"1172 1228 OFFCURVE",
"1172 1024 CURVE SMOOTH",
"1172 430 LINE SMOOTH",
"1172 228 OFFCURVE",
"1056 96 OFFCURVE",
"846 96 CURVE SMOOTH",
"698 96 LINE"
);
}
);
width = 1288;
}
);
leftMetricsKey = Thorn;
rightMetricsKey = Thorn;
unicode = 03A6;
},
{
glyphname = Chi;
lastChange = "2019-02-12 03:57:44 +0000";
layers = (
{
layerId = "BADA37E3-C95E-4946-BA48-1F986F6D85A7";
paths = (
{
closed = 1;
nodes = (
"294 0 LINE",
"664 588 LINE",
"1032 0 LINE",
"1170 0 LINE",
"732 704 LINE",
"1138 1400 LINE",
"1012 1400 LINE",
"664 812 LINE",
"320 1400 LINE",
"194 1400 LINE",
"598 704 LINE",
"156 0 LINE"
);
}
);
width = 1236;
},
{
layerId = "77B00D75-0619-4FB7-8D17-EB9FCD2DF18B";
paths = (
{
closed = 1;
nodes = (
"206 0 LINE",
"664 692 LINE",
"1126 0 LINE",
"1170 6 LINE",
"690 728 LINE",
"1138 1400 LINE",
"1090 1400 LINE",
"664 764 LINE",
"238 1400 LINE",
"194 1400 LINE",
"642 728 LINE",
"156 0 LINE"
);
}
);
width = 1248;
},
{
layerId = "8A94633D-DA21-409C-A8B7-00A83612E8B2";
paths = (
{
closed = 1;
nodes = (
"430 0 LINE",
"724 488 LINE",
"1028 0 LINE",
"1310 0 LINE",
"866 718 LINE",
"1276 1400 LINE",
"1014 1400 LINE",
"734 936 LINE",
"440 1400 LINE",
"180 1400 LINE",
"592 700 LINE",
"156 0 LINE"
);
}
);
width = 1388;
}
);
unicode = 03A7;
},
{
glyphname = Psi;
lastChange = "2019-02-12 03:57:44 +0000";
layers = (
{
layerId = "BADA37E3-C95E-4946-BA48-1F986F6D85A7";
paths = (
{
closed = 1;
nodes = (
"702 0 LINE",
"702 424 LINE",
"800 424 LINE SMOOTH",
"1053 424 OFFCURVE",
"1176 569 OFFCURVE",
"1176 812 CURVE SMOOTH",
"1176 1108 LINE SMOOTH",
"1176 1232 OFFCURVE",
"1174 1352 OFFCURVE",
"1048 1428 CURVE",
"980 1364 LINE",
"1044 1300 OFFCURVE",
"1064 1262 OFFCURVE",
"1064 1138 CURVE SMOOTH",
"1064 792 LINE SMOOTH",
"1064 616 OFFCURVE",
"960 524 OFFCURVE",
"800 524 CURVE SMOOTH",
"702 524 LINE",
"702 1400 LINE",
"586 1400 LINE",
"586 524 LINE",
"498 524 LINE SMOOTH",
"338 524 OFFCURVE",
"234 616 OFFCURVE",
"234 792 CURVE SMOOTH",
"234 1400 LINE",
"122 1400 LINE",
"122 812 LINE SMOOTH",
"122 569 OFFCURVE",
"245 424 OFFCURVE",
"498 424 CURVE SMOOTH",
"586 424 LINE",
"588 0 LINE"
);
}
);
width = 1264;
},
{
layerId = "77B00D75-0619-4FB7-8D17-EB9FCD2DF18B";
paths = (
{
closed = 1;
nodes = (
"628 0 LINE",
"628 424 LINE",
"766 424 LINE SMOOTH",
"1019 424 OFFCURVE",
"1142 569 OFFCURVE",
"1142 812 CURVE SMOOTH",
"1142 1092 LINE SMOOTH",
"1142 1216 OFFCURVE",
"1142 1342 OFFCURVE",
"1030 1412 CURVE",
"1010 1388 LINE",
"1082 1328 OFFCURVE",
"1104 1280 OFFCURVE",
"1104 1122 CURVE SMOOTH",
"1104 812 LINE SMOOTH",
"1104 588 OFFCURVE",
"990 462 OFFCURVE",
"766 462 CURVE SMOOTH",
"628 462 LINE",
"628 1400 LINE",
"590 1400 LINE",
"590 462 LINE",
"464 462 LINE SMOOTH",
"259 462 OFFCURVE",
"126 569 OFFCURVE",
"126 812 CURVE SMOOTH",
"126 1400 LINE",
"88 1400 LINE",
"88 812 LINE SMOOTH",
"88 569 OFFCURVE",
"211 424 OFFCURVE",
"464 424 CURVE SMOOTH",
"590 424 LINE",
"590 0 LINE"
);
}
);
width = 1254;
},
{
layerId = "8A94633D-DA21-409C-A8B7-00A83612E8B2";
paths = (
{
closed = 1;
nodes = (
"740 0 LINE",
"740 424 LINE",
"786 424 LINE SMOOTH",
"1039 424 OFFCURVE",
"1162 569 OFFCURVE",
"1162 812 CURVE SMOOTH",
"1162 1114 LINE SMOOTH",
"1162 1254 OFFCURVE",
"1162 1348 OFFCURVE",
"1030 1434 CURVE",
"884 1336 LINE",
"918 1302 OFFCURVE",
"944 1252 OFFCURVE",
"944 1144 CURVE SMOOTH",
"944 886 LINE SMOOTH",
"944 678 OFFCURVE",
"927 616 OFFCURVE",
"786 616 CURVE SMOOTH",
"740 616 LINE",
"740 1400 LINE",
"522 1400 LINE",
"522 616 LINE",
"484 616 LINE SMOOTH",
"343 616 OFFCURVE",
"326 674 OFFCURVE",
"326 882 CURVE SMOOTH",
"326 1400 LINE",
"108 1400 LINE",
"108 812 LINE SMOOTH",
"108 569 OFFCURVE",
"231 424 OFFCURVE",
"484 424 CURVE SMOOTH",
"522 424 LINE",
"524 0 LINE"
);
}
);
width = 1264;
}
);
unicode = 03A8;
},
